<svg xmlns="http://www.w3.org/2000/svg" width="72" height="72" viewBox="0 0 72 72"><style type="text/css">.st0{clip-path:url(#SVGID_2_);fill:#F58B69;} .st1{opacity:0.3;clip-path:url(#SVGID_2_);fill:url(#SVGID_3_);} .st2{clip-path:url(#SVGID_2_);fill:#3B3336;} .st3{clip-path:url(#SVGID_5_);fill:#F58B69;} .st4{opacity:0.3;clip-path:url(#SVGID_5_);fill:url(#SVGID_6_);} .st5{clip-path:url(#SVGID_5_);fill:#3B3336;} .st6{clip-path:url(#SVGID_5_);} .st7{fill:#F47D55;} .st8{fill:#3B3336;} .st9{clip-path:url(#SVGID_8_);fill:#F58B69;} .st10{opacity:0.3;clip-path:url(#SVGID_8_);fill:url(#SVGID_9_);} .st11{clip-path:url(#SVGID_8_);fill:#3B3336;} .st12{clip-path:url(#SVGID_8_);} .st13{clip-path:url(#SVGID_8_);fill:#F47D55;stroke:#F47D55;stroke-width:1.128;stroke-linecap:round;stroke-miterlimit:10;} .st14{clip-path:url(#SVGID_11_);fill:#F58B69;} .st15{opacity:0.3;clip-path:url(#SVGID_11_);fill:url(#SVGID_12_);} .st16{clip-path:url(#SVGID_11_);} .st17{clip-path:url(#SVGID_14_);fill:#F58B69;} .st18{opacity:0.3;clip-path:url(#SVGID_14_);fill:url(#SVGID_15_);} .st19{clip-path:url(#SVGID_14_);fill:#3B3336;} .st20{clip-path:url(#SVGID_14_);fill:none;stroke:#F47D55;stroke-width:1.2829;stroke-linecap:round;stroke-miterlimit:10;} .st21{clip-path:url(#SVGID_14_);fill:none;stroke:#F47D55;stroke-width:0.4943;stroke-linecap:round;stroke-miterlimit:10;} .st22{clip-path:url(#SVGID_14_);fill:#F47D55;} .st23{clip-path:url(#SVGID_14_);} .st24{clip-path:url(#SVGID_17_);fill:#F58B69;} .st25{opacity:0.3;clip-path:url(#SVGID_17_);fill:url(#SVGID_18_);} .st26{clip-path:url(#SVGID_17_);} .st27{fill:none;} .st28{opacity:0.3;fill:url(#SVGID_19_);} .st29{opacity:0.3;fill:url(#SVGID_20_);} .st30{opacity:0.3;fill:url(#SVGID_21_);} .st31{opacity:0.3;fill:url(#SVGID_22_);} .st32{opacity:0.3;fill:url(#SVGID_23_);} .st33{opacity:0.3;fill:url(#SVGID_24_);} .st34{opacity:0.3;fill:url(#SVGID_25_);} .st35{opacity:0.3;fill:url(#SVGID_26_);} .st36{opacity:0.3;fill:url(#SVGID_27_);} .st37{opacity:0.3;fill:url(#SVGID_28_);} .st38{opacity:0.3;fill:url(#SVGID_29_);} .st39{opacity:0.3;fill:url(#SVGID_30_);} .st40{opacity:0.3;fill:url(#SVGID_31_);} .st41{opacity:0.3;fill:url(#SVGID_32_);} .st42{opacity:0.3;fill:url(#SVGID_33_);} .st43{opacity:0.3;fill:url(#SVGID_34_);} .st44{opacity:0.3;fill:url(#SVGID_35_);} .st45{opacity:0.3;fill:url(#SVGID_36_);} .st46{opacity:0.3;fill:url(#SVGID_37_);} .st47{opacity:0.3;fill:url(#SVGID_38_);} .st48{opacity:0.3;fill:url(#SVGID_39_);} .st49{opacity:0.3;fill:url(#SVGID_40_);} .st50{opacity:0.3;fill:url(#SVGID_41_);} .st51{opacity:0.3;fill:url(#SVGID_42_);} .st52{opacity:0.3;fill:url(#SVGID_43_);} .st53{opacity:0.3;fill:url(#SVGID_44_);} .st54{opacity:0.3;fill:url(#SVGID_45_);} .st55{opacity:0.3;fill:url(#SVGID_46_);} .st56{opacity:0.3;fill:url(#SVGID_47_);} .st57{opacity:0.3;fill:url(#SVGID_48_);} .st58{opacity:0.3;fill:url(#SVGID_49_);}</style><path class="st8" d="M35.1 71.6l-.2-.2-.1-.1-.1-.1-.1-.1-.1-.1-.1-.1-.1-.1-.1-.1-.1-.1h-.1l-.1-.1-.1-.1-.1-.1-.1-.1-.1-.1-.1-.1-.1-.1-.1-.1-.1-.1-.1-.1v-.1l-.1-.1-.1-.1-.1-.1-.1-.1-.1-.1-.1-.1-.1-.1-.1-.1-.1-.1h-.1v-.1l-.1-.1-.1-.1-.1-.1-.1-.1-.1-.1h-.1l-.1-.1-.1-.1-.1-.1-.1-.1-.1-.1-.1-.1-.1-.1-.1-.1-.1-.1v-.1h-.1l-.1-.1-.1-.1-.1-.1-.1-.1v-.1l-.1-.1-.1-.1-.1-.1-.1-.1-.1-.1-.1-.1-.1-.1-.1-.1-.1-.1h-.1l-.1-.1-.1-.1-.1-.1-.1-.1-.1-.1-.1-.1-.1-.1-.1-.1-.1-.1-.1-.1v-.1l-.1-.1-.1-.1-.1-.1-.1-.1-.1-.1-.1-.1-.1-.1-.1-.1-.1-.1h-.1v-.1l-.1-.1-.1-.1-.1-.1-.1-.1-.1-.1h-.1l-.1-.1-.1-.1-.1-.1-.1-.1v-.1l-.1-.1-.1-.1-.1-.1-.1-.1-.1-.1-.1-.1-.1-.1-.1-.1-.1-.1-.1-.1-.1-.1-.1-.1-.1-.1-.1-.1-.1-.1h-.1l-.1-.1-.1-.1-.1-.1-.1-.1-.1-.1-.1-.1-.1-.1-.1-.1-.1-.1v-.1h-.1l-.1-.1-.1-.1-.1-.1-.1-.1v-.1l-.1-.1-.1-.1-.1-.1-.1-.1-.1-.1-.1-.1-.1-.1-.1-.1-.1-.1h-.1l-.1-.1-.1-.1-.1-.1-.1-.1-.1-.1-.1-.1-.1-.1-.1-.1-.1-.1-.1-.1v-.1l-.1-.1-.1-.1-.1-.1-.1-.1-.1-.1-.1-.1-.1-.1-.1-.1-.1-.1h-.1v-.1l-.1-.1-.1-.1-.1-.1-.1-.1-.1-.1h-.1l-.1-.1-.1-.1-.1-.1-.1-.1-.1-.1-.1-.1-.1-.1-.1-.1-.1-.1v-.1h-.1l-.1-.1-.1-.1-.1-.1-.1-.1v-.1l-.1-.1-.1-.1-.1-.1-.1-.1-.1-.1-.1-.1-.1-.1-.1-.1-.1-.1h-.1l-.1-.1-.1-.1-.1-.1-.1-.1-.1-.1v-.3c.1-1.2.3-4 .8-5.4.6-1.7 1.4-2.5 2.3-3.1.5-.3 2.2-1 4.7-1.9 2.4-.9 5-1.9 5.9-2.4.8-.5 1.8-2.6 1.5-3.4-.1-.2-.4-.6-.6-.7-1-1.1-2.3-3.2-2.9-5.2-.7-2.8-1.3-8.4 1.3-11.9 1.5-2 3.8-3 6.8-3.1h.30000000000000004c2.7.1 4.8.9 6.2 2.5l.1.1.1.1.1.1.1.1.1.1.1.1.1.1.1.1.1.1.1.1.1.1.1.1.1.1.1.1.1.1.1.1.1.1.1.1.1.1.1.1.1.1.1.1.1.1.1.1.1.1.1.1.1.1.1.1.1.1.1.1.1.1.1.1.1.1.1.1.1.1.1.1.1.1.1.1.1.1.1.1.1.1.1.1.1.1.1.1.1.1.1.1.1.1.1.1.1.1.1.1.1.1.1.1.1.1.1.1.1.1.1.1.1.1.1.1.1.1.1.1.1.1.1.1.1.1.1.1.1.1.1.1.1.1.1.1.1.1.1.1.1.1.1.1.1.1.1.1.1.1.1.1.1.1.1.1.1.1.1.1.1.1.1.1.1.1.1.1.1.1.1.1.1.1.1.1.1.1.1.1.1.1.1.1.1.1.1.1.1.1.1.1.1.1.1.1.1.1.1.1.1.1.1.1.1.1.1.1.1.1.1.1.1.1.1.1.1.1.1.1.1.1.1.1.1.1.1.1.1.1.1.1.1.1.1.1.1.1.1.1.1.1.1.1.1.1.1.1.1.1.1.1.1.1.1.1.1.1.1.1.1.1.1.1.1.1.1.1.1.1.1.1.1.1.1.1.1.1.1.1.1.1.1.1.1.1.1.1.1.1.1.1.1.1.1.1.1.1.1.1.1.1.1.1.1.1.1.1.1.1.1.1.1.1.1.1.1.1.1.1.1.1.1.1.1.1.1.1.1.1.1.1.1.1.1.1.1.1.1.1.1.1.1.1.1.1.1.1.1.1.1.1.1.1.1.1.1.1.1.1.1.1.1.1.1.1.1.1.1.1.1.1.1.1.1.1.1.1.1.1.1.1.1.1.1.1.1.1.1.1.1.1.1.1.1.1.1.1.1.1.1.1.1.1.1.1.1.1.1.1.1.1.1.1.1.1.1.1.1.1.1.1.1.1.1.1.1.1.1.1.1.1.1.1.1.1.1.1.1.1.1.1.1.1.1.1.1.1.1.1.1.1.1.1.1.1.1.1.1.1.1.1.1.1.1.1.1.1.1.1.1.1.1.1.1.1.1.1.1.1.1.1.1.1.1.1.1.1.1.1.1.1.1.1.1.1.1.1.1.1.1.1.1.1.1.1.1.1.1.1.1.1.1.1.1.1.1.1.1.1.1.1.1.1.1.1.1.1.1.1.1.1.1.1.1.1.1.1.1.1.1.1.1.1.1.1.1.1.1.1.1.1.1.1.1.1.1.1.1.1.1.1.1.1.1.1.1.1.1.1.1.1.1.1.1.1.1.1.1.1.1.1.1.1.1.1.1.1.1.1.1.1.1.1.1.1.1.1.1.1.1.1.1.1.1.1.1.1.1.1.1.1.1.1.1.1.1.1.1.1.1.1.1.1.1.1.1.1.1.1.1.1.1.1.1.1c.8-3 1.3-6.2 1.3-9.6v-.7c-.4-19.4-16.2-35-35.7-35-6.8 0-13.1 1.9-18.5 5.2-1.5.9-2.9 1.9-4.2 3-1.3 1.1-2.6 2.3-3.7 3.5-.8.8-1.5 1.7-2.2 2.6s-1.3 1.9-1.9 2.8l-.9 1.5c-1.4 2.5-2.5 5.2-3.2 8.1-.7 2.9-1.1 5.8-1.1 8.9s.4 6.1 1.1 8.9c.7 2.9 1.8 5.6 3.2 8.1l.9 1.5c.6 1 1.2 1.9 1.9 2.8s1.4 1.8 2.2 2.6c1.2 1.3 2.4 2.5 3.7 3.5 1.3 1.1 2.7 2.1 4.2 3 .9-1.1 7 .8 13.4.9zM36.3 71.7c16.3-.1 29.9-11.2 34.1-26.1l-.1-.1-.1-.1-.1-.1-.1-.1-.1-.1-.1-.1-.1-.1-.1-.1-.1-.1-.1-.1-.1-.1-.1-.1-.1-.1-.1-.1-.1-.1-.1-.1-.1-.1-.1-.1-.1-.1-.1-.1-.1-.1-.1-.1-.1-.1-.1-.1-.1-.1-.1-.1-.1-.1-.1-.1-.1-.1-.1-.1-.1-.1-.1-.1-.1-.1-.1-.1-.1-.1-.1-.1-.1-.1-.1-.1-.1-.1-.1-.1-.1-.1-.1-.1-.1-.1-.1-.1-.1-.1-.1-.1-.1-.1-.1-.1-.1-.1-.1-.1-.1-.1-.1-.1-.1-.1-.1-.1-.1-.1-.1-.1-.1-.1-.1-.1-.1-.1-.1-.1-.1-.1-.1-.1-.1-.1-.1-.1-.1-.1-.1-.1-.1-.1-.1-.1-.1-.1-.1-.1-.1-.1-.1-.1-.1-.1-.1-.1-.1-.1-.1-.1-.1-.1-.1-.1-.1-.1-.1-.1-.1-.1-.1-.1-.1-.1-.1-.1-.1-.1-.1-.1-.1-.1-.1-.1-.1-.1-.1-.1-.1-.1-.1-.1-.1-.1-.1-.1-.1-.1-.1-.1-.1-.1-.1-.1-.1-.1-.1-.1-.1-.1-.1-.1-.1-.1-.1-.1-.1-.1-.1-.1-.1-.1-.1-.1-.1-.1-.1-.1-.1-.1-.1-.1-.1-.1-.1-.1-.1-.1-.1-.1-.1-.1-.1-.1-.1-.1-.1-.1-.1-.1-.1-.1-.1-.1-.1-.1-.1-.1-.1-.1-.1-.1-.1-.1-.1-.1-.1-.1-.1-.1-.1-.1-.1-.1-.1-.1-.1-.1-.1-.1-.1-.1-.1-.1-.1-.1-.1-.1-.1-.1-.1-.1-.1-.1-.1-.1-.1-.1-.1-.1-.1-.1-.1-.1-.1-.1-.1-.1-.1-.1-.1-.1-.1-.1-.1-.1-.1-.1-.1-.1-.1-.1-.1-.1-.1-.1-.1-.1-.1-.1-.1-.1-.1-.1-.1-.1-.1-.1-.1-.1-.1-.1-.1-.1-.1-.1-.1-.1-.1-.1-.1-.1-.1-.1-.1-.1-.1-.1-.1-.1-.1-.1-.1-.1-.1-.1-.1-.1-.1-.1-.1-.1-.1-.1-.1-.1-.1-.1-.1-.1-.1-.1-.1-.1-.1-.1-.1-.1-.1-.1-.1-.1-.1-.1-.1-.1-.1-.1-.1-.1-.1-.1-.1-.1-.1-.1-.1-.1-.1-.1-.1-.1-.1-.1-.1-.1-.1-.1-.1-.1-.1-.1-.1-.1-.1-.1-.1-.1-.1-.1-.1-.1-.1-.1-.1-.1-.1-.1-.1-.1-.1-.1-.1-.1-.1-.1-.1-.1-.1-.1-.1-.1-.1-.1-.1-.1-.1-.1-.1-.1-.1-.1-.1-.1-.1-.1-.1-.1-.1-.1-.1-.1-.1-.1-.1-.1-.1-.1-.1-.1-.1-.1-.1-.1-.1-.1-.1-.1-.1-.1-.1-.1-.1-.1-.1-.1-.1-.1-.1-.1-.1-.1-.1-.1-.1-.1-.1-.1-.1-.1-.1-.1-.1-.1-.1-.1-.1-.1-.1-.1-.1-.1-.1-.1-.1-.1-.1-.1-.1-.1-.1-.1-.1-.1-.1-.1-.1-.1-.1-.1-.1-.1-.1-.1-.1-.1-.1-.1-.1-.1-.1-.1-.1-.1-.1-.1-.1-.1-.1-.1-.1-.1-.1-.1-.1-.1-.1-.1-.1-.1-.1-.1-.1-.1-.1-.1-.1-.1-.1-.1-.1-.1-.1-.1-.1-.1-.1-.1-.1-.1-.1-.1-.1-.1-.1-.1-.1-.1-.1-.1-.1-.1-.1-.1-.1-.1-.1-.1-.1-.1-.1-.1-.1-.1-.1-.1-.1-.1-.1-.1-.1-.1-.1-.1-.1-.1-.1-.1-.1-.1-.1-.1-.1-.1-.1-.1-.1-.1-.1-.1-.1-.1-.1-.1c-1.5-1.5-3.6-2.4-6.2-2.5h-.30000000000000004c-3 .1-5.3 1.1-6.8 3.1-2.6 3.5-2 9.1-1.3 11.9.5 2 1.9 4.1 2.9 5.2l.6.7c.3.7-.7 2.9-1.5 3.4-.9.5-3.6 1.5-5.9 2.4-2.5.9-4.2 1.6-4.7 1.9-.9.6-1.7 1.4-2.3 3.1-.5 1.3-.7 4.2-.8 5.4v.3l.1.1.1.1.1.1.1.1.1.1.1.1.1.1.1.1.1.1.1.1.1.1.1.1.1.1.1.1.1.1.1.1.1.1.1.1.1.1.1.1.1.1.1.1.1.1.1.1.1.1.1.1.1.1.1.1.1.1.1.1.1.1.1.1.1.1.1.1.1.1.1.1.1.1.1.1.1.1.1.1.1.1.1.1.1.1.1.1.1.1.1.1.1.1.1.1.1.1.1.1.1.1.1.1.1.1.1.1.1.1.1.1.1.1.1.1.1.1.1.1.1.1.1.1.1.1.1.1.1.1.1.1.1.1.1.1.1.1.1.1.1.1.1.1.1.1.1.1.1.1.1.1.1.1.1.1.1.1.1.1.1.1.1.1.1.1.1.1.1.1.1.1.1.1.1.1.1.1.1.1.1.1.1.1.1.1.1.1.1.1.1.1.1.1.1.1.1.1.1.1.1.1.1.1.1.1.1.1.1.1.1.1.1.1.1.1.1.1.1.1.1.1.1.1.1.1.1.1.1.1.1.1.1.1.1.1.1.1.1.1.1.1.1.1.1.1.1.1.1.1.1.1.1.1.1.1.1.1.1.1.1.1.1.1.1.1.1.1.1.1.1.1.1.1.1.1.1.1.1.1.1.1.1.1.1.1.1.1.1.1.1.1.1.1.1.1.1.1.1.1.1.1.1.1.1.1.1.1.1.1.1.1.1.1.1.1.1.1.1.1.1.1.1.1.1.1.1.1.1.1.1.1.1.1.1.1.1.1.1.1.1.1.1.1.1.1.1.1.1.1.1.1.1.1.1.1.1.1.1.1.1.1.1.1.1.1.1.1.1.1.1.1.1.1.1.1.1.1.1.1.1.1.1.1.1.1.1.1.1.1.1.1.1.1.1.1.1.1.1.1.1.1.1.1.1.1.1.1.1.1.1.1.1.1.1.1.1.1.1.1.1.1.1.1.1.1.1.1h.9c1.5 1.6 1.6 1.6 1.7 1.6z"/><path class="st7" d="M56.5 52.8c-.1-1.2-.3-4-.8-5.3-.6-1.7-1.4-2.5-2.3-3.1-.5-.3-2.2-1-4.7-1.9-2.3-.9-5-1.9-5.9-2.4-.9-.5-1.5-2.7-1.5-3.4 0 0 .1-.2.6-.7 1-1.1 2.3-3.2 2.9-5.2.7-2.8 1.3-8.4-1.3-11.9-1.5-2-3.8-3-6.8-3.1h-.30000000000000004c-3 .1-5.3 1.1-6.8 3.1-2.6 3.5-2 9.1-1.3 11.9.5 2 1.9 4.1 2.9 5.2l.6.7c.3.7-.7 2.9-1.5 3.4-.9.5-3.6 1.5-5.9 2.4-2.5.9-4.2 1.6-4.7 1.9-.9.6-1.7 1.4-2.3 3.1-.5 1.3-.7 4.2-.8 5.4v.3l.2.2c.7.7 4.2 2.8 19.7 2.8s19-2.2 19.7-2.8l.2-.2.1-.4z"/></svg>