<?xml version="1.0" encoding="utf-8"?>
<!-- Generator: Adobe Illustrator 19.1.0, SVG Export Plug-In . SVG Version: 6.00 Build 0)  -->
<svg version="1.1" id="Layer_1" xmlns="http://www.w3.org/2000/svg" xmlns:xlink="http://www.w3.org/1999/xlink" x="0px" y="0px"
	 width="72px" height="72px" viewBox="0 0 72 72" style="enable-background:new 0 0 72 72;" xml:space="preserve">
<style type="text/css">
	.st0{fill:#3A3335;}
</style>
<g>
	<path class="st0" d="M22.4,27.1L5.3,15.8H17l5.4,8.6H70L56.8,3.5H9.3l7.3,11.7H4.2c0,0,0,0,0,0c0,0,0,0-0.1,0
		c-0.1,0-0.2,0.1-0.2,0.3c0,0.1,0.1,0.2,0.2,0.2c0,0,0,0,0,0l18.4,12.1v1L4.4,17C4.3,16.9,4.1,17,4,17.1c-0.1,0.1-0.1,0.3,0.1,0.4
		l18.4,12.1v1l-18-11.8c-0.1-0.1-0.3-0.1-0.4,0.1c-0.1,0.1-0.1,0.3,0.1,0.4l18.4,12.1v1l-18-11.8c-0.1-0.1-0.3-0.1-0.4,0.1
		c-0.1,0.1-0.1,0.3,0.1,0.4l18.4,12.1v1l-18-11.8c-0.1-0.1-0.3-0.1-0.4,0.1c-0.1,0.1-0.1,0.3,0.1,0.4l18.4,12.1v1.3L3,23.5L2,25
		l20.4,13.3H70V25.2H22.4V27.1z"/>
	<path class="st0" d="M3,27.4l-1,1.5l20.4,13.3v1.6l-18-11.8C4.3,31.8,4.1,31.8,4,32c-0.1,0.1-0.1,0.3,0.1,0.4l18.4,12.1v1l-18-11.8
		c-0.1-0.1-0.3-0.1-0.4,0.1c-0.1,0.1-0.1,0.3,0.1,0.4l18.4,12.1v1l-18-11.8c-0.1-0.1-0.3-0.1-0.4,0.1c-0.1,0.1-0.1,0.3,0.1,0.4
		L22.4,48v1l-18-11.8c-0.1-0.1-0.3-0.1-0.4,0.1c-0.1,0.1-0.1,0.3,0.1,0.4l18.4,12.1v1.6L3,38.6l-1,1.5l20.4,13.3H70V40.3H22.7
		L3,27.4z"/>
	<path class="st0" d="M22.4,55.4L3,42.7l-1,1.5l20.4,13.3v1.3l-18-11.8c-0.1-0.1-0.3-0.1-0.4,0.1c-0.1,0.1-0.1,0.3,0.1,0.4
		l18.4,12.1v1l-18-11.8c-0.1-0.1-0.3-0.1-0.4,0.1c-0.1,0.1-0.1,0.3,0.1,0.4l18.4,12.1v1l-18-11.9c-0.1-0.1-0.3-0.1-0.4,0.1
		c-0.1,0.1-0.1,0.3,0.1,0.4L22.4,63v1l-18-11.8c-0.1-0.1-0.3-0.1-0.4,0.1c-0.1,0.1-0.1,0.3,0.1,0.4l18.4,12.1v1.7L3,53.7l-1,1.5
		l20.4,13.3H70V55.4L22.4,55.4L22.4,55.4z"/>
</g>
</svg>
