<svg xmlns="http://www.w3.org/2000/svg" xmlns:xlink="http://www.w3.org/1999/xlink" width="72" height="72" viewBox="0 0 72 72"><style type="text/css">.st0{clip-path:url(#SVGID_2_);fill:#F58B69;} .st1{opacity:0.3;clip-path:url(#SVGID_2_);fill:url(#SVGID_3_);} .st2{clip-path:url(#SVGID_2_);fill:#3B3336;} .st3{clip-path:url(#SVGID_5_);fill:#F58B69;} .st4{opacity:0.3;clip-path:url(#SVGID_5_);fill:url(#SVGID_6_);} .st5{clip-path:url(#SVGID_5_);fill:#3B3336;} .st6{clip-path:url(#SVGID_5_);} .st7{fill:#F47D55;} .st8{fill:#3B3336;} .st9{clip-path:url(#SVGID_8_);fill:#F58B69;} .st10{opacity:0.3;clip-path:url(#SVGID_8_);fill:url(#SVGID_9_);} .st11{clip-path:url(#SVGID_8_);fill:#3B3336;} .st12{clip-path:url(#SVGID_8_);} .st13{clip-path:url(#SVGID_8_);fill:#F47D55;stroke:#F47D55;stroke-width:1.128;stroke-linecap:round;stroke-miterlimit:10;} .st14{clip-path:url(#SVGID_11_);fill:#F58B69;} .st15{opacity:0.3;clip-path:url(#SVGID_11_);fill:url(#SVGID_12_);} .st16{clip-path:url(#SVGID_11_);} .st17{clip-path:url(#SVGID_14_);fill:#F58B69;} .st18{opacity:0.3;clip-path:url(#SVGID_14_);fill:url(#SVGID_15_);} .st19{clip-path:url(#SVGID_14_);fill:#3B3336;} .st20{clip-path:url(#SVGID_14_);fill:none;stroke:#F47D55;stroke-width:1.2829;stroke-linecap:round;stroke-miterlimit:10;} .st21{clip-path:url(#SVGID_14_);fill:none;stroke:#F47D55;stroke-width:0.4943;stroke-linecap:round;stroke-miterlimit:10;} .st22{clip-path:url(#SVGID_14_);fill:#F47D55;} .st23{clip-path:url(#SVGID_14_);} .st24{clip-path:url(#SVGID_17_);fill:#F58B69;} .st25{opacity:0.3;clip-path:url(#SVGID_17_);fill:url(#SVGID_18_);} .st26{clip-path:url(#SVGID_17_);}</style><defs><circle id="SVGID_13_" cx="36" cy="36" r="36"/></defs><clipPath id="SVGID_2_"><use xlink:href="#SVGID_13_" overflow="visible"/></clipPath><circle class="st0" cx="36" cy="36.6" r="36"/><linearGradient id="SVGID_3_" gradientUnits="userSpaceOnUse" x1="64.088" y1="89.963" x2="35.03" y2="10.125"><stop offset="0" stop-color="#fff" stop-opacity="0"/><stop offset=".1" stop-color="#DBDBDB" stop-opacity=".106"/><stop offset=".238" stop-color="#AFAFB0" stop-opacity=".254"/><stop offset=".378" stop-color="#8A8B8C" stop-opacity=".404"/><stop offset=".518" stop-color="#6E6F71" stop-opacity=".553"/><stop offset=".658" stop-color="#5A5B5D" stop-opacity=".703"/><stop offset=".797" stop-color="#4E4F51" stop-opacity=".851"/><stop offset=".936" stop-color="#4A4B4D"/></linearGradient><path class="st1" d="M79.3 42.9v-.1h-.1v-.1h-.1v-.1h-.1v-.1h-.1v-.1h-.1v-.1h-.1v-.1h-.1v-.1h-.1v-.1h-.1v-.1h-.1v-.1h-.1v-.1h-.1v-.1h-.1v-.1h-.1v-.1h-.1v-.1h-.1v-.1h-.1v-.1h-.1v-.1h-.1v-.1h-.1v-.1h-.1v-.1h-.1v-.1h-.1v-.1h-.1v-.1h-.1v-.1h-.1v-.1h-.1v-.1h-.1v-.1h-.1v-.1h-.1v-.1h-.1v-.1h-.1v-.1h-.1v-.1h-.1v-.1h-.1v-.1h-.1v-.1h-.1v-.1h-.1v-.1h-.1v-.1h-.1v-.1h-.1v-.1h-.1v-.1h-.1v-.1h-.1v-.1h-.1v-.1h-.1v-.1h-.1v-.1h-.1v-.2h-.2v-.1h-.1v-.1h-.1v-.1h-.1v-.1h-.1v-.1h-.1v-.1h-.1v-.1h-.1v-.1h-.1v-.1h-.1v-.1h-.1v-.1h-.1v-.1h-.1v-.1h-.1v-.1h-.1v-.1h-.1v-.1h-.1v-.1h-.1v-.2h-.2v-.1h-.1v-.1h-.1v-.1h-.1v-.1h-.1v-.1h-.1v-.1h-.1v-.1h-.1v-.1h-.1v-.1h-.1v-.1h-.1v-.1h-.1v-.1h-.1v-.1h-.1v-.1h-.1v-.1h-.1v-.1h-.1v-.1h-.1v-.2h-.2v-.1h-.1v-.1h-.1v-.1h-.1v-.1h-.1v-.1h-.1v-.1h-.1v-.1h-.1v-.1h-.1v-.1h-.1v-.1h-.1v-.1h-.1v-.1h-.1v-.1h-.1v-.1h-.1v-.1h-.1v-.1h-.1v-.1h-.1v-.1h-.1v-.1h-.1v-.1h-.1v-.1h-.1v-.1h-.1v-.1h-.1v-.1h-.1v-.1h-.1v-.1h-.1v-.1h-.1v-.1h-.1v-.1h-.1v-.1h-.1v-.1h-.1v-.1h-.1v-.1h-.1v-.1h-.1v-.1h-.1v-.1h-.1v-.1h-.1v-.1h-.1v-.1h-.1v-.1h-.1v-.1h-.1v-.1h-.1v-.1h-.1v-.1h-.1v-.1h-.1v-.1h-.1v-.1h-.1v-.1h-.1v-.1h-.1v-.1h-.1v-.1h-.1v-.1h-.1v-.1h-.1v-.1h-.1v-.1h-.1v-.1h-.1v-.1h-.1v-.2h-.2v-.1h-.1v-.1h-.1v-.1h-.1v-.1h-.1v-.1h-.1v-.1h-.1v-.1h-.1v-.1h-.1v-.1h-.1v-.1h-.1v-.1h-.1v-.1h-.1v-.1h-.1v-.1h-.1v-.1h-.1v-.1h-.1v-.1h-.1v-.2h-.2v-.1h-.1v-.1h-.1v-.1h-.1v-.1h-.1v-.1h-.1v-.1h-.1v-.1h-.1v-.1h-.1v-.1h-.1v-.1h-.1v-.1h-.1v-.1h-.1v-.1h-.1v-.1h-.1v-.1h-.1v-.1h-.1v-.1h-.1v-.2h-.2v-.1h-.1v-.1h-.1v-.1h-.1v-.1h-.1v-.1h-.1v-.1h-.1v-.1h-.1v-.1h-.1v-.1h-.1v-.1h-.1v-.1h-.1v-.1h-.1v-.1h-.1v-.1h-.1v-.1h-.1v-.1h-.1v-.1h-.1v-.1h-.1v-.1h-.1v-.1h-.1v-.1h-.1v-.1h-.1v-.1h-.1v-.1h-.1v-.1h-.1v-.1h-.1v-.1h-.1v-.1h-.1v-.1h-.1v-.1h-.1v-.1h-.1v-.1h-.1v-.1h-.1v-.1h-.1v-.1h-.1v-.1h-.1v-.1h-.1v-.1h-.1v-.1h-.1v-.1h-.1v-.1h-.1v-.1h-.1v-.1h-.1v-.1h-.1v-.1h-.1v-.1h-.1v-.1h-.1v-.1h-.1v-.1h-.1v-.1h-.1v-.1h-.1v-.1h-.1v-.1h-.1v-.1h-.1v-.1h-.1v-.1h-.1v-.1h-.1v-.1h-.1v-.1h-.1v-.1h-.1v-.1h-.1v-.1h-.1v-.1h-.1v-.1h-.1v-.1h-.1v-.1h-.1v-.1h-.1v-.1h-.1v-.1h-.1v-.1h-.1v-.1h-.1v-.1h-.1v-.1h-.1v-.1h-.1v-.1h-.1v-.1h-.1v-.2h-.2v-.1h-.1v-.1h-.1v-.1h-.1v-.1h-.1v-.1h-.1v-.1h-.1v-.1h-.1v-.1h-.1v-.1h-32.5v41.5h.1v.1h.1v.1h.1v.1h.1v.1h.1v.1h.1v.1h.1v.1h.1v.1h.1v.1h.1v.1h.1v.1h.1v.1h.1v.1h.1v.1h.1v.1h.1v.1h.1v.1h.1v.1h.1v.1h.1v.1h.1v.1h.1v.1h.1v.1h.1v.1h.1v.1h.1v.1h.1v.1h.1v.1h.1v.1h.1v.1h.1v.1h.1v.1h.1v.1h.1v.1h.1v.1h.1v.1h.1v.1h.1v.1h.1v.1h.1v.1h.1v.1h.1v.1h.1v.1h.1v.1h.1v.1h.1v.1h.1v.1h.1v.1h.1v.1h.1v.1h.1v.1h.1v.1h.1v.1h.1v.1h.1v.1h.1v.1h.1v.1h.1v.1h.1v.1h.1v.1h.1v.1h.1v.1h.1v.1h.1v.1h.1v.1h.1v.1h.1v.1h.1v.1h.1v.1h.1v.1h.1v.1h.1v.1h.1v.1h.1v.1h.1v.1h.1v.1h.1v.1h.1v.1h.1v.1h.1v.1h.1v.1h.1v.1h.1v.1h.1v.1h.1v.1h.1v.1h.1v.1h.1v.1h.1v.1h.1v.1h.1v.1h.1v.1h.1v.1h.1v.1h.1v.1h.1v.1h.1v.1h.1v.1h.1v.1h.1v.1h.1v.1h.1v.1h.1v.1h.1v.1h.1v.1h.1v.1h.1v.1h.1v.1h.1v.1h.1v.1h.1v.1h.1v.1h.1v.1h.1v.1h.1v.1h.1v.1h.1v.1h.1v.1h.1v.1h.1v.1h.1v.1h.1v.1h.1v.1h.1v.1h.1v.1h.1v.1h.1v.1h.1v.1h.1v.1h.1v.1h.1v.1h.1v.1h.1v.1h.1v.1h.1v.1h.1v.1h.1v.1h.1v.1h.1v.1h.1v.1h.1v.1h.1v.1h.1v.1h.1v.1h.1v.1h.1v.1h.1v.1h.1v.1h.1v.1h.1v.1h.1v.1h.1v.1h.1v.1h.1v.1h.1v.1h.1v.1h.1v.1h.1v.1h.1v.1h.1v.1h.1v.1h.1v.1h.1v.1h.1v.1h.1v.1h.1v.1h.1v.1h.1v.1h.1v.1h.1v.1h.1v.1h.1v.1h.1v.1h.1v.1h.1v.1h.1v.1h.1v.1h.1v.1h.1v.1h.1v.1h.1v.1h.1v.1h.1v.1h.1v.1h.1v.1h.1v.1h.1v.1h.1v.1h.1v.1h.1v.1h.1v.1h.1v.1h.1v.1h.1v.1h.1v.1h.1v.1h.1v.1h.1v.1h.1v.1h.1v.1h.1v.1h.1v.1h.1v.1h.1v.1h.1v.1h.1v.1h.1v.1h.1v.1h.1v.1h.1v.1h.1v.1h.1v.1h.1v.1h.1v.1h.1v.1h.1v.1h.1v.1h.1v.1h.1v.1h.1v.1h.1v.1h.1v.1h.1v.1h.1v.1h.1v.1h.1v.1h.1v.1h.1v.1h.1v.1h.1v.1h.1v.1h.1v.1h.1v.1h.1v.1h.1v.1h.1v.1h.1v.1h.1v.1h.1v.1h.1v.1h.1v.1h.1v.1h.1v.1h.1v.1h.1v.1h.1v.1h.1v.1h.1v.1h.1v.1h.1v.1h.1v.1h.1v.1h.1v.1h.1v.1h.1v.1h.1v.1h.1v.1h.1v.1h.1v.1h.1v.1h.1v.1h.1v.1h.1v.1h.1v.1h.1v.1h.1v.1h.1v.1h.1v.1h.1v.1h.1v.1h.1v.1h.1v.1h32.5v-41.5z"/><path class="st0" d="M19.7 15.7h32.5v41.5h-32.5z"/><path class="st2" d="M19.7 15.7h32.5v41.5h-32.5z"/><path clip-path="url(#SVGID_2_)" stroke="#F47D55" stroke-width="1.283" stroke-linecap="round" stroke-miterlimit="10" fill="none" d="M32.8 24.3h14.9M32.8 29.2h14.9M32.8 34h14.9M32.8 38.9h14.9M32.8 43.7h14.9M32.8 48.6h14.9"/><path clip-path="url(#SVGID_2_)" stroke="#F47D55" stroke-width=".494" stroke-linecap="round" stroke-miterlimit="10" fill="none" d="M23.7 28.1l3.9-.1M23.7 27.2h3.9M23.7 26.3h3.9"/><path d="M23.7 25.7h3.9v-1.7c0-.4-.3-.8-.8-.7h-2.4c-.4 0-.8.3-.7.8v1.6zM23.771 28.804l2.7-.008.059 19.1-2.7.008zM27 28.7h.7v19.1h-.7z" clip-path="url(#SVGID_2_)" fill="#F47D55"/><path class="st7" d="M26.8 48.6l-1.1 1.9-1.1-1.9h2.2m.9-.5h-3.9l2 3.4 1.9-3.4z" clip-path="url(#SVGID_2_)"/><path clip-path="url(#SVGID_2_)" fill="#F47D55" d="M26.5 49.9l-.8 1.3-.7-1.3z"/></svg>