<svg xmlns="http://www.w3.org/2000/svg" xmlns:xlink="http://www.w3.org/1999/xlink" width="72" height="72" viewBox="0 0 72 72"><style type="text/css">.st0{clip-path:url(#SVGID_3_);} .st1{clip-path:url(#SVGID_4_);} .st2{clip-path:url(#SVGID_6_);fill:#F48969;} .st3{opacity:0.3;fill:url(#SVGID_7_);} .st4{clip-path:url(#SVGID_9_);} .st5{fill:#3A3335;}</style><defs><circle id="SVGID_1_" cx="36" cy="36" r="36"/></defs><defs><circle id="SVGID_2_" cx="36" cy="36" r="36"/></defs><clipPath id="SVGID_3_"><use xlink:href="#SVGID_1_" overflow="visible"/></clipPath><clipPath id="SVGID_4_" class="st0"><use xlink:href="#SVGID_2_" overflow="visible"/></clipPath><g class="st1"><defs><circle id="SVGID_5_" cx="36" cy="36" r="36"/></defs><clipPath id="SVGID_6_"><use xlink:href="#SVGID_5_" overflow="visible"/></clipPath><circle class="st2" cx="36" cy="36" r="36"/><linearGradient id="SVGID_7_" gradientUnits="userSpaceOnUse" x1="72.619" y1="90.071" x2="26.813" y2="10.732"><stop offset="0" stop-color="#fff" stop-opacity="0"/><stop offset=".102" stop-color="#DADADA" stop-opacity=".109"/><stop offset=".24" stop-color="#AEAEAF" stop-opacity=".256"/><stop offset=".38" stop-color="#898A8B" stop-opacity=".406"/><stop offset=".519" stop-color="#6D6E70" stop-opacity=".554"/><stop offset=".658" stop-color="#595A5C" stop-opacity=".703"/><stop offset=".797" stop-color="#4D4E50" stop-opacity=".852"/><stop offset=".936" stop-color="#494A4C"/></linearGradient><path class="st3" d="M84.9 54.5l-.1-.1h-.1v-.1h-.1v-.1h-.1v-.1h-.1v-.1h-.30000000000000004v-.1h-.1v-.1h-.1v-.1h-.1v-.1h-.1v-.1h-.1v-.1h-.1v-.1h-.1v-.1h-.1v-.1h-.1v-.1h-.1v-.1h-.1v-.1h-.1v-.1h-.1v-.1h-.1v.4h-.1v-.1h-.1v-.1h-.1v-.1h-.1v-.1h-.1v-.1h-.1v-.1h-.1v-.1h-.1v-.1h-.1v-.1h-.1v-.1h-.1v-.1h-.1v-.1h-.1v-.1h-.1v-.1h-.1v.4h-.1v-.1h-.1v-.1h-.1v-.1h-.1v-.1h-.1v-.1h-.1v-.1h-.1v-.1h-.1v-.1h-.1v-.1h-.1v-.1h-.1v-.1h-.1v-.1h-.1v-.1h-.1v-.1h-.1v.4h-.2v-.1h-.1v-.1h-.1v-.1h-.1v-.1h-.1v-.1h-.1v-.1h-.1v-.1h-.1v-.1h-.1v-.1h-.1v-.1h-.1v-.1h-.1v-.1h-.1v-.1h-.1v-.1h-.1v.4h-.1v-.1h-.1v-.1h-.1v-.1h-.1v-.1h-.1v-.1h-.1v-.1h-.1v-.1h-.1v-.1h-.1v-.1h-.1v-.1h-.1v-.1h-.1v-.1h-.1v-.1h-.1v-.1h-.1v.4h-.1v-.1h-.1v-.1h-.1v-.1h-.1v-.1h-.1v-.1h-.1v-.1h-.1v-.1h-.1v-.1h-.1v-.1h-.1v-.1h-.1v-.1h-.1v-.1h-.1v-.1h-.1v-.1h-.1v.4h-.2v-.1h-.1v-.1h-.1v-.1h-.1v-.1h-.1v-.1h-.1v-.1h-.1v-.1h-.1v-.1h-.1v-.1h-.1v-.1h-.1v-.1h-.1v-.1h-.1v-.1h-.1v.3h-.2v-.1h-.1v-.1h-.1v-.1h-.1v-.1h-.1v-.1h-.1v-.1h-.1v-.1h-.1v-.1h-.1v-.1h-.1v-.1h-.1v-.1h-.1v-.1h-.1v-.1h-.1v-.1h-.1v.4h-.1v-.1h-.1v-.1h-.1v-.1h-.1v-.1h-.1v-.1h-.1v-.1h-.1v-.1c-.3-1.4-.4-2.8-.4-4.1h-.1v-.1h-.1v-.1h-.1v-.1h-.1v-.1h-.1v-.1h-.1v-.1h-.1v-.1h-.1v-.1h4.9v-.2h-.1v-.1h-.1v-.1h-.1v-.1h-.1v-.1h-.1v-.1h-.1v-.1h-.1v-.1h-.1v-.1h-.1v-.1h-.1v-.1h-.1v-.1h-.1v-.1h-.1v-.1h.3v-.2h-.1v-.1h-.1v-.1h-.1v-.1h-.1v-.1h-.1v-.1h-.1v-.1h-.1v-.1h-.1v-.1h-.1v-.1h-.1v-.1h-.1v-.1h-.1v-.1h-.1v-.1h-.1v-.1h.4v-.1h-.1v-.1h-.1v-.1h-.1v-.1h-.1v-.1h-.1v-.1h-.1v-.1h-.1v-.1h-.1v-.1h-.1v-.1h-.1v-.1h-.1v-.1h-.1v-.1h-.1v-.1h-.1v-.1h.4v-.1h-.1v-.1h-.1v-.1h-.1v-.1h-.1v-.1h-.1v-.1h-.1v-.1h-.1v-.1h-.1v-.1h-.1v-.1h-.1v-.1h-.1v-.1h-.1v-.1h-.1v-.1h-.1v-.1h.4v-.2h-.1v-.1h-.1v-.1h-.1v-.1h-.1v-.1h-.1v-.1h-.1v-.1h-.1v-.1h-.1v-.1h-.1v-.1h-.1v-.1h-.1v-.1h-.1v-.1h-.1v-.1h-.1v-.1h.4v-.1h-.1v-.1h-.1v-.1h-.1v-.1h-.1v-.1h-.1v-.1h-.1v-.1h-.1v-.1h-.1v-.1h-.1v-.1h-.1v-.1h-.1v-.1h-.1v-.1h-.1v-.1h-.1v-.1h.4v-.1h-.1v-.1h-.1v-.1h-.1v-.1h-.1v-.1h-.1v-.1h-.1v-.1h-.1v-.1h-.1v-.1h-.1v-.1h-.1v-.1h-.1v-.1h-.1v-.1h-.1v-.1h-.1v-.1h.4v-.2h-.1v-.1h-.1v-.1h-.1v-.1h-.1v-.1h-.1v-.1h-.1v-.1h-.1v-.1h-.1v-.1h-.1v-.1h-.1v-.1h-.1v-.1h-.1v-.1h-.1v-.1h.3v-.2h-.1v-.1h-.1v-.1h-.1v-.1h-.1v-.1h-.1v-.1h-.1v-.1h-.1v-.1h-.1v-.1h-.1v-.1h-.1v-.1h-.1v-.1h-.1v-.1h-.1v-.1h-.1v-.1h.4v-.1h-.1v-.1h-.1v-.1h-.1v-.1h-.1v-.1h-.1v-.1h-.1v-.1h-.1v-.1h-.1v-.1h-.1v-.1h-.1v-.1h-.1v-.1h-.1v-.1h-.1v-.1h-.1v-.1h.4v-.2h-.1v-.1h-.1v-.1h-.1v-.1h-.1v-.1h-.1v-.1h-.1v-.1h-.1v-.1h-.1v-.1h-.1v-.1h-.1v-.1h-.1v-.1h-.1v-.1h-.1v-.1h.3v-.2h-.1v-.1h-.1v-.1h-.1v-.1h-.1v-.1h-.1v-.1h-.1v-.1h-.1v-.1h-.1v-.1h-.1v-.1h-.1v-.1h-.1v-.1h-.1v-.1h-.1v-.1h-.1v-.1h.4v-.1h-.1v-.1h-.1v-.1h-.1v-.1h-.1v-.1h-.1v-.1h-.1v-.1h-.1v-.1h-.1v-.1h-.1v-.1h-.1v-.1h-.1v-.1h-.1v-.1h-.1v-.1h-.1v-.1h.4v-.2h-.1v-.1h-.1v-.1h-.1v-.1h-.1v-.1h-.1v-.1h-.1v-.1h-.1v-.1h-.1v-.1h-.1v-.1h-.1v-.1h-.1v-.1h-.1v-.1h-.1v-.1h.3v-.2h-.1v-.1h-.1v-.1h-.1v-.1h-.1v-.1h-.1v-.1h-.1v-.1h-.1v-.1h-.1v-.1h-.1v-.1h-.1v-.1h-.1v-.1h-.1v-.1h-.1v-.1h-.1v-.1h.4v-.1h-.1v-.1h-.1v-.1h-.1v-.1h-.1v-.1h-.1v-.1h-.1v-.1h-.1v-.1h-.1v-.1h-.1v-.1h-.1v-.1h-.1v-.1h-.1v-.1h-.1v-.1h-.1v-.1h.4v-.1h-.1v-.1h-.1v-.1h-.1v-.1h-.1v-.1h-.1v-.1h-.1v-.1h-.1v-.1h-.1v-.1h-.1v-.1h-.1v-.1h-.1v-.1h-.1v-.1h-.1v-.1h-.1v-.1h.4v-.2h-.1v-.1h-.1v-.1h-.1v-.1h-.1v-.1h-.1v-.1h-.1v-.1h-.1v-.1h-.1v-.1h-.1v-.1h-.1v-.1h-.1v-.1h-.1v-.1h-.1v-.1h-.1v-.1h.4v-.1h-.1v-.1h-.1v-.1h-.1v-.1h-.1v-.1h-.1v-.1h-.1v-.1h-.1v-.1h-.1v-.1h-.1v-.1h-.1v-.1h-.1v-.1h-.1v-.1h-.1v-.1h-.1v-.1h.4v-.1h-.1v-.1h-.1v-.1h-.1v-.1h-.1v-.1h-.1v-.1h-.1v-.1h-.1v-.1h-.1v-.1h-.1v-.1h-.1v-.1h-.1v-.1h-.1v-.1h-.1v-.1h-.1v-.1h.4v-.2h-.1v-.1h-.1v-.1h-.1v-.1h-.1v-.1h-.1v-.1h-.1v-.1h-.1v-.1h-.1v-.1h-.1v-.1h-.1v-.1h-.1v-.1h-.1v-.1h-.1v-.1h-.1v-.1h.4v-.1h-.1v-.1h-.1v-.1h-.1v-.1h-.1v-.1h-.1v-.1h-.1v-.1h-.1v-.1h-.1v-.1h-.1v-.1h-.1v-.1h-.1v-.1h-.1v-.1h-.1v-.1h-.1v-.1h.4v-.1h-.1v-.1h-.1v-.1h-.1v-.1h-.1v-.1h-.1v-.1h-.1v-.1h-.1v-.1h-.1v-.1h-.1v-.1h-.1v-.1h-.1v-.1h-.1v-.1h-.1v-.1h-.1v-.1h.4v-.2h-.1v-.1h-.1v-.1h-.1v-.1h-.1v-.1h-.1v-.1h-.1v-.1h-.1v-.1h-.1v-.1h-.1v-.1h-.1v-.1h-.1v-.1h-.1v-.1h-.1v-.1h.3v-.2h-.1v-.1h-.1v-.1h-.1v-.1h-.1v-.1h-.1v-.1h-.1v-.1h-.1v-.1h-.1v-.1h-.1v-.1h-.1v-.1h-.1v-.1h-.1v-.1h-.1v-.1h-.1v-.1h.4v-.1h-.1v-.1h-.1v-.1h-.1v-.1h-.1v-.1h-.1v-.1h-.1v-.1h-.1v-.1h-.1v-.1h-.1v-.1h-30.1c0 2.4.7 5 2 7.3h-4.2c-.1 0-.1.1-.1.2v5.400000000000001c-.3-.1-.6-.1-.8.2-.1.2-.1.5.1.7l.1.1.1.1.1.1.1.1.1.1.1.1.1.1.1.1.1.1.1.1v.9l-.1-.1c-.3-.2-.6-.1-.8.2-.1.2-.1.5.1.7l.1.1.1.1.1.1.1.1.1.1.1.1.1.1.1.1.1.1.1.1.1.1.1.1.1.1v19.1l-.1-.1c-.3-.2-.6-.1-.8.2-.1.2-.1.5.1.7l.1.1.1.1.1.1.1.1.1.1.1.1.1.1.1.1.1.1.1.1.1.1.1.1.1.1v1l-.1-.1c-.3-.2-.6-.1-.8.2-.1.2-.1.5.1.7l.1.1.1.1.1.1.1.1.1.1.1.1.1.1.1.1.1.1.1.1.1.1.1.1.1.1v5.4l-.1-.1c-.3-.2-.6-.1-.8.2-.1.2-.1.5.1.7l.1.1.1.1.1.1.1.1.1.1.1.1.1.1.1.1.1.1.1.1.1.1.1.1.1.1.1.1.1.1.1.1.1.1.1.1.1.1.1.1.1.1.1.1.1.1.1.1.1.1.1.1.1.1.1.1.1.1.1.1.1.1.1.1.1.1.1.1.1.1.1.1.1.1.1.1.1.1.1.1.1.1.1.1.1.1.1.1.1.1.1.1.1.1.1.1.1.1.1.1.1.1.1.1.1.1.1.1.1.1.1.1.1.1.1.1.1.1.1.1.1.1.1.1.1.1.1.1.1.1.1.1.1.1.1.1.1.1.1.1.1.1.1.1.1.1.1.1.1.1.1.1.1.1.1.1.1.1.1.1.1.1.1.1.1.1.1.1.1.1.1.1.1.1.1.1.1.1.1.1.1.1.1.1.1.1.1.1.1.1.1.1.1.1.1.1.1.1.1.1.1.1.1.1.1.1.1.1.1.1.1.1.1.1.1.1.1.1.1.1.1.1.1.1.1.1.1.1.1.1.1.1.1.1.1.1.1.1.1.1.1.1.1.1.1.1.1.1.1.1.1.1.1.1.1.1.1.1.1.1.1.1.1.1.1.1.1.1.1.1.1.1.1.1.1.1.1.1.1.1.1.1.1.1.1.1.1.1.1.1.1.1.1.1.1.1.1.1.1.1.1.1.1.1.1.1.1.1.1.1.1.1.1.1.1.1.1.1.1.1.1.1.1.1.1.1.1.1.1.1.1.1.1.1.1.1.1.1.1.1.1.1.1.1.1.1.1.1.1.1.1.1.1.1.1.1.1.1.1.1.1.1.1.1.1.1.1.1.1.1.1.1.1.1.1.1.1.1.1.1.1.1.1.1.1.1.1.1.1.1.1.1.1.1.1.1.1.1.1.1.1.1.1.1.1.1.1.1.1.1.1.1.1.1.1.1.1.1.1.1.1.1.1.1.1.1.1.1.1.1.1.1.1.1.1.1.1.1.1.1.1.1.1.1.1.1.1.1.1.1.1.1.1.1.1.1.1.1.1.1.1.1.1.1.1.1.1.1.1.1.1.1.1.1.1.1.1.1.1.1.1.1.1.1.1.1.1.1.1.1.1.1.1.1.1.1.1.1.1.1.1.1.1.1.1.1.1.1.1.1.1.1.1.1.1.1.1.1.1.1.1.1.1.1.1.1.1.1.1.1.1.1.1.1.1.1.1.1.1.1.1.1.1.1.1.1.1.1.1.1.1.1.1.1.1.1.1.1.1.1.1.1.1.1.1.1.1.1.1.1.1.1.1.1.1.1.1.1.1.1.1.1.1.1.1.1.1.1.1.1.1.1.1.1.1.1.1.1.1.1.1.1.1.1.1.1.1.1.1.1.1.1.1.1.1.1.1.1.1.1.1.1.1.1.1.1.1.1.1.1.1.1.1.1.1.1.1.1.1.1.1.1.1.1.1.1.1.1.1.1.1.1.1.1.1.1.1.1.1.1.1.1.1.1.1.1.1.1.1.1.1.1.1.1.1.1.1.1.1.1.1.1.1.1.1.1.1.1.1.1.1.1.1.1.1.1.1.1.1.1.1.1.1.1.1.1.1.1.1.1.1.1.1.1.1.1.1.1.1.1.1.1.1.1.1.1.1.1.1.1.1.1.1.1.1.1.1.1.1.1.1.1.1.1.1.1.1.1.1.1.1.1.1.1.1.1.1.1.1.1.1.1.1.1.1.1.1.1.1.1.1.1.1.1.1.1.1.1.1.1.1.1.1.1.1.1.1.1.1.1.1.1.1.1.1.1.1.1.1.1c0 .1.1.1.2.2l12.6 8.2h14.5v-27.700000000000003l-.1-15.6z"/><defs><circle id="SVGID_8_" cx="36" cy="36" r="36"/></defs><clipPath id="SVGID_9_"><use xlink:href="#SVGID_8_" overflow="visible"/></clipPath><g class="st4"><path class="st5" d="M58.6 28.1c-6.9 0-9.4-7.1-9.4-13h-30.4c0 5.9 4 13 10.9 13h28.9zM29.3 35.7h-.1l-12.7-8.4c-.1-.1-.1-.2-.1-.3.1-.1.2-.1.3-.1l12.7 8.4c.1.1.1.2.1.3-.1.1-.1.1-.2.1zM29.3 34.6h-.1l-12.7-8.4c-.1-.1-.1-.2-.1-.3.1-.1.2-.1.3-.1l12.7 8.4c.1.1.1.2.1.3l-.2.1zM29.3 33.4h-.1l-12.7-8.4c-.1-.1-.1-.2-.1-.3.1-.1.2-.1.3-.1l12.7 8.4c.1.1.1.2.1.3-.1.1-.1.1-.2.1zM29.3 32.3h-.1l-12.7-8.4c-.1-.1-.1-.2-.1-.3.1-.1.2-.1.3-.1l12.7 8.4c.1.1.1.2.1.3-.1.1-.1.1-.2.1zM29.3 45.2h-.1l-12.7-8.4c-.1-.1-.1-.2-.1-.3.1-.1.2-.1.3-.1l12.7 8.4c.1.1.1.2.1.3-.1.1-.1.1-.2.1zM29.3 44.1h-.1l-12.7-8.4c-.1-.1-.1-.2-.1-.3.1-.1.2-.1.3-.1l12.7 8.4c.1.1.1.2.1.3l-.2.1zM29.3 42.9h-.1l-12.7-8.4c-.1-.1-.1-.2-.1-.3.1-.1.2-.1.3-.1l12.7 8.4c.1.1.1.2.1.3-.1.1-.1.1-.2.1zM29.3 41.8h-.1l-12.7-8.4c-.1-.1-.1-.2-.1-.3.1-.1.2-.1.3-.1l12.7 8.4c.1.1.1.2.1.3-.1.1-.1.1-.2.1zM29.3 55h-.1l-12.7-8.4c-.1-.1-.1-.2-.1-.3.1-.1.2-.1.3-.1l12.7 8.4c.1.1.1.2.1.3l-.2.1zM29.3 53.8h-.1l-12.7-8.4c-.1-.1-.1-.2-.1-.3.1-.1.2-.1.3-.1l12.7 8.4c.1.1.1.2.1.3-.1.1-.1.1-.2.1zM29.3 52.7h-.1l-12.7-8.4c-.1-.1-.1-.2-.1-.3.1-.1.2-.1.3-.1l12.7 8.4c.1.1.1.2.1.3-.1.1-.1.1-.2.1zM29.3 51.6h-.1l-12.7-8.4c-.1-.1-.1-.2-.1-.3.1-.1.2-.1.3-.1l12.7 8.4c.1.1.1.2.1.3l-.2.1zM29.3 31.2h-.1l-12.7-8.4c-.1-.1-.1-.2-.1-.3.1-.1.2-.1.3-.1l12.7 8.4c.1.1.1.2.1.3l-.2.1zM28.5 37c0 .1-.2.2-.3.1l-12.3-8c-.3-.2-.3-.5-.2-.8.2-.3.5-.3.8-.2l12.3 8.1-.3.8zM28.2 28.8h30.4v8.4h-30.4zM28.2 46.8l-12.6-8.2c-.3-.2-.3-.5-.2-.8.2-.3.5-.3.8-.2l12.3 8.1-.3 1.1zM28.2 39.6l-12.6-8.2c-.3-.2-.3-.5-.2-.8.2-.3.5-.3.8-.2l12.3 8.1-.3 1.1zM28.2 49.4l-12.6-8.2c-.3-.2-.3-.5-.2-.8.2-.3.5-.3.8-.2l12.3 8.1-.3 1.1zM28.2 38.5h30.4v8.4h-30.4zM28.2 56.5l-12.6-8.2c-.3-.2-.3-.5-.2-.8.2-.3.5-.3.8-.2l12.3 8.1-.3 1.1zM28.2 48.1h30.4v8.4h-30.4zM29.3 22.8h-12.7c-.1 0-.2-.1-.2-.2s.1-.2.2-.2h12.7c.1 0 .2.1.2.2s-.1.2-.2.2z"/></g></g></svg>