<?xml version="1.0" encoding="utf-8"?>
<!-- Generator: Adobe Illustrator 19.1.0, SVG Export Plug-In . SVG Version: 6.00 Build 0)  -->
<svg version="1.1" id="Layer_1" xmlns="http://www.w3.org/2000/svg" xmlns:xlink="http://www.w3.org/1999/xlink" x="0px" y="0px"
	 width="72px" height="72px" viewBox="0 0 72 72" style="enable-background:new 0 0 72 72;" xml:space="preserve">
<style type="text/css">
	.st0{clip-path:url(#SVGID_3_);}
	.st1{clip-path:url(#SVGID_4_);}
	.st2{clip-path:url(#SVGID_6_);fill:#F48969;}
	.st3{opacity:0.3;fill:url(#SVGID_7_);}
	.st4{clip-path:url(#SVGID_9_);}
	.st5{fill:#3A3335;}
</style>
<g>
	<defs>
		<circle id="SVGID_1_" cx="36" cy="36" r="36"/>
	</defs>
	<defs>
		<circle id="SVGID_2_" cx="36" cy="36" r="36"/>
	</defs>
	<clipPath id="SVGID_3_">
		<use xlink:href="#SVGID_1_"  style="overflow:visible;"/>
	</clipPath>
	<clipPath id="SVGID_4_" class="st0">
		<use xlink:href="#SVGID_2_"  style="overflow:visible;"/>
	</clipPath>
	<g class="st1">
		<g>
			<defs>
				<circle id="SVGID_5_" cx="36" cy="36" r="36"/>
			</defs>
			<clipPath id="SVGID_6_">
				<use xlink:href="#SVGID_5_"  style="overflow:visible;"/>
			</clipPath>
			<circle class="st2" cx="36" cy="36" r="36"/>
		</g>
		<linearGradient id="SVGID_7_" gradientUnits="userSpaceOnUse" x1="72.6192" y1="90.0712" x2="26.8127" y2="10.732">
			<stop  offset="0" style="stop-color:#FFFFFF;stop-opacity:0"/>
			<stop  offset="0.1018" style="stop-color:#DADADA;stop-opacity:0.1088"/>
			<stop  offset="0.2398" style="stop-color:#AEAEAF;stop-opacity:0.2562"/>
			<stop  offset="0.3796" style="stop-color:#898A8B;stop-opacity:0.4055"/>
			<stop  offset="0.5191" style="stop-color:#6D6E70;stop-opacity:0.5545"/>
			<stop  offset="0.6585" style="stop-color:#595A5C;stop-opacity:0.7033"/>
			<stop  offset="0.7975" style="stop-color:#4D4E50;stop-opacity:0.8518"/>
			<stop  offset="0.9362" style="stop-color:#494A4C"/>
		</linearGradient>
		<path class="st3" d="M84.9,54.5L84.9,54.5C84.9,54.4,84.9,54.4,84.9,54.5l-0.1-0.1c0,0,0,0-0.1,0v-0.1c0,0,0,0-0.1,0v-0.1
			c0,0,0,0-0.1,0v-0.1c0,0,0,0-0.1,0v-0.1c0,0,0,0-0.1,0V54c0,0,0,0-0.1,0V54c0,0,0,0-0.1,0v-0.1c0,0,0,0-0.1,0v-0.1c0,0,0,0-0.1,0
			v-0.1c0,0,0,0-0.1,0v-0.1c0,0,0,0-0.1,0v-0.1c0,0,0,0-0.1,0v-0.1c0,0,0,0-0.1,0v-0.1c0,0,0,0-0.1,0v-0.1c0,0,0,0-0.1,0v-0.1
			c0,0,0,0-0.1,0v-0.1c0,0,0,0-0.1,0v-0.1c0,0,0,0-0.1,0v-0.1c0,0,0,0-0.1,0v-0.1c0,0,0,0-0.1,0v-0.1c0,0,0,0-0.1,0V53
			c0,0,0,0-0.1,0v-0.1c0,0,0,0-0.1,0v-0.1c0,0,0,0-0.1,0v-0.1c0,0,0,0-0.1,0v-0.1c0,0,0,0-0.1,0v-0.1c0,0,0,0-0.1,0v-0.1
			c0,0,0,0-0.1,0v-0.1c0,0,0,0-0.1,0v-0.1c0,0,0,0-0.1,0v-0.1c0,0,0,0-0.1,0v-0.1c0,0,0,0-0.1,0v-0.1c0,0,0,0-0.1,0v-0.1
			c0,0,0,0-0.1,0v-0.1c0,0,0,0-0.1,0v-0.1c0,0,0,0-0.1,0V52c0,0,0,0-0.1,0v-0.1c0,0,0,0-0.1,0v-0.1c0,0,0,0-0.1,0v-0.1
			c0,0,0,0-0.1,0v-0.1c0,0,0,0-0.1,0v-0.1c0,0,0,0-0.1,0v-0.1c0,0,0,0-0.1,0v-0.1c0,0,0,0-0.1,0v-0.1c0,0,0,0-0.1,0v-0.1
			c0,0,0,0-0.1,0v-0.1c0,0,0,0-0.1,0v-0.1c0,0,0,0-0.1,0v-0.1c0,0,0,0-0.1,0v-0.1c0,0,0,0-0.1,0v-0.1c0,0,0,0-0.1,0V51
			c0,0,0,0-0.1,0V51c0,0,0,0-0.1,0v-0.1c0,0,0,0-0.1,0v-0.1c0,0,0,0-0.1,0v-0.1c0,0,0,0-0.1,0v-0.1c0,0,0,0-0.1,0v-0.1
			c0,0,0,0-0.1,0v-0.1c0,0,0,0-0.1,0v-0.1c0,0,0,0-0.1,0v-0.1c0,0,0,0-0.1,0v-0.1c0,0,0,0-0.1,0v-0.1c0,0,0,0-0.1,0v-0.1
			c0,0,0,0-0.1,0v-0.1c0,0,0,0-0.1,0v-0.1c0,0,0,0-0.1,0v-0.1c0,0,0,0-0.1,0V50c0,0,0,0-0.1,0v-0.1c0,0,0,0-0.1,0v-0.1
			c0,0,0,0-0.1,0v-0.1c0,0,0,0-0.1,0v-0.1c0,0,0,0-0.1,0v-0.1c0,0,0,0-0.1,0v-0.1c0,0,0,0-0.1,0v-0.1c0,0,0,0-0.1,0v-0.1
			c0,0,0,0-0.1,0v-0.1c0,0,0,0-0.1,0v-0.1c0,0,0,0-0.1,0v-0.1c0,0,0,0-0.1,0v-0.1c0,0,0,0-0.1,0v-0.1c0,0,0,0-0.1,0v-0.1
			c0,0,0,0-0.1,0V49c0,0,0,0-0.1,0v-0.1c0,0,0,0-0.1,0v-0.1c0,0,0,0-0.1,0v-0.1c0,0,0,0-0.1,0v-0.1c0,0,0,0-0.1,0v-0.1
			c0,0,0,0-0.1,0v-0.1c0,0,0,0-0.1,0v-0.1c0,0,0,0-0.1,0v-0.1c0,0,0,0-0.1,0v-0.1c0,0,0,0-0.1,0v-0.1c0,0,0,0-0.1,0v-0.1
			c0,0,0,0-0.1,0v-0.1c0,0,0,0-0.1,0v-0.1c0,0,0,0-0.1,0v-0.1c0,0,0,0-0.1,0V48c0,0,0,0-0.1,0V48c0,0,0,0-0.1,0v-0.1c0,0,0,0-0.1,0
			v-0.1c0,0,0,0-0.1,0v-0.1c0,0,0,0-0.1,0v-0.1c0,0,0,0-0.1,0v-0.1c0,0,0,0-0.1,0v-0.1c0,0,0,0-0.1,0v-0.1c0,0,0,0-0.1,0v-0.1
			c0,0,0,0-0.1,0v-0.1c0,0,0,0-0.1,0v-0.1c0,0,0,0-0.1,0v-0.1c0,0,0,0-0.1,0v-0.1c0,0,0,0-0.1,0v-0.1c0,0,0,0-0.1,0V47
			c0,0,0,0-0.1,0V47c0,0,0,0-0.1,0v-0.1c0,0,0,0-0.1,0v-0.1c0,0,0,0-0.1,0v-0.1c0,0,0,0-0.1,0v-0.1c0,0,0,0-0.1,0v-0.1
			c0,0,0,0-0.1,0v-0.1c0,0,0,0-0.1,0v-0.1c0,0,0,0-0.1,0v-0.1c0,0,0,0-0.1,0v-0.1c0,0,0,0-0.1,0v-0.1c0,0,0,0-0.1,0v-0.1
			c0,0,0,0-0.1,0v-0.1c0,0,0,0-0.1,0v-0.1c0,0,0,0-0.1,0v-0.1c0,0,0,0-0.1,0V46c0,0,0,0-0.1,0v-0.1c0,0,0,0-0.1,0v-0.1
			c0,0,0,0-0.1,0v-0.1c0,0,0,0-0.1,0v-0.1c0,0,0,0-0.1,0v-0.1c0,0,0,0-0.1,0v-0.1c0,0,0,0-0.1,0v-0.1c0,0,0,0,0,0
			c-0.3-1.4-0.4-2.8-0.4-4.1h-0.1c0,0,0,0,0-0.1h-0.1c0,0,0,0,0-0.1h-0.1c0,0,0,0,0-0.1h-0.1c0,0,0,0,0-0.1h-0.1c0,0,0,0,0-0.1h-0.1
			c0,0,0,0,0-0.1h-0.1c0,0,0,0,0-0.1h-0.1c0,0,0,0,0-0.1H75c0,0,0,0,0-0.1H75c0,0,0,0,0-0.1h-0.1c0,0,0,0,0-0.1h-0.1c0,0,0,0,0-0.1
			h-0.1c0,0,0,0,0-0.1h-0.1c0,0,0,0,0-0.1h-0.1c0,0,0,0,0-0.1h-0.1c0,0,0,0,0-0.1h-0.1c0,0,0,0,0-0.1h-0.1c0,0,0,0,0-0.1h-0.1
			c0,0,0,0,0-0.1h-0.1c0,0,0,0,0-0.1h-0.1c0,0,0,0,0-0.1h-0.1c0,0,0,0,0-0.1h-0.1c0,0,0,0,0-0.1H74c0,0,0,0,0-0.1H74c0,0,0,0,0-0.1
			h-0.1c0,0,0,0,0-0.1h-0.1c0,0,0,0,0-0.1h-0.1c0,0,0,0,0-0.1h-0.1c0,0,0,0,0-0.1h-0.1c0,0,0,0,0-0.1h-0.1c0,0,0,0,0-0.1h-0.1
			c0,0,0,0,0-0.1h-0.1c0,0,0,0,0-0.1h-0.1c0,0,0,0,0-0.1h-0.1c0,0,0,0,0-0.1h-0.1c0,0,0,0,0-0.1h-0.1c0,0,0,0,0-0.1h-0.1
			c0,0,0,0,0-0.1h-0.1c0,0,0,0,0-0.1H73c0,0,0,0,0-0.1h-0.1c0,0,0,0,0-0.1h-0.1c0,0,0,0,0-0.1h-0.1c0,0,0,0,0-0.1h-0.1
			c0,0,0,0,0-0.1h-0.1c0,0,0,0,0-0.1h-0.1c0,0,0,0,0-0.1h-0.1c0,0,0,0,0-0.1h-0.1c0,0,0,0,0-0.1h-0.1c0,0,0,0,0-0.1h-0.1
			c0,0,0,0,0-0.1h-0.1c0,0,0,0,0-0.1h-0.1c0,0,0,0,0-0.1h-0.1c0,0,0,0,0-0.1h-0.1c0,0,0,0,0-0.1H72c0,0,0,0,0-0.1h-0.1
			c0,0,0,0,0-0.1h-0.1c0,0,0,0,0-0.1h-0.1c0,0,0,0,0-0.1h-0.1c0,0,0,0,0-0.1h-0.1c0,0,0,0,0-0.1h-0.1c0,0,0,0,0-0.1h-0.1
			c0,0,0,0,0-0.1h-0.1c0,0,0,0,0-0.1h-0.1c0,0,0,0,0-0.1h-0.1c0,0,0,0,0-0.1h-0.1c0,0,0,0,0-0.1h-0.1c0,0,0,0,0-0.1h-0.1
			c0,0,0,0,0-0.1h-0.1c0,0,0,0,0-0.1H71c0,0,0,0,0-0.1H71c0,0,0,0,0-0.1h-0.1c0,0,0,0,0-0.1h-0.1c0,0,0,0,0-0.1h-0.1c0,0,0,0,0-0.1
			h-0.1c0,0,0,0,0-0.1h-0.1c0,0,0,0,0-0.1h-0.1c0,0,0,0,0-0.1h-0.1c0,0,0,0,0-0.1h-0.1c0,0,0,0,0-0.1h-0.1c0,0,0,0,0-0.1h-0.1
			c0,0,0,0,0-0.1h-0.1c0,0,0,0,0-0.1h-0.1c0,0,0,0,0-0.1h-0.1c0,0,0,0,0-0.1h-0.1c0,0,0,0,0-0.1H70c0,0,0,0,0-0.1h-0.1
			c0,0,0,0,0-0.1h-0.1c0,0,0,0,0-0.1h-0.1c0,0,0,0,0-0.1h-0.1c0,0,0,0,0-0.1h-0.1c0,0,0,0,0-0.1h-0.1c0,0,0,0,0-0.1h-0.1
			c0,0,0,0,0-0.1h-0.1c0,0,0,0,0-0.1h-0.1c0,0,0,0,0-0.1h-0.1c0,0,0,0,0-0.1h-0.1c0,0,0,0,0-0.1h-0.1c0,0,0,0,0-0.1h-0.1
			c0,0,0,0,0-0.1h-0.1c0,0,0,0,0-0.1H69c0,0,0,0,0-0.1h-0.1c0,0,0,0,0-0.1h-0.1c0,0,0,0,0-0.1h-0.1c0,0,0,0,0-0.1h-0.1
			c0,0,0,0,0-0.1h-0.1c0,0,0,0,0-0.1h-0.1c0,0,0,0,0-0.1h-0.1c0,0,0,0,0-0.1h-0.1c0,0,0,0,0-0.1h-0.1c0,0,0,0,0-0.1h-0.1
			c0,0,0,0,0-0.1h-0.1c0,0,0,0,0-0.1h-0.1c0,0,0,0,0-0.1h-0.1c0,0,0,0,0-0.1h-0.1c0,0,0,0,0-0.1H68c0,0,0,0,0-0.1H68c0,0,0,0,0-0.1
			h-0.1c0,0,0,0,0-0.1h-0.1c0,0,0,0,0-0.1h-0.1c0,0,0,0,0-0.1h-0.1c0,0,0,0,0-0.1h-0.1c0,0,0,0,0-0.1h-0.1c0,0,0,0,0-0.1h-0.1
			c0,0,0,0,0-0.1h-0.1c0,0,0,0,0-0.1h-0.1c0,0,0,0,0-0.1h-0.1c0,0,0,0,0-0.1h-0.1c0,0,0,0,0-0.1h-0.1c0,0,0,0,0-0.1h-0.1
			c0,0,0,0,0-0.1H67c0,0,0,0,0-0.1H67c0,0,0,0,0-0.1h-0.1c0,0,0,0,0-0.1h-0.1c0,0,0,0,0-0.1h-0.1c0,0,0,0,0-0.1h-0.1c0,0,0,0,0-0.1
			h-0.1c0,0,0,0,0-0.1h-0.1c0,0,0,0,0-0.1h-0.1c0,0,0,0,0-0.1h-0.1c0,0,0,0,0-0.1h-0.1c0,0,0,0,0-0.1h-0.1c0,0,0,0,0-0.1h-0.1
			c0,0,0,0,0-0.1h-0.1c0,0,0,0,0-0.1h-0.1c0,0,0,0,0-0.1h-0.1c0,0,0,0,0-0.1H66c0,0,0,0,0-0.1h-0.1c0,0,0,0,0-0.1h-0.1
			c0,0,0,0,0-0.1h-0.1c0,0,0,0,0-0.1h-0.1c0,0,0,0,0-0.1h-0.1c0,0,0,0,0-0.1h-0.1c0,0,0,0,0-0.1h-0.1c0,0,0,0,0-0.1h-0.1
			c0,0,0,0,0-0.1h-0.1c0,0,0,0,0-0.1h-0.1c0,0,0,0,0-0.1h-0.1c0,0,0,0,0-0.1h-0.1c0,0,0,0,0-0.1h-0.1c0,0,0,0,0-0.1h-0.1
			c0,0,0,0,0-0.1H65c0,0,0,0,0-0.1H65c0,0,0,0,0-0.1h-0.1c0,0,0,0,0-0.1h-0.1c0,0,0,0,0-0.1h-0.1c0,0,0,0,0-0.1h-0.1c0,0,0,0,0-0.1
			h-0.1c0,0,0,0,0-0.1h-0.1c0,0,0,0,0-0.1h-0.1c0,0,0,0,0-0.1h-0.1c0,0,0,0,0-0.1h-0.1c0,0,0,0,0-0.1h-0.1c0,0,0,0,0-0.1h-0.1
			c0,0,0,0,0-0.1h-0.1c0,0,0,0,0-0.1h-0.1c0,0,0,0,0-0.1H64c0,0,0,0,0-0.1H64c0,0,0,0,0-0.1h-0.1c0,0,0,0,0-0.1h-0.1c0,0,0,0,0-0.1
			h-0.1c0,0,0,0,0-0.1h-0.1c0,0,0,0,0-0.1h-0.1c0,0,0,0,0-0.1h-0.1c0,0,0,0,0-0.1h-0.1c0,0,0,0,0-0.1h-0.1c0,0,0,0,0-0.1h-0.1
			c0,0,0,0,0-0.1h-0.1c0,0,0,0,0-0.1h-0.1c0,0,0,0,0-0.1h-0.1c0,0,0,0,0-0.1h-0.1c0,0,0,0,0-0.1h-0.1c0,0,0,0,0-0.1H63
			c0,0,0,0,0-0.1h-0.1c0,0,0,0,0-0.1h-0.1c0,0,0,0,0-0.1h-0.1c0,0,0,0,0-0.1h-0.1c0,0,0,0,0-0.1h-0.1c0,0,0,0,0-0.1h-0.1
			c0,0,0,0,0-0.1h-0.1c0,0,0,0,0-0.1h-0.1c0,0,0,0,0-0.1h-0.1c0,0,0,0,0-0.1h-0.1c0,0,0,0,0-0.1h-0.1c0,0,0,0,0-0.1h-0.1
			c0,0,0,0,0-0.1h-0.1c0,0,0,0,0-0.1h-0.1c0,0,0,0,0-0.1H62c0,0,0,0,0-0.1H62c0,0,0,0,0-0.1h-0.1c0,0,0,0,0-0.1h-0.1c0,0,0,0,0-0.1
			h-0.1c0,0,0,0,0-0.1h-0.1c0,0,0,0,0-0.1h-0.1c0,0,0,0,0-0.1h-0.1c0,0,0,0,0-0.1h-0.1c0,0,0,0,0-0.1h-0.1c0,0,0,0,0-0.1h-0.1
			c0,0,0,0,0-0.1h-0.1c0,0,0,0,0-0.1h-0.1c0,0,0,0,0-0.1h-0.1c0,0,0,0,0-0.1h-0.1c0,0,0,0,0-0.1H61c0,0,0,0,0-0.1H61c0,0,0,0,0-0.1
			h-0.1c0,0,0,0,0-0.1h-0.1c0,0,0,0,0-0.1h-0.1c0,0,0,0,0-0.1h-0.1c0,0,0,0,0-0.1h-0.1c0,0,0,0,0-0.1h-0.1c0,0,0,0,0-0.1h-0.1
			c0,0,0,0,0-0.1h-0.1c0,0,0,0,0-0.1h-0.1c0,0,0,0,0-0.1h-0.1c0,0,0,0,0-0.1h-0.1c0,0,0,0,0-0.1h-0.1c0,0,0,0,0-0.1h-0.1
			c0,0,0,0,0-0.1h-0.1c0,0,0,0,0-0.1H60c0,0,0,0,0-0.1h-0.1c0,0,0,0,0-0.1h-0.1c0,0,0,0,0-0.1h-0.1c0,0,0,0,0-0.1h-0.1
			c0,0,0,0,0-0.1h-0.1c0,0,0,0,0-0.1h-0.1c0,0,0,0,0-0.1h-0.1c0,0,0,0,0-0.1h-0.1c0,0,0,0,0-0.1h-0.1c0,0,0,0,0-0.1h-0.1
			c0,0,0,0,0-0.1h-0.1c0,0,0,0,0-0.1h-0.1c0,0,0,0,0-0.1h-0.1c0,0,0,0,0-0.1h-0.1c0,0,0,0,0-0.1H59c0,0,0,0,0-0.1h-0.1
			c0,0,0,0,0-0.1h-0.1c0,0,0,0,0-0.1h-0.1c0,0,0,0,0-0.1h-0.1c0,0,0,0,0-0.1h-0.1c0,0,0,0,0-0.1h-0.1c0,0,0,0,0-0.1h-0.1
			c0,0,0,0,0-0.1h-0.1c0,0,0,0,0-0.1h-0.1c0,0,0,0,0-0.1h-0.1c0,0,0,0,0-0.1h-0.1c0,0,0,0,0-0.1h-0.1c0,0,0,0,0-0.1h-0.1
			c0,0,0,0,0-0.1h-0.1c0,0,0,0,0-0.1H58c0,0,0,0,0-0.1H58c0,0,0,0,0-0.1h-0.1c0,0,0,0,0-0.1h-0.1c0,0,0,0,0-0.1h-0.1c0,0,0,0,0-0.1
			h-0.1c0,0,0,0,0-0.1h-0.1c0,0,0,0,0-0.1h-0.1c0,0,0,0,0-0.1h-0.1c0,0,0,0,0-0.1h-0.1c0,0,0,0,0-0.1h-0.1c0,0,0,0,0-0.1h-0.1
			c0,0,0,0,0-0.1h-0.1c0,0,0,0,0-0.1h-0.1c0,0,0,0,0-0.1h-0.1c0,0,0,0,0-0.1h-0.1c0,0,0,0,0-0.1H57c0,0,0,0,0-0.1h-0.1
			c0,0,0,0,0-0.1h-0.1c0,0,0,0,0-0.1h-0.1c0,0,0,0,0-0.1h-0.1c0,0,0,0,0-0.1h-0.1c0,0,0,0,0-0.1h-0.1c0,0,0,0,0-0.1h-0.1
			c0,0,0,0,0-0.1h-0.1c0,0,0,0,0-0.1h-0.1c0,0,0,0,0-0.1h-0.1c0,0,0,0,0-0.1h-0.1c0,0,0,0,0-0.1h-0.1c0,0,0,0,0-0.1h-0.1
			c0,0,0,0,0-0.1h-0.1c0,0,0,0,0-0.1H56c0,0,0,0,0-0.1h-0.1c0,0,0,0,0-0.1h-0.1c0,0,0,0,0-0.1h-0.1c0,0,0,0,0-0.1h-0.1
			c0,0,0,0,0-0.1h-0.1c0,0,0,0,0-0.1h-0.1c0,0,0,0,0-0.1h-0.1c0,0,0,0,0-0.1h-0.1c0,0,0,0,0-0.1h-0.1c0,0,0,0,0-0.1h-0.1
			c0,0,0,0,0-0.1h-0.1c0,0,0,0,0-0.1h-0.1c0,0,0,0,0-0.1h-0.1c0,0,0,0,0-0.1h-0.1c0,0,0,0,0-0.1H55c0,0,0,0,0-0.1H55c0,0,0,0,0-0.1
			h-0.1c0,0,0,0,0-0.1h-0.1c0,0,0,0,0-0.1h-0.1c0,0,0,0,0-0.1h-0.1c0,0,0,0,0-0.1h-0.1c0,0,0,0,0-0.1h-0.1c0,0,0,0,0-0.1h-0.1
			c0,0,0,0,0-0.1h-0.1c0,0,0,0,0-0.1h-0.1c0,0,0,0,0-0.1h-0.1c0,0,0,0,0-0.1h-0.1c0,0,0,0,0-0.1h-0.1c0,0,0,0,0-0.1h-0.1
			c0,0,0,0,0-0.1h-0.1c0,0,0,0,0-0.1H54c0,0,0,0,0-0.1h-0.1c0,0,0,0,0-0.1h-0.1c0,0,0,0,0-0.1h-0.1c0,0,0,0,0-0.1h-0.1
			c0,0,0,0,0-0.1h-0.1c0,0,0,0,0-0.1h-0.1c0,0,0,0,0-0.1h-0.1c0,0,0,0,0-0.1h-0.1c0,0,0,0,0-0.1h-0.1c0,0,0,0,0-0.1h-0.1
			c0,0,0,0,0-0.1h-0.1c0,0,0,0,0-0.1h-0.1c0,0,0,0,0-0.1h-0.1c0,0,0,0,0-0.1h-0.1c0,0,0,0,0-0.1H53c0,0,0,0,0-0.1h-0.1
			c0,0,0,0,0-0.1h-0.1c0,0,0,0,0-0.1h-0.1c0,0,0,0,0-0.1h-0.1c0,0,0,0,0-0.1h-0.1c0,0,0,0,0-0.1h-0.1c0,0,0,0,0-0.1h-0.1
			c0,0,0,0,0-0.1h-0.1c0,0,0,0,0-0.1h-0.1c0,0,0,0,0-0.1h-0.1c0,0,0,0,0-0.1h-0.1c0,0,0,0,0-0.1h-0.1c0,0,0,0,0-0.1h-0.1
			c0,0,0,0,0-0.1h-0.1c0,0,0,0,0-0.1H52c0,0,0,0,0-0.1H52c0,0,0,0,0-0.1h-0.1c0,0,0,0,0-0.1h-0.1c0,0,0,0,0-0.1h-0.1c0,0,0,0,0-0.1
			h-0.1c0,0,0,0,0-0.1h-0.1c0,0,0,0,0-0.1h-0.1c0,0,0,0,0-0.1h-0.1c0,0,0,0,0-0.1h-0.1c0,0,0,0,0-0.1h-0.1c0,0,0,0,0-0.1h-0.1
			c0,0,0,0,0-0.1h-0.1c0,0,0,0,0-0.1h-0.1c0,0,0,0,0-0.1h-0.1c0,0,0,0,0-0.1H51c0,0,0,0,0-0.1H51c0,0,0,0,0-0.1h-0.1c0,0,0,0,0-0.1
			h-0.1c0,0,0,0,0-0.1h-0.1c0,0,0,0,0-0.1h-0.1c0,0,0,0,0-0.1h-0.1c0,0,0,0,0-0.1h-0.1c0,0,0,0,0-0.1h-0.1c0,0,0,0,0-0.1h-0.1
			c0,0,0,0,0-0.1h-0.1c0,0,0,0,0-0.1h-0.1c0,0,0,0,0-0.1h-0.1c0,0,0,0,0-0.1h-0.1c0,0,0,0,0-0.1h-0.1c0,0,0,0,0-0.1h-0.1
			c0,0,0,0,0-0.1H50c0,0,0,0,0-0.1h-0.1c0,0,0,0,0-0.1h-0.1c0,0,0,0,0-0.1h-0.1c0,0,0,0,0-0.1h-0.1c0,0,0,0,0-0.1h-0.1
			c0,0,0,0,0-0.1h-0.1c0,0,0,0,0-0.1h-0.1c0,0,0,0,0-0.1h-0.1c0,0,0,0,0-0.1h-0.1c0,0,0,0,0-0.1H19c0,2.4,0.7,5,2,7.3h-4.2
			c0,0,0,0,0,0c0,0,0,0,0,0c-0.1,0-0.1,0.1-0.1,0.2c0,0,0,0.1,0,0.1v0.9c0,0.1,0,0.1,0,0.2v0.9c0,0.1,0,0.1,0,0.2v0.9
			c0,0.1,0,0.1,0,0.2v0.9c0,0.1,0,0.1,0,0.2v0.9c-0.3-0.1-0.6-0.1-0.8,0.2c-0.1,0.2-0.1,0.5,0.1,0.7c0,0,0,0,0.1,0.1
			c0,0,0,0,0.1,0.1c0,0,0,0,0.1,0.1c0,0,0,0,0.1,0.1c0,0,0,0,0.1,0.1c0,0,0,0,0.1,0.1c0,0,0,0,0.1,0.1c0,0,0,0,0.1,0.1
			c0,0,0,0,0.1,0.1c0,0,0,0,0.1,0.1c0,0,0,0,0,0v0.9l-0.1-0.1c-0.3-0.2-0.6-0.1-0.8,0.2c-0.1,0.2-0.1,0.5,0.1,0.7c0,0,0,0,0.1,0.1
			c0,0,0,0,0.1,0.1c0,0,0,0,0.1,0.1c0,0,0,0,0.1,0.1c0,0,0,0,0.1,0.1c0,0,0,0,0.1,0.1c0,0,0,0,0.1,0.1c0,0,0,0,0.1,0.1
			c0,0,0,0,0.1,0.1c0,0,0,0,0.1,0.1c0,0,0,0,0.1,0.1c0,0,0,0,0.1,0.1c0,0,0,0,0.1,0.1c0,0,0,0,0,0v0.9c0,0.1,0,0.1,0,0.2v0.9
			c0,0.1,0,0.1,0,0.2v0.9c0,0.1,0,0.1,0,0.2v0.9c0,0.1,0,0.1,0,0.2V38l-0.1-0.1c-0.3-0.2-0.6-0.1-0.8,0.2c-0.1,0.2-0.1,0.5,0.1,0.7
			c0,0,0,0,0.1,0.1c0,0,0,0,0.1,0.1c0,0,0,0,0.1,0.1c0,0,0,0,0.1,0.1c0,0,0,0,0.1,0.1c0,0,0,0,0.1,0.1c0,0,0,0,0.1,0.1
			c0,0,0,0,0.1,0.1c0,0,0,0,0.1,0.1c0,0,0,0,0.1,0.1c0,0,0,0,0.1,0.1c0,0,0,0,0.1,0.1c0,0,0,0,0.1,0.1c0,0,0,0,0,0v1l-0.1-0.1
			c-0.3-0.2-0.6-0.1-0.8,0.2c-0.1,0.2-0.1,0.5,0.1,0.7c0,0,0,0,0.1,0.1c0,0,0,0,0.1,0.1c0,0,0,0,0.1,0.1c0,0,0,0,0.1,0.1
			c0,0,0,0,0.1,0.1c0,0,0,0,0.1,0.1c0,0,0,0,0.1,0.1c0,0,0,0,0.1,0.1c0,0,0,0,0.1,0.1c0,0,0,0,0.1,0.1c0,0,0,0,0.1,0.1
			c0,0,0,0,0.1,0.1c0,0,0,0,0.1,0.1c0,0,0,0,0,0v0.9c0,0.1,0,0.1,0,0.2v0.9c0,0.1,0,0.1,0,0.2v0.9c0,0.1,0,0.1,0,0.2v0.9
			c0,0.1,0,0.1,0,0.2v1l-0.1-0.1c-0.3-0.2-0.6-0.1-0.8,0.2c-0.1,0.2-0.1,0.5,0.1,0.7c0,0,0,0,0.1,0.1c0,0,0,0,0.1,0.1
			c0,0,0,0,0.1,0.1c0,0,0,0,0.1,0.1c0,0,0,0,0.1,0.1c0,0,0,0,0.1,0.1c0,0,0,0,0.1,0.1c0,0,0,0,0.1,0.1c0,0,0,0,0.1,0.1
			c0,0,0,0,0.1,0.1c0,0,0,0,0.1,0.1c0,0,0,0,0.1,0.1c0,0,0,0,0.1,0.1c0,0,0,0,0.1,0.1c0,0,0,0,0.1,0.1c0,0,0,0,0.1,0.1
			c0,0,0,0,0.1,0.1c0,0,0,0,0.1,0.1c0,0,0,0,0.1,0.1c0,0,0,0,0.1,0.1c0,0,0,0,0.1,0.1c0,0,0,0,0.1,0.1c0,0,0,0,0.1,0.1
			c0,0,0,0,0.1,0.1c0,0,0,0,0.1,0.1c0,0,0,0,0.1,0.1c0,0,0,0,0.1,0.1c0,0,0,0,0.1,0.1c0,0,0,0,0.1,0.1c0,0,0,0,0.1,0.1
			c0,0,0,0,0.1,0.1c0,0,0,0,0.1,0.1c0,0,0,0,0.1,0.1c0,0,0,0,0.1,0.1c0,0,0,0,0.1,0.1c0,0,0,0,0.1,0.1c0,0,0,0,0.1,0.1
			c0,0,0,0,0.1,0.1c0,0,0,0,0.1,0.1c0,0,0,0,0.1,0.1c0,0,0,0,0.1,0.1c0,0,0,0,0.1,0.1c0,0,0,0,0.1,0.1c0,0,0,0,0.1,0.1
			c0,0,0,0,0.1,0.1c0,0,0,0,0.1,0.1c0,0,0,0,0.1,0.1c0,0,0,0,0.1,0.1c0,0,0,0,0.1,0.1c0,0,0,0,0.1,0.1c0,0,0,0,0.1,0.1
			c0,0,0,0,0.1,0.1c0,0,0,0,0.1,0.1c0,0,0,0,0.1,0.1c0,0,0,0,0.1,0.1c0,0,0,0,0.1,0.1c0,0,0,0,0.1,0.1c0,0,0,0,0.1,0.1
			c0,0,0,0,0.1,0.1c0,0,0,0,0.1,0.1c0,0,0,0,0.1,0.1c0,0,0,0,0.1,0.1c0,0,0,0,0.1,0.1c0,0,0,0,0.1,0.1c0,0,0,0,0.1,0.1
			c0,0,0,0,0.1,0.1c0,0,0,0,0.1,0.1c0,0,0,0,0.1,0.1c0,0,0,0,0.1,0.1c0,0,0,0,0.1,0.1c0,0,0,0,0.1,0.1c0,0,0,0,0.1,0.1
			c0,0,0,0,0.1,0.1c0,0,0,0,0.1,0.1c0,0,0,0,0.1,0.1c0,0,0,0,0.1,0.1c0,0,0,0,0.1,0.1c0,0,0,0,0.1,0.1c0,0,0,0,0.1,0.1
			c0,0,0,0,0.1,0.1c0,0,0,0,0.1,0.1c0,0,0,0,0.1,0.1c0,0,0,0,0.1,0.1c0,0,0,0,0.1,0.1c0,0,0,0,0.1,0.1c0,0,0,0,0.1,0.1
			c0,0,0,0,0.1,0.1c0,0,0,0,0.1,0.1c0,0,0,0,0.1,0.1c0,0,0,0,0.1,0.1c0,0,0,0,0.1,0.1c0,0,0,0,0.1,0.1c0,0,0,0,0.1,0.1
			c0,0,0,0,0.1,0.1c0,0,0,0,0.1,0.1c0,0,0,0,0.1,0.1c0,0,0,0,0.1,0.1c0,0,0,0,0.1,0.1c0,0,0,0,0.1,0.1c0,0,0,0,0.1,0.1
			c0,0,0,0,0.1,0.1c0,0,0,0,0.1,0.1c0,0,0,0,0.1,0.1c0,0,0,0,0.1,0.1c0,0,0,0,0.1,0.1c0,0,0,0,0.1,0.1c0,0,0,0,0.1,0.1
			c0,0,0,0,0.1,0.1c0,0,0,0,0.1,0.1c0,0,0,0,0.1,0.1c0,0,0,0,0.1,0.1c0,0,0,0,0.1,0.1c0,0,0,0,0.1,0.1c0,0,0,0,0.1,0.1
			c0,0,0,0,0.1,0.1c0,0,0,0,0.1,0.1c0,0,0,0,0.1,0.1c0,0,0,0,0.1,0.1c0,0,0,0,0.1,0.1c0,0,0,0,0.1,0.1c0,0,0,0,0.1,0.1
			c0,0,0,0,0.1,0.1c0,0,0,0,0.1,0.1c0,0,0,0,0.1,0.1c0,0,0,0,0.1,0.1c0,0,0,0,0.1,0.1c0,0,0,0,0.1,0.1c0,0,0,0,0.1,0.1
			c0,0,0,0,0.1,0.1c0,0,0,0,0.1,0.1c0,0,0,0,0.1,0.1c0,0,0,0,0.1,0.1c0,0,0,0,0.1,0.1c0,0,0,0,0.1,0.1c0,0,0,0,0.1,0.1
			c0,0,0,0,0.1,0.1c0,0,0,0,0.1,0.1c0,0,0,0,0.1,0.1c0,0,0,0,0.1,0.1c0,0,0,0,0.1,0.1c0,0,0,0,0.1,0.1c0,0,0,0,0.1,0.1
			c0,0,0,0,0.1,0.1c0,0,0,0,0.1,0.1c0,0,0,0,0.1,0.1c0,0,0,0,0.1,0.1c0,0,0,0,0.1,0.1c0,0,0,0,0.1,0.1c0,0,0,0,0.1,0.1
			c0,0,0,0,0.1,0.1c0,0,0,0,0.1,0.1c0,0,0,0,0.1,0.1c0,0,0,0,0.1,0.1c0,0,0,0,0.1,0.1c0,0,0,0,0.1,0.1c0,0,0,0,0.1,0.1
			c0,0,0,0,0.1,0.1c0,0,0,0,0.1,0.1c0,0,0,0,0.1,0.1c0,0,0,0,0.1,0.1c0,0,0,0,0.1,0.1c0,0,0,0,0.1,0.1c0,0,0,0,0.1,0.1
			c0,0,0,0,0.1,0.1c0,0,0,0,0.1,0.1c0,0,0,0,0.1,0.1c0,0,0,0,0.1,0.1c0,0,0,0,0.1,0.1c0,0,0,0,0.1,0.1c0,0,0,0,0.1,0.1
			c0,0,0,0,0.1,0.1c0,0,0,0,0.1,0.1c0,0,0,0,0.1,0.1c0,0,0,0,0.1,0.1c0,0,0,0,0.1,0.1c0,0,0,0,0.1,0.1c0,0,0,0,0.1,0.1
			c0,0,0,0,0.1,0.1c0,0,0,0,0.1,0.1c0,0,0,0,0.1,0.1c0,0,0,0,0.1,0.1c0,0,0,0,0.1,0.1c0,0,0,0,0.1,0.1c0,0,0,0,0.1,0.1
			c0,0,0,0,0.1,0.1c0,0,0,0,0.1,0.1c0,0,0,0,0.1,0.1c0,0,0,0,0.1,0.1c0,0,0,0,0.1,0.1c0,0,0,0,0.1,0.1c0,0,0,0,0.1,0.1
			c0,0,0,0,0.1,0.1c0,0,0,0,0.1,0.1c0,0,0,0,0.1,0.1c0,0,0,0,0.1,0.1c0,0,0,0,0.1,0.1c0,0,0,0,0.1,0.1c0,0,0,0,0.1,0.1
			c0,0,0,0,0.1,0.1c0,0,0,0,0.1,0.1c0,0,0,0,0.1,0.1c0,0,0,0,0.1,0.1c0,0,0,0,0.1,0.1c0,0,0,0,0.1,0.1c0,0,0,0,0.1,0.1
			c0,0,0,0,0.1,0.1c0,0,0,0,0.1,0.1c0,0,0,0,0.1,0.1c0,0,0,0,0.1,0.1c0,0,0,0,0.1,0.1c0,0,0,0,0.1,0.1c0,0,0,0,0.1,0.1
			c0,0,0,0,0.1,0.1c0,0,0,0,0.1,0.1c0,0,0,0,0.1,0.1c0,0,0,0,0.1,0.1c0,0,0,0,0.1,0.1c0,0,0,0,0.1,0.1c0,0,0,0,0.1,0.1
			c0,0,0,0,0.1,0.1c0,0,0,0,0.1,0.1c0,0,0,0,0.1,0.1c0,0,0,0,0.1,0.1c0,0,0,0,0.1,0.1c0,0,0,0,0.1,0.1c0,0,0,0,0.1,0.1
			c0,0,0,0,0.1,0.1c0,0,0,0,0.1,0.1c0,0,0,0,0.1,0.1c0,0,0,0,0.1,0.1c0,0,0,0,0.1,0.1c0,0,0,0,0.1,0.1c0,0,0,0,0.1,0.1
			c0,0,0,0,0.1,0.1c0,0,0,0,0.1,0.1c0,0,0,0,0.1,0.1c0,0,0,0,0.1,0.1c0,0,0,0,0.1,0.1c0,0,0,0,0.1,0.1c0,0,0,0,0.1,0.1
			c0,0,0,0,0.1,0.1c0,0,0,0,0.1,0.1c0,0,0,0,0.1,0.1c0,0,0,0,0.1,0.1c0,0,0,0,0.1,0.1c0,0,0,0,0.1,0.1c0,0,0,0,0.1,0.1
			c0,0,0,0,0.1,0.1c0,0,0,0,0.1,0.1c0,0,0,0,0.1,0.1c0,0,0,0,0.1,0.1c0,0,0,0,0.1,0.1c0,0,0,0,0.1,0.1c0,0,0,0,0.1,0.1
			c0,0,0,0,0.1,0.1c0,0,0,0,0.1,0.1c0,0,0,0,0.1,0.1c0,0,0,0,0.1,0.1c0,0,0,0,0.1,0.1c0,0,0,0,0.1,0.1c0,0,0,0,0.1,0.1
			c0,0,0,0,0.1,0.1c0,0,0,0,0.1,0.1c0,0,0,0,0.1,0.1c0,0,0,0,0.1,0.1c0,0,0,0,0.1,0.1c0,0,0,0,0.1,0.1c0,0,0,0,0.1,0.1
			c0,0,0,0,0.1,0.1c0,0,0,0,0.1,0.1c0,0,0,0,0.1,0.1c0,0,0,0,0.1,0.1c0,0,0,0,0.1,0.1c0,0,0,0,0.1,0.1c0,0,0,0,0.1,0.1
			c0,0,0,0,0.1,0.1c0,0,0,0,0.1,0.1c0,0,0,0,0.1,0.1c0,0,0,0,0.1,0.1c0,0,0,0,0.1,0.1c0,0,0,0,0.1,0.1c0,0,0,0,0.1,0.1
			c0,0,0,0,0.1,0.1c0,0,0,0,0.1,0.1c0,0,0,0,0.1,0.1c0,0,0,0,0.1,0.1c0,0,0,0,0.1,0.1c0,0,0,0,0.1,0.1c0,0,0,0,0.1,0.1
			c0,0,0,0,0.1,0.1c0,0,0,0,0.1,0.1c0,0,0,0,0.1,0.1c0,0,0,0,0.1,0.1c0,0,0,0,0.1,0.1c0,0,0,0,0.1,0.1c0,0,0,0,0.1,0.1
			c0,0,0,0,0.1,0.1c0,0,0,0,0.1,0.1c0,0,0,0,0.1,0.1c0,0,0,0,0.1,0.1c0,0,0,0,0.1,0.1c0,0,0,0,0.1,0.1c0,0,0,0,0.1,0.1
			c0,0,0,0,0.1,0.1c0,0,0,0,0.1,0.1c0,0,0,0,0.1,0.1c0,0,0,0,0.1,0.1c0,0,0,0,0.1,0.1c0,0,0,0,0.1,0.1c0,0,0,0,0.1,0.1
			c0,0,0,0,0.1,0.1c0,0,0,0,0.1,0.1c0,0,0,0,0.1,0.1c0,0,0,0,0.1,0.1c0,0,0,0,0.1,0.1c0,0,0,0,0.1,0.1c0,0,0,0,0.1,0.1
			c0,0,0,0,0.1,0.1c0,0,0,0,0.1,0.1c0,0,0,0,0.1,0.1c0,0,0,0,0.1,0.1c0,0,0,0,0.1,0.1c0,0,0,0,0.1,0.1c0,0,0,0,0.1,0.1
			c0,0,0,0,0.1,0.1c0,0,0,0,0.1,0.1c0,0,0,0,0.1,0.1c0,0,0,0,0.1,0.1c0,0,0,0,0.1,0.1c0,0,0,0,0.1,0.1c0,0,0,0,0.1,0.1
			c0,0,0,0,0.1,0.1c0,0,0,0,0.1,0.1c0,0,0,0,0.1,0.1c0,0,0,0,0.1,0.1c0,0,0,0,0.1,0.1c0,0,0,0,0.1,0.1c0,0,0,0,0.1,0.1
			c0,0,0,0,0.1,0.1c0,0,0,0,0.1,0.1c0,0,0,0,0.1,0.1c0,0,0,0,0.1,0.1c0,0,0,0,0.1,0.1c0,0,0,0,0.1,0.1c0,0,0,0,0.1,0.1
			c0,0,0,0,0.1,0.1c0,0,0,0,0.1,0.1c0,0,0,0,0.1,0.1c0,0,0,0,0.1,0.1c0,0,0,0,0.1,0.1c0,0,0,0,0.1,0.1c0,0,0,0,0.1,0.1
			c0,0,0,0,0.1,0.1c0,0,0,0,0.1,0.1c0,0,0,0,0.1,0.1c0,0,0,0,0.1,0.1c0,0,0,0,0.1,0.1c0,0,0,0,0.1,0.1c0,0,0,0,0.1,0.1
			c0,0,0,0,0.1,0.1c0,0,0,0,0.1,0.1c0,0,0,0,0.1,0.1c0,0,0,0,0.1,0.1c0,0,0,0,0.1,0.1c0,0,0,0,0.1,0.1c0,0,0,0,0.1,0.1
			c0,0,0,0,0.1,0.1c0,0,0,0,0.1,0.1c0,0,0,0,0.1,0.1c0,0,0,0,0.1,0.1c0,0,0,0,0.1,0.1c0,0,0,0,0.1,0.1c0,0,0,0,0.1,0.1
			c0,0,0,0,0.1,0.1c0,0,0,0,0.1,0.1c0,0,0,0,0.1,0.1c0,0,0,0,0.1,0.1c0,0,0,0,0.1,0.1c0,0,0,0,0.1,0.1c0,0,0,0,0.1,0.1
			c0,0,0,0,0.1,0.1c0,0,0,0,0.1,0.1c0,0,0,0,0.1,0.1c0,0,0,0,0.1,0.1c0,0,0,0,0.1,0.1c0,0,0,0,0.1,0.1c0,0,0,0,0.1,0.1
			c0,0,0,0,0.1,0.1c0,0,0,0,0.1,0.1c0,0,0,0,0.1,0.1c0,0,0,0,0.1,0.1c0,0,0,0,0.1,0.1c0,0,0,0,0.1,0.1c0,0,0,0,0.1,0.1
			c0,0,0,0,0.1,0.1c0,0,0,0,0.1,0.1c0,0,0,0,0.1,0.1c0,0,0,0,0.1,0.1c0,0,0,0,0.1,0.1c0,0,0,0,0.1,0.1c0,0.1,0.1,0.1,0.2,0.2
			l12.6,8.2H85v-6.8v-1.6v-1.3v-1.7v-4.1v-2.6v-1.3v-1.4v-2.3v-4.6L84.9,54.5C85,54.5,85,54.5,84.9,54.5z"/>
		<g>
			<defs>
				<circle id="SVGID_8_" cx="36" cy="36" r="36"/>
			</defs>
			<clipPath id="SVGID_9_">
				<use xlink:href="#SVGID_8_"  style="overflow:visible;"/>
			</clipPath>
			<g class="st4">
				<g>
					<path class="st5" d="M58.6,28.1c-6.9,0-9.4-7.1-9.4-13H18.8c0,5.9,4,13,10.9,13H58.6z"/>
				</g>
				<g>
					<path class="st5" d="M29.3,35.7h-0.1l-12.7-8.4c-0.1-0.1-0.1-0.2-0.1-0.3c0.1-0.1,0.2-0.1,0.3-0.1l12.7,8.4
						c0.1,0.1,0.1,0.2,0.1,0.3C29.4,35.7,29.4,35.7,29.3,35.7z"/>
				</g>
				<g>
					<path class="st5" d="M29.3,34.6h-0.1l-12.7-8.4c-0.1-0.1-0.1-0.2-0.1-0.3c0.1-0.1,0.2-0.1,0.3-0.1l12.7,8.4
						c0.1,0.1,0.1,0.2,0.1,0.3C29.4,34.5,29.4,34.6,29.3,34.6z"/>
				</g>
				<g>
					<path class="st5" d="M29.3,33.4h-0.1L16.5,25c-0.1-0.1-0.1-0.2-0.1-0.3c0.1-0.1,0.2-0.1,0.3-0.1L29.4,33
						c0.1,0.1,0.1,0.2,0.1,0.3C29.4,33.4,29.4,33.4,29.3,33.4z"/>
				</g>
				<g>
					<path class="st5" d="M29.3,32.3h-0.1l-12.7-8.4c-0.1-0.1-0.1-0.2-0.1-0.3c0.1-0.1,0.2-0.1,0.3-0.1l12.7,8.4
						c0.1,0.1,0.1,0.2,0.1,0.3C29.4,32.3,29.4,32.3,29.3,32.3z"/>
				</g>
				<g>
					<path class="st5" d="M29.3,45.2h-0.1l-12.7-8.4c-0.1-0.1-0.1-0.2-0.1-0.3c0.1-0.1,0.2-0.1,0.3-0.1l12.7,8.4
						c0.1,0.1,0.1,0.2,0.1,0.3C29.4,45.2,29.4,45.2,29.3,45.2z"/>
				</g>
				<g>
					<path class="st5" d="M29.3,44.1h-0.1l-12.7-8.4c-0.1-0.1-0.1-0.2-0.1-0.3c0.1-0.1,0.2-0.1,0.3-0.1l12.7,8.4
						c0.1,0.1,0.1,0.2,0.1,0.3C29.4,44,29.4,44.1,29.3,44.1z"/>
				</g>
				<g>
					<path class="st5" d="M29.3,42.9h-0.1l-12.7-8.4c-0.1-0.1-0.1-0.2-0.1-0.3c0.1-0.1,0.2-0.1,0.3-0.1l12.7,8.4
						c0.1,0.1,0.1,0.2,0.1,0.3C29.4,42.9,29.4,42.9,29.3,42.9z"/>
				</g>
				<g>
					<path class="st5" d="M29.3,41.8h-0.1l-12.7-8.4c-0.1-0.1-0.1-0.2-0.1-0.3c0.1-0.1,0.2-0.1,0.3-0.1l12.7,8.4
						c0.1,0.1,0.1,0.2,0.1,0.3C29.4,41.8,29.4,41.8,29.3,41.8z"/>
				</g>
				<g>
					<path class="st5" d="M29.3,55h-0.1l-12.7-8.4c-0.1-0.1-0.1-0.2-0.1-0.3c0.1-0.1,0.2-0.1,0.3-0.1l12.7,8.4
						c0.1,0.1,0.1,0.2,0.1,0.3C29.4,54.9,29.4,55,29.3,55z"/>
				</g>
				<g>
					<path class="st5" d="M29.3,53.8h-0.1l-12.7-8.4c-0.1-0.1-0.1-0.2-0.1-0.3c0.1-0.1,0.2-0.1,0.3-0.1l12.7,8.4
						c0.1,0.1,0.1,0.2,0.1,0.3C29.4,53.8,29.4,53.8,29.3,53.8z"/>
				</g>
				<g>
					<path class="st5" d="M29.3,52.7h-0.1l-12.7-8.4c-0.1-0.1-0.1-0.2-0.1-0.3c0.1-0.1,0.2-0.1,0.3-0.1l12.7,8.4
						c0.1,0.1,0.1,0.2,0.1,0.3C29.4,52.7,29.4,52.7,29.3,52.7z"/>
				</g>
				<g>
					<path class="st5" d="M29.3,51.6h-0.1l-12.7-8.4c-0.1-0.1-0.1-0.2-0.1-0.3c0.1-0.1,0.2-0.1,0.3-0.1l12.7,8.4
						c0.1,0.1,0.1,0.2,0.1,0.3C29.4,51.5,29.4,51.6,29.3,51.6z"/>
				</g>
				<g>
					<path class="st5" d="M29.3,31.2h-0.1l-12.7-8.4c-0.1-0.1-0.1-0.2-0.1-0.3c0.1-0.1,0.2-0.1,0.3-0.1l12.7,8.4
						c0.1,0.1,0.1,0.2,0.1,0.3C29.4,31.1,29.4,31.2,29.3,31.2z"/>
				</g>
				<g>
					<g>
						<path class="st5" d="M28.5,37c0,0.1-0.2,0.2-0.3,0.1l-12.3-8c-0.3-0.2-0.3-0.5-0.2-0.8l0,0c0.2-0.3,0.5-0.3,0.8-0.2l12.3,8.1
							L28.5,37z"/>
					</g>
				</g>
				<g>
					<rect x="28.2" y="28.8" class="st5" width="30.4" height="8.4"/>
				</g>
				<g>
					<g>
						<path class="st5" d="M28.2,46.8l-12.6-8.2c-0.3-0.2-0.3-0.5-0.2-0.8l0,0c0.2-0.3,0.5-0.3,0.8-0.2l12.3,8.1L28.2,46.8z"/>
					</g>
				</g>
				<g>
					<g>
						<path class="st5" d="M28.2,39.6l-12.6-8.2c-0.3-0.2-0.3-0.5-0.2-0.8l0,0c0.2-0.3,0.5-0.3,0.8-0.2l12.3,8.1L28.2,39.6z"/>
					</g>
				</g>
				<g>
					<g>
						<path class="st5" d="M28.2,49.4l-12.6-8.2c-0.3-0.2-0.3-0.5-0.2-0.8l0,0c0.2-0.3,0.5-0.3,0.8-0.2l12.3,8.1L28.2,49.4z"/>
					</g>
				</g>
				<g>
					<rect x="28.2" y="38.5" class="st5" width="30.4" height="8.4"/>
				</g>
				<g>
					<g>
						<path class="st5" d="M28.2,56.5l-12.6-8.2c-0.3-0.2-0.3-0.5-0.2-0.8l0,0c0.2-0.3,0.5-0.3,0.8-0.2l12.3,8.1L28.2,56.5z"/>
					</g>
				</g>
				<g>
					<rect x="28.2" y="48.1" class="st5" width="30.4" height="8.4"/>
				</g>
				<g>
					<path class="st5" d="M29.3,22.8H16.6c-0.1,0-0.2-0.1-0.2-0.2s0.1-0.2,0.2-0.2h12.7c0.1,0,0.2,0.1,0.2,0.2
						C29.5,22.7,29.4,22.8,29.3,22.8z"/>
				</g>
			</g>
		</g>
	</g>
</g>
</svg>
