<?xml version="1.0" encoding="utf-8"?>
<!-- Generator: Adobe Illustrator 19.1.0, SVG Export Plug-In . SVG Version: 6.00 Build 0)  -->
<svg version="1.1" id="Layer_1" xmlns="http://www.w3.org/2000/svg" xmlns:xlink="http://www.w3.org/1999/xlink" x="0px" y="0px"
	 width="72px" height="72px" viewBox="0 0 72 72" style="enable-background:new 0 0 72 72;" xml:space="preserve">
<style type="text/css">
	.st0{clip-path:url(#SVGID_2_);fill:#F58B69;}
	.st1{opacity:0.3;clip-path:url(#SVGID_2_);fill:url(#SVGID_3_);}
	.st2{clip-path:url(#SVGID_2_);fill:#3B3336;}
	.st3{clip-path:url(#SVGID_5_);fill:#F58B69;}
	.st4{opacity:0.3;clip-path:url(#SVGID_5_);fill:url(#SVGID_6_);}
	.st5{clip-path:url(#SVGID_5_);fill:#3B3336;}
	.st6{clip-path:url(#SVGID_5_);}
	.st7{fill:#F47D55;}
	.st8{fill:#3B3336;}
	.st9{clip-path:url(#SVGID_8_);fill:#F58B69;}
	.st10{opacity:0.3;clip-path:url(#SVGID_8_);fill:url(#SVGID_9_);}
	.st11{clip-path:url(#SVGID_8_);fill:#3B3336;}
	.st12{clip-path:url(#SVGID_8_);}
	.st13{clip-path:url(#SVGID_8_);fill:#F47D55;stroke:#F47D55;stroke-width:1.128;stroke-linecap:round;stroke-miterlimit:10;}
	.st14{clip-path:url(#SVGID_11_);fill:#F58B69;}
	.st15{opacity:0.3;clip-path:url(#SVGID_11_);fill:url(#SVGID_12_);}
	.st16{clip-path:url(#SVGID_11_);}
	.st17{clip-path:url(#SVGID_14_);fill:#F58B69;}
	.st18{opacity:0.3;clip-path:url(#SVGID_14_);fill:url(#SVGID_15_);}
	.st19{clip-path:url(#SVGID_14_);fill:#3B3336;}
	.st20{clip-path:url(#SVGID_14_);fill:none;stroke:#F47D55;stroke-width:1.2829;stroke-linecap:round;stroke-miterlimit:10;}
	.st21{clip-path:url(#SVGID_14_);fill:none;stroke:#F47D55;stroke-width:0.4943;stroke-linecap:round;stroke-miterlimit:10;}
	.st22{clip-path:url(#SVGID_14_);fill:#F47D55;}
	.st23{clip-path:url(#SVGID_14_);}
	.st24{clip-path:url(#SVGID_17_);fill:#F58B69;}
	.st25{opacity:0.3;clip-path:url(#SVGID_17_);fill:url(#SVGID_18_);}
	.st26{clip-path:url(#SVGID_17_);}
</style>
<g>
	<defs>
		<circle id="SVGID_4_" cx="36" cy="36.1" r="36.1"/>
	</defs>
	<clipPath id="SVGID_2_">
		<use xlink:href="#SVGID_4_"  style="overflow:visible;"/>
	</clipPath>
	<circle class="st0" cx="36" cy="36.1" r="36.1"/>
	<linearGradient id="SVGID_3_" gradientUnits="userSpaceOnUse" x1="80.1272" y1="89.0093" x2="19.1054" y2="16.2863">
		<stop  offset="0" style="stop-color:#FFFFFF;stop-opacity:0"/>
		<stop  offset="9.962707e-02" style="stop-color:#DBDBDB;stop-opacity:0.1064"/>
		<stop  offset="0.2379" style="stop-color:#AFAFB0;stop-opacity:0.2541"/>
		<stop  offset="0.3781" style="stop-color:#8A8B8C;stop-opacity:0.4038"/>
		<stop  offset="0.518" style="stop-color:#6E6F71;stop-opacity:0.5533"/>
		<stop  offset="0.6577" style="stop-color:#5A5B5D;stop-opacity:0.7025"/>
		<stop  offset="0.7971" style="stop-color:#4E4F51;stop-opacity:0.8514"/>
		<stop  offset="0.9362" style="stop-color:#4A4B4D"/>
	</linearGradient>
	<path class="st1" d="M89.4,59.1V59V59.1l-0.1-0.2l-0.1,0v-0.1l-0.1,0v-0.1l-0.1,0v-0.1l-0.1,0v-0.1l-0.1,0v-0.1l-0.1,0v-0.1l-0.1,0
		v-0.1l-0.1,0v-0.1l-0.1,0v-0.1l-0.1,0v-0.1l-0.1,0v-0.1l-0.1,0v-0.1l-0.1,0V58l-0.1,0V58l-0.1,0v-0.1l-0.1,0v-0.1l-0.1,0v-0.1
		l-0.1,0v-0.1l-0.1,0v-0.1l-0.1,0v-0.1l-0.1,0v-0.1l-0.1,0v-0.1l-0.1,0v-0.1l-0.1,0v-0.1l-0.1,0v-0.1l-0.1,0v-0.1l-0.1,0v-0.1
		l-0.1,0V57l-0.1,0V57l-0.1,0v-0.1l-0.1,0v-0.1l-0.1,0v-0.1l-0.1,0v-0.1l-0.1,0v-0.1l-0.1,0v-0.1l-0.1,0v-0.1l-0.1,0v-0.1l-0.1,0
		v-0.1l-0.1,0v-0.1l-0.1,0v-0.1l-0.1,0v-0.1l-0.1,0v-0.1l-0.1,0V56l-0.1,0V56l-0.1,0v-0.1l-0.1,0v-0.1l-0.1,0v-0.1l-0.1,0v-0.1
		l-0.1,0v-0.1l-0.1,0v-0.1l-0.1,0v-0.1l-0.1,0v-0.1l-0.1,0v-0.1l-0.1,0v-0.1l-0.1,0v-0.1l-0.1,0v-0.1l-0.1,0v-0.1l-0.1,0V55l-0.1,0
		v-0.1l-0.1,0v-0.1l-0.1,0v-0.1l-0.1,0v-0.1l-0.1,0v-0.1l-0.1,0v-0.1l-0.1,0v-0.1l-0.1,0v-0.1l-0.1,0v-0.1l-0.1,0v-0.1l-0.1,0v-0.1
		l-0.1,0v-0.1l-0.1,0v-0.1l-0.1,0v-0.1l-0.1,0V54l-0.1,0v-0.1l-0.1,0v-0.1l-0.1,0v-0.1l-0.1,0v-0.1l-0.1,0v-0.1l-0.1,0v-0.1l-0.1,0
		v-0.1l-0.1,0v-0.1l-0.1,0v-0.1l-0.1,0v-0.1l-0.1,0v-0.1l-0.1,0v-0.1l-0.1,0v-0.1l-0.1,0v-0.1l-0.1,0V53l-0.1,0v-0.1l-0.1,0v-0.1
		l-0.1,0v-0.1l-0.1,0v-0.1l-0.1,0v-0.1l-0.1,0v-0.1l-0.1,0v-0.1l-0.1,0v-0.1l-0.1,0v-0.1l-0.1,0v-0.1l-0.1,0v-0.1l-0.1,0v-0.1
		l-0.1,0v-0.1l-0.1,0V52l-0.1,0V52l-0.1,0v-0.1l-0.1,0v-0.1l-0.1,0v-0.1l-0.1,0v-0.1l-0.1,0v-0.1l-0.1,0v-0.1l-0.1,0v-0.1l-0.1,0
		v-0.1l-0.1,0v-0.1l-0.1,0v-0.1l-0.1,0v-0.1l-0.1,0v-0.1l-0.1,0v-0.1l-0.1,0V51l-0.1,0V51l-0.1,0v-0.1l-0.1,0v-0.1l-0.1,0v-0.1
		l-0.1,0v-0.1l-0.1,0v-0.1l-0.1,0v-0.1l-0.1,0v-0.1l-0.1,0v-0.1l-0.1,0v-0.1l-0.1,0v-0.1l-0.1,0v-0.1l-0.1,0v-0.1l-0.1,0v-0.1
		l-0.1,0V50l-0.1,0V50l-0.1,0v-0.1l-0.1,0v-0.1l-0.1,0v-0.1l-0.1,0v-0.1l-0.1,0v-0.1l-0.1,0v-0.1l-0.1,0v-0.1l-0.1,0v-0.1l-0.1,0
		v-0.1l-0.1,0v-0.1l-0.1,0v-0.1l-0.1,0v-0.1l-0.1,0v-0.1l-0.1,0V49l-0.1,0v-0.1l-0.1,0v-0.1l-0.1,0v-0.1l-0.1,0v-0.1l-0.1,0v-0.1
		l-0.1,0v-0.1l-0.1,0v-0.1l-0.1,0v-0.1l-0.1,0v-0.1l-0.1,0v-0.1l-0.1,0v-0.1l-0.1,0v-0.1l-0.1,0v-0.1l-0.1,0v-0.1l-0.1,0V48l-0.1,0
		v-0.1l-0.1,0v-0.1l-0.1,0v-0.1l-0.1,0v-0.1l-0.1,0v-0.1l-0.1,0v-0.1l-0.1,0v-0.1l-0.1,0v-0.1l-0.1,0v-0.1l-0.1,0v-0.1l-0.1,0v-0.1
		l-0.1,0v-0.1l0,0c0,0,0-0.1,0-0.1v0l0,0c-0.4-1.6-1.3-3.1-2.5-4.3c0,0,0,0-0.1-0.1c0,0,0,0-0.1-0.1c0,0,0,0-0.1-0.1
		c0,0,0,0-0.1-0.1c0,0,0,0-0.1-0.1c0,0,0,0-0.1-0.1c0,0,0,0-0.1-0.1c0,0,0,0-0.1-0.1c0,0,0,0-0.1-0.1c0,0,0,0-0.1-0.1
		c0,0,0,0-0.1-0.1c0,0,0,0-0.1-0.1c0,0,0,0-0.1-0.1c0,0,0,0-0.1-0.1c0,0,0,0-0.1-0.1c0,0,0,0-0.1-0.1c0,0,0,0-0.1-0.1
		c0,0,0,0-0.1-0.1c0,0,0,0-0.1-0.1c0,0,0,0-0.1-0.1c0,0,0,0-0.1-0.1c0,0,0,0-0.1-0.1c0,0,0,0-0.1-0.1c0,0,0,0-0.1-0.1
		c0,0,0,0-0.1-0.1c0,0,0,0-0.1-0.1c0,0,0,0-0.1-0.1c0,0,0,0-0.1-0.1c0,0,0,0-0.1-0.1c0,0,0,0-0.1-0.1c0,0,0,0-0.1-0.1
		c0,0,0,0-0.1-0.1c0,0,0,0-0.1-0.1c0,0,0,0-0.1-0.1c0,0,0,0-0.1-0.1c0,0,0,0-0.1-0.1c0,0,0,0-0.1-0.1c0,0,0,0-0.1-0.1
		c0,0,0,0-0.1-0.1c0,0,0,0-0.1-0.1c0,0,0,0-0.1-0.1c0,0,0,0-0.1-0.1c0,0,0,0-0.1-0.1c0,0,0,0-0.1-0.1c0,0,0,0-0.1-0.1
		c0,0,0,0-0.1-0.1c0,0,0,0-0.1-0.1c0,0,0,0-0.1-0.1c0,0,0,0-0.1-0.1c0,0,0,0-0.1-0.1c0,0,0,0-0.1-0.1c0,0,0,0-0.1-0.1
		c0,0,0,0-0.1-0.1c0,0,0,0-0.1-0.1c0,0,0,0-0.1-0.1c0,0,0,0-0.1-0.1c0,0,0,0-0.1-0.1c0,0,0,0-0.1-0.1c0,0,0,0-0.1-0.1
		c0,0,0,0-0.1-0.1c0,0,0,0-0.1-0.1c0,0,0,0-0.1-0.1c0,0,0,0-0.1-0.1c0,0,0,0-0.1-0.1c0,0,0,0-0.1-0.1c0,0,0,0-0.1-0.1
		c0,0,0,0-0.1-0.1c0,0,0,0-0.1-0.1c0,0,0,0-0.1-0.1c0,0,0,0-0.1-0.1c0,0,0,0-0.1-0.1c0,0,0,0-0.1-0.1c0,0,0,0-0.1-0.1
		c0,0,0,0-0.1-0.1c0,0,0,0-0.1-0.1c0,0,0,0-0.1-0.1c0,0,0,0-0.1-0.1c0,0,0,0-0.1-0.1c0,0,0,0-0.1-0.1c0,0,0,0-0.1-0.1
		c0,0,0,0-0.1-0.1c0,0,0,0-0.1-0.1c0,0,0,0-0.1-0.1c0,0,0,0-0.1-0.1c0,0,0,0-0.1-0.1c0,0,0,0-0.1-0.1c0,0,0,0-0.1-0.1
		c0,0,0,0-0.1-0.1c0,0,0,0-0.1-0.1c0,0,0,0-0.1-0.1c0,0,0,0-0.1-0.1c0,0,0,0-0.1-0.1c0,0,0,0-0.1-0.1c0,0,0,0-0.1-0.1
		c0,0,0,0-0.1-0.1c0,0,0,0-0.1-0.1c0,0,0,0-0.1-0.1c0,0,0,0-0.1-0.1c0,0,0,0-0.1-0.1c0,0,0,0-0.1-0.1c0,0,0,0-0.1-0.1
		c0,0,0,0-0.1-0.1c0,0,0,0-0.1-0.1c0,0,0,0-0.1-0.1c0,0,0,0-0.1-0.1c0,0,0,0-0.1-0.1c0,0,0,0-0.1-0.1c0,0,0,0-0.1-0.1
		c0,0,0,0-0.1-0.1c0,0,0,0-0.1-0.1c0,0,0,0-0.1-0.1c0,0,0,0-0.1-0.1c0,0,0,0-0.1-0.1c0,0,0,0-0.1-0.1c0,0,0,0-0.1-0.1
		c0,0,0,0-0.1-0.1c0,0,0,0-0.1-0.1c0,0,0,0-0.1-0.1c0,0,0,0-0.1-0.1c0,0,0,0-0.1-0.1c0,0,0,0-0.1-0.1c0,0,0,0-0.1-0.1
		c0,0,0,0-0.1-0.1c0,0,0,0-0.1-0.1c0,0,0,0-0.1-0.1c0,0,0,0-0.1-0.1c0,0,0,0-0.1-0.1c0,0,0,0-0.1-0.1c0,0,0,0-0.1-0.1
		c0,0,0,0-0.1-0.1c0,0,0,0-0.1-0.1c0,0,0,0-0.1-0.1c0,0,0,0-0.1-0.1c0,0,0,0-0.1-0.1c0,0,0,0-0.1-0.1c0,0,0,0-0.1-0.1
		c0,0,0,0-0.1-0.1c0,0,0,0-0.1-0.1c0,0,0,0-0.1-0.1c0,0,0,0-0.1-0.1c0,0,0,0-0.1-0.1c0,0,0,0-0.1-0.1c0,0,0,0-0.1-0.1
		c0,0,0,0-0.1-0.1c0,0,0,0-0.1-0.1c0,0,0,0-0.1-0.1c0,0,0,0-0.1-0.1c0,0,0,0-0.1-0.1c0,0,0,0-0.1-0.1c0,0,0,0-0.1-0.1
		c0,0,0,0-0.1-0.1c0,0,0,0-0.1-0.1c0,0,0,0-0.1-0.1c0,0,0,0-0.1-0.1c0,0,0,0-0.1-0.1c0,0,0,0-0.1-0.1c0,0,0,0-0.1-0.1
		c0,0,0,0-0.1-0.1c0,0,0,0-0.1-0.1c0,0,0,0-0.1-0.1c0,0,0,0-0.1-0.1c0,0,0,0-0.1-0.1c0,0,0,0-0.1-0.1c0,0,0,0-0.1-0.1
		c0,0,0,0-0.1-0.1c0,0,0,0-0.1-0.1c0,0,0,0-0.1-0.1c0,0,0,0-0.1-0.1c0,0,0,0-0.1-0.1c0,0,0,0-0.1-0.1c0,0,0,0-0.1-0.1
		c0,0,0,0-0.1-0.1c0,0,0,0-0.1-0.1c0,0,0,0-0.1-0.1c0,0,0,0-0.1-0.1c0,0,0,0-0.1-0.1c0,0,0,0-0.1-0.1c0,0,0,0-0.1-0.1
		c0,0,0,0-0.1-0.1c0,0,0,0-0.1-0.1c0,0,0,0-0.1-0.1c0,0,0,0-0.1-0.1c0,0,0,0-0.1-0.1c0,0,0,0-0.1-0.1c0,0,0,0-0.1-0.1
		c0,0,0,0-0.1-0.1c0,0,0,0-0.1-0.1c0,0,0,0-0.1-0.1c0,0,0,0-0.1-0.1c0,0,0,0-0.1-0.1c0,0,0,0-0.1-0.1c0,0,0,0-0.1-0.1
		c0,0,0,0-0.1-0.1c0,0,0,0-0.1-0.1c0,0,0,0-0.1-0.1c0,0,0,0-0.1-0.1c0,0,0,0-0.1-0.1c0,0,0,0-0.1-0.1c0,0,0,0-0.1-0.1
		c0,0,0,0-0.1-0.1c0,0,0,0-0.1-0.1c0,0,0,0-0.1-0.1c0,0,0,0-0.1-0.1c0,0,0,0-0.1-0.1c0,0,0,0-0.1-0.1c0,0,0,0-0.1-0.1
		c0,0,0,0-0.1-0.1c0,0,0,0-0.1-0.1c0,0,0,0-0.1-0.1c0,0,0,0-0.1-0.1c0,0,0,0-0.1-0.1c0,0,0,0-0.1-0.1c0,0,0,0-0.1-0.1
		c0,0,0,0-0.1-0.1c0,0,0,0-0.1-0.1c0,0,0,0-0.1-0.1c0,0,0,0-0.1-0.1c0,0,0,0-0.1-0.1c0,0,0,0-0.1-0.1c0,0,0,0-0.1-0.1
		c0,0,0,0-0.1-0.1c0,0,0,0-0.1-0.1c0,0,0,0-0.1-0.1c0,0,0,0-0.1-0.1c0,0,0,0-0.1-0.1c0,0,0,0-0.1-0.1c0,0,0,0-0.1-0.1
		c0,0,0,0-0.1-0.1c0,0,0,0-0.1-0.1c0,0,0,0-0.1-0.1c0,0,0,0-0.1-0.1c0,0,0,0-0.1-0.1c0,0,0,0-0.1-0.1c0,0,0,0-0.1-0.1
		c0,0,0,0-0.1-0.1c0,0,0,0-0.1-0.1c0,0,0,0-0.1-0.1c0,0,0,0-0.1-0.1c0,0,0,0-0.1-0.1c0,0,0,0-0.1-0.1c0,0,0,0-0.1-0.1
		c0,0,0,0-0.1-0.1c0,0,0,0-0.1-0.1c0,0,0,0-0.1-0.1c0,0,0,0-0.1-0.1c0,0,0,0-0.1-0.1c0,0,0,0-0.1-0.1c0,0,0,0-0.1-0.1
		c0,0,0,0-0.1-0.1c0,0,0,0-0.1-0.1c0,0,0,0-0.1-0.1c0,0,0,0-0.1-0.1c0,0,0,0-0.1-0.1c0,0,0,0-0.1-0.1c0,0,0,0-0.1-0.1
		c0,0,0,0-0.1-0.1c0,0,0,0-0.1-0.1c0,0,0,0-0.1-0.1c0,0,0,0-0.1-0.1c0,0,0,0-0.1-0.1c0,0,0,0-0.1-0.1c0,0,0,0-0.1-0.1
		c0,0,0,0-0.1-0.1c0,0,0,0-0.1-0.1c0,0,0,0-0.1-0.1c0,0,0,0-0.1-0.1c0,0,0,0-0.1-0.1c0,0,0,0-0.1-0.1c0,0,0,0-0.1-0.1
		c0,0,0,0-0.1-0.1c0,0,0,0-0.1-0.1c0,0,0,0-0.1-0.1c0,0,0,0-0.1-0.1c0,0,0,0-0.1-0.1c0,0,0,0-0.1-0.1c0,0,0,0-0.1-0.1
		c0,0,0,0-0.1-0.1c0,0,0,0-0.1-0.1c0,0,0,0-0.1-0.1c0,0,0,0-0.1-0.1c0,0,0,0-0.1-0.1c0,0,0,0-0.1-0.1c0,0,0,0-0.1-0.1
		c0,0,0,0-0.1-0.1c0,0,0,0-0.1-0.1c0,0,0,0-0.1-0.1c0,0,0,0-0.1-0.1c0,0,0,0-0.1-0.1c0,0,0,0-0.1-0.1c0,0,0,0-0.1-0.1
		c0,0,0,0-0.1-0.1c0,0,0,0-0.1-0.1c0,0,0,0-0.1-0.1c0,0,0,0-0.1-0.1c0,0,0,0-0.1-0.1c0,0,0,0-0.1-0.1c0,0,0,0-0.1-0.1
		c0,0,0,0-0.1-0.1c0,0,0,0-0.1-0.1c0,0,0,0-0.1-0.1c0,0,0,0-0.1-0.1c0,0,0,0-0.1-0.1c0,0,0,0-0.1-0.1c0,0,0,0-0.1-0.1
		c0,0,0,0-0.1-0.1c0,0,0,0-0.1-0.1c0,0,0,0-0.1-0.1c0,0,0,0-0.1-0.1c0,0,0,0-0.1-0.1c0,0,0,0-0.1-0.1c0,0,0,0-0.1-0.1
		c0,0,0,0-0.1-0.1c0,0,0,0-0.1-0.1c0,0,0,0-0.1-0.1c0,0,0,0-0.1-0.1c0,0,0,0-0.1-0.1c0,0,0,0-0.1-0.1c0,0,0,0-0.1-0.1
		c0,0,0,0-0.1-0.1c0,0,0,0-0.1-0.1c0,0,0,0-0.1-0.1c0,0,0,0-0.1-0.1c0,0,0,0-0.1-0.1c0,0,0,0-0.1-0.1c0,0,0,0-0.1-0.1
		c0,0,0,0-0.1-0.1c0,0,0,0-0.1-0.1c0,0,0,0-0.1-0.1c0,0,0,0-0.1-0.1c0,0,0,0-0.1-0.1c0,0,0,0-0.1-0.1c0,0,0,0-0.1-0.1
		c0,0,0,0-0.1-0.1c0,0,0,0-0.1-0.1c0,0,0,0-0.1-0.1c0,0,0,0-0.1-0.1c0,0,0,0-0.1-0.1c0,0,0,0-0.1-0.1c0,0,0,0-0.1-0.1
		c0,0,0,0-0.1-0.1c0,0,0,0-0.1-0.1c0,0,0,0-0.1-0.1c0,0,0,0-0.1-0.1c0,0,0,0-0.1-0.1c0,0,0,0-0.1-0.1c0,0,0,0-0.1-0.1
		c0,0,0,0-0.1-0.1c0,0,0,0-0.1-0.1c0,0,0,0-0.1-0.1c0,0,0,0-0.1-0.1c0,0,0,0-0.1-0.1c0,0,0,0-0.1-0.1c0,0,0,0-0.1-0.1
		c0,0,0,0-0.1-0.1c0,0,0,0-0.1-0.1c0,0,0,0-0.1-0.1c0,0,0,0-0.1-0.1c0,0,0,0-0.1-0.1c0,0,0,0-0.1-0.1c0,0,0,0-0.1-0.1
		c0,0,0,0-0.1-0.1c0,0,0,0-0.1-0.1c0,0,0,0-0.1-0.1c0,0,0,0-0.1-0.1c0,0,0,0-0.1-0.1c0,0,0,0-0.1-0.1c0,0,0,0-0.1-0.1
		c0,0,0,0-0.1-0.1c0,0,0,0-0.1-0.1c0,0,0,0-0.1-0.1c0,0,0,0-0.1-0.1c0,0,0,0-0.1-0.1c0,0,0,0-0.1-0.1c0,0,0,0-0.1-0.1
		c0,0,0,0-0.1-0.1c0,0,0,0-0.1-0.1c0,0,0,0-0.1-0.1c0,0,0,0-0.1-0.1c0,0,0,0-0.1-0.1c0,0,0,0-0.1-0.1c0,0,0,0-0.1-0.1
		c0,0,0,0-0.1-0.1c0,0,0,0-0.1-0.1c0,0,0,0-0.1-0.1c0,0,0,0-0.1-0.1c0,0,0,0-0.1-0.1c0,0,0,0-0.1-0.1c0,0,0,0-0.1-0.1
		c0,0,0,0-0.1-0.1c0,0,0,0-0.1-0.1c0,0,0,0-0.1-0.1c0,0,0,0-0.1-0.1c0,0,0,0-0.1-0.1c0,0,0,0-0.1-0.1c0,0,0,0-0.1-0.1
		c0,0,0,0-0.1-0.1c0,0,0,0-0.1-0.1c0,0,0,0-0.1-0.1c0,0,0,0-0.1-0.1c0,0,0,0-0.1-0.1c-1.7-1.7-4.1-2.8-6.8-2.8
		c-5.3,0-9.5,4.3-9.5,9.5c0,0.7,0.1,1.3,0.2,1.9c0,0,0,0-0.1-0.1c0,0,0,0-0.1-0.1c0,0,0,0-0.1-0.1c0,0,0,0-0.1-0.1c0,0,0,0-0.1-0.1
		c0,0,0,0-0.1-0.1c0,0,0,0-0.1-0.1c0,0,0,0-0.1-0.1c0,0,0,0-0.1-0.1c0,0,0,0-0.1-0.1c0,0,0,0-0.1-0.1c0,0,0,0-0.1-0.1
		c0,0,0,0-0.1-0.1c0,0,0,0-0.1-0.1c0,0,0,0-0.1-0.1c0,0,0,0-0.1-0.1c0,0,0,0-0.1-0.1c0,0,0,0-0.1-0.1c0,0,0,0-0.1-0.1
		c0,0,0,0-0.1-0.1c0,0,0,0-0.1-0.1c0,0,0,0-0.1-0.1c0,0,0,0-0.1-0.1c0,0,0,0-0.1-0.1c0,0,0,0-0.1-0.1c0,0,0,0-0.1-0.1
		c0,0,0,0-0.1-0.1c0,0,0,0-0.1-0.1c0,0,0,0-0.1-0.1c0,0,0,0-0.1-0.1c0,0,0,0-0.1-0.1c0,0,0,0-0.1-0.1c0,0,0,0-0.1-0.1
		c0,0,0,0-0.1-0.1c0,0,0,0-0.1-0.1c0,0,0,0-0.1-0.1c0,0,0,0-0.1-0.1c0,0,0,0-0.1-0.1c0,0,0,0-0.1-0.1c0,0,0,0-0.1-0.1
		c0,0,0,0-0.1-0.1c0,0,0,0-0.1-0.1c0,0,0,0-0.1-0.1c0,0,0,0-0.1-0.1c0,0,0,0-0.1-0.1c0,0,0,0-0.1-0.1c0,0,0,0-0.1-0.1
		c0,0,0,0-0.1-0.1c0,0,0,0-0.1-0.1c0,0,0,0-0.1-0.1c0,0,0,0-0.1-0.1c0,0,0,0-0.1-0.1c0,0,0,0-0.1-0.1c0,0,0,0-0.1-0.1
		c0,0,0,0-0.1-0.1c0,0,0,0-0.1-0.1c0,0,0,0-0.1-0.1c0,0,0,0-0.1-0.1c0,0,0,0-0.1-0.1c0,0,0,0-0.1-0.1c0,0,0,0-0.1-0.1
		c0,0,0,0-0.1-0.1c0,0,0,0-0.1-0.1c0,0,0,0-0.1-0.1c0,0,0,0-0.1-0.1c0,0,0,0-0.1-0.1c0,0,0,0-0.1-0.1c0,0,0,0-0.1-0.1
		c0,0,0,0-0.1-0.1c0,0,0,0-0.1-0.1c0,0,0,0-0.1-0.1c0,0,0,0-0.1-0.1c0,0,0,0-0.1-0.1c0,0,0,0-0.1-0.1c0,0,0,0-0.1-0.1
		c0,0,0,0-0.1-0.1c0,0,0,0-0.1-0.1c0,0,0,0-0.1-0.1c0,0,0,0-0.1-0.1c-1.4-1.4-3.3-2.3-5.4-2.3c-4.2,0-7.6,3.4-7.6,7.6
		c0,2.1,0.9,4,2.3,5.4c0,0,0,0,0.1,0.1c0,0,0,0,0.1,0.1c0,0,0,0,0.1,0.1c0,0,0,0,0.1,0.1c0,0,0,0,0.1,0.1c0,0,0,0,0.1,0.1
		c0,0,0,0,0.1,0.1c0,0,0,0,0.1,0.1c0,0,0,0,0.1,0.1c0,0,0,0,0.1,0.1c0,0,0,0,0.1,0.1c0,0,0,0,0.1,0.1c0,0,0,0,0.1,0.1
		c0,0,0,0,0.1,0.1c0,0,0,0,0.1,0.1c0,0,0,0,0.1,0.1c0,0,0,0,0.1,0.1c0,0,0,0,0.1,0.1c0,0,0,0,0.1,0.1c0,0,0,0,0.1,0.1
		c0,0,0,0,0.1,0.1c0,0,0,0,0.1,0.1c0,0,0,0,0.1,0.1c0,0,0,0,0.1,0.1c0,0,0,0,0.1,0.1c0,0,0,0,0.1,0.1c0,0,0,0,0.1,0.1
		c0,0,0,0,0.1,0.1c0,0,0,0,0.1,0.1c0,0,0,0,0.1,0.1c0,0,0,0,0.1,0.1c0,0,0,0,0.1,0.1c0,0,0,0,0.1,0.1c0,0,0,0,0.1,0.1
		c0,0,0,0,0.1,0.1c0,0,0,0,0.1,0.1c0,0,0,0,0.1,0.1c0,0,0,0,0.1,0.1c0,0,0,0,0.1,0.1c0,0,0,0,0.1,0.1c0,0,0,0,0.1,0.1
		c0,0,0,0,0.1,0.1c0,0,0,0,0.1,0.1c0,0,0,0,0.1,0.1c0,0,0,0,0.1,0.1c0,0,0,0,0.1,0.1c0,0,0,0,0.1,0.1c0,0,0,0,0.1,0.1
		c0,0,0,0,0.1,0.1c0,0,0,0,0.1,0.1c0,0,0,0,0.1,0.1c0,0,0,0,0.1,0.1c0,0,0,0,0.1,0.1c0,0,0,0,0.1,0.1c0,0,0,0,0.1,0.1
		c0,0,0,0,0.1,0.1c0,0,0,0,0.1,0.1c0,0,0,0,0.1,0.1c0,0,0,0,0.1,0.1c0,0,0,0,0.1,0.1c0,0,0,0,0.1,0.1c0,0,0,0,0,0h-5.3v18.1h0.1v0.1
		h0.1v0.1h0.1v0.1H15v0.1H15v0.1h0.1v0.1h0.1v0.1h0.1v0.1h0.1v0.1h0.1v0.1h0.1v0.1h0.1v0.1h0.1V53h0.1V53h0.1v0.1h0.1v0.1h0.1v0.1
		h0.1v0.1H16v0.1H16v0.1h0.1v0.1h0.1v0.1h0.1v0.1h0.1v0.1h0.1v0.1h0.1v0.1h0.1v0.1h0.1V54h0.1v0.1h0.1v0.1h0.1v0.1h0.1v0.1h0.1v0.1
		H17v0.1h0.1v0.1h0.1v0.1h0.1v0.1h0.1v0.1h0.1v0.1h0.1v0.1h0.1v0.1h0.1v0.1h0.1V55h0.1v0.1h0.1v0.1h0.1v0.1h0.1v0.1h0.1v0.1H18v0.1
		h0.1v0.1h0.1v0.1h0.1v0.1h0.1v0.1h0.1v0.1h0.1v0.1h0.1v0.1h0.1v0.1h0.1V56h0.1v0.1h0.1v0.1h0.1v0.1h0.1v0.1h0.1v0.1H19v0.1h0.1v0.1
		h0.1v0.1h0.1v0.1h0.1v0.1h0.1v0.1h0.1v0.1h0.1v0.1h0.1V57h0.1V57h0.1v0.1h0.1v0.1h0.1v0.1h0.1v0.1H20v0.1H20v0.1h0.1v0.1h0.1v0.1
		h0.1v0.1h0.1v0.1h0.1v0.1h0.1v0.1h0.1v0.1h0.1V58h0.1V58h0.1v0.1h0.1v0.1h0.1v0.1h0.1v0.1H21v0.1H21v0.1h0.1v0.1h0.1v0.1h0.1v0.1
		h0.1v0.1h0.1v0.1h0.1v0.1h0.1v0.1h0.1V59h0.1V59h0.1v0.1h0.1v0.1h0.1v0.1h0.1v0.1H22v0.1H22v0.1h0.1v0.1h0.1v0.1h0.1v0.1h0.1v0.1
		h0.1v0.1h0.1v0.1h0.1v0.1h0.1V60h0.1v0.1h0.1v0.1h0.1v0.1h0.1v0.1h0.1v0.1H23v0.1h0.1v0.1h0.1v0.1h0.1v0.1h0.1v0.1h0.1v0.1h0.1v0.1
		h0.1v0.1h0.1v0.1h0.1V61h0.1v0.1h0.1v0.1h0.1v0.1h0.1v0.1h0.1v0.1H24v0.1h0.1v0.1h0.1v0.1h0.1v0.1h0.1v0.1h0.1v0.1h0.1v0.1h0.1v0.1
		h0.1v0.1h0.1V62h0.1v0.1h0.1v0.1h0.1v0.1h0.1v0.1h0.1v0.1H25v0.1h0.1v0.1h0.1v0.1h0.1v0.1h0.1v0.1h0.1v0.1h0.1v0.1h0.1v0.1h0.1V63
		h0.1V63h0.1v0.1h0.1v0.1h0.1v0.1h0.1v0.1H26v0.1H26v0.1h0.1v0.1h0.1v0.1h0.1v0.1h0.1v0.1h0.1v0.1h0.1v0.1h0.1v0.1h0.1V64h0.1V64
		h0.1v0.1h0.1v0.1h0.1v0.1h0.1v0.1H27v0.1H27v0.1h0.1v0.1h0.1v0.1h0.1v0.1h0.1v0.1h0.1v0.1h0.1v0.1h0.1v0.1h0.1V65h0.1v0.1h0.1v0.1
		h0.1v0.1h0.1v0.1h0.1v0.1H28v0.1h0.1v0.1h0.1v0.1h0.1v0.1h0.1v0.1h0.1v0.1h0.1v0.1h0.1v0.1h0.1v0.1h0.1V66h0.1v0.1h0.1v0.1h0.1v0.1
		h0.1v0.1h0.1v0.1H29v0.1h0.1v0.1h0.1v0.1h0.1v0.1h0.1v0.1h0.1v0.1h0.1v0.1h0.1v0.1h0.1v0.1h0.1V67h0.1v0.1h0.1v0.1h0.1v0.1h0.1v0.1
		h0.1v0.1H30v0.1h0.1v0.1h0.1v0.1h0.1v0.1h0.1v0.1h0.1v0.1h0.1v0.1h0.1v0.1h0.1V68h0.1V68h0.1v0.1h0.1v0.1h0.1v0.1h0.1v0.1H31v0.1
		H31v0.1h0.1v0.1h0.1v0.1h0.1v0.1h0.1v0.1h0.1v0.1h0.1v0.1h0.1v0.1h0.1V69h0.1V69h0.1v0.1h0.1v0.1h0.1v0.1h0.1v0.1H32v0.1H32v0.1
		h0.1v0.1h0.1v0.1h0.1v0.1h0.1v0.1h0.1v0.1h0.1v0.1h0.1v0.1h0.1V70h0.1V70h0.1v0.1h0.1v0.1h0.1v0.1h0.1v0.1H33v0.1H33v0.1h0.1v0.1
		h0.1v0.1h0.1v0.1h0.1v0.1h0.1v0.1h0.1v0.1h0.1v0.1h0.1V71h0.1v0.1h0.1v0.1h0.1v0.1h0.1v0.1h0.1v0.1H34v0.1h0.1v0.1h0.1v0.1h0.1v0.1
		h0.1v0.1h0.1v0.1h0.1v0.1h0.1v0.1h0.1v0.1h0.1V72h0.1v0.1h0.1v0.1h0.1v0.1h0.1v0.1h0.1v0.1H35v0.1h0.1v0.1h0.1v0.1h0.1v0.1h0.1v0.1
		h0.1v0.1h0.1v0.1h0.1v0.1h0.1v0.1h0.1V73h0.1v0.1h0.1v0.1h0.1v0.1h0.1v0.1h0.1v0.1H36v0.1h0.1v0.1h0.1v0.1h0.1v0.1h0.1v0.1h0.1v0.1
		h0.1v0.1h0.1v0.1h0.1V74h0.1V74h0.1v0.1h0.1v0.1h0.1v0.1h0.1v0.1H37v0.1H37v0.1h0.1v0.1h0.1v0.1h0.1v0.1h0.1v0.1h0.1v0.1h0.1v0.1
		h0.1v0.1h0.1V75h0.1V75h0.1v0.1h0.1v0.1h0.1v0.1h0.1v0.1H38v0.1H38v0.1h0.1v0.1h0.1v0.1h0.1v0.1h0.1v0.1h0.1v0.1h0.1v0.1h0.1v0.1
		h0.1V76h0.1V76h0.1v0.1h0.1v0.1h0.1v0.1h0.1v0.1H39v0.1h0.1v0.1h0.1v0.1h0.1v0.1h0.1v0.1h0.1v0.1h0.1v0.1h0.1v0.1h0.1v0.1h0.1V77
		h0.1v0.1h0.1v0.1h0.1v0.1h0.1v0.1h0.1v0.1H40v0.1h0.1v0.1h0.1v0.1h0.1v0.1h0.1v0.1h0.1v0.1h0.1v0.1h0.1v0.1h0.1v0.1h0.1V78h0.1v0.1
		h0.1v0.1h0.1v0.1h0.1v0.1h0.1v0.1H41v0.1h0.1v0.1h0.1v0.1h0.1v0.1h0.1v0.1h0.1v0.1h0.1v0.1h0.1v0.1h0.1V79h0.1V79h0.1v0.1h0.1v0.1
		h34.1v-4.7v-2.1l0,0v0l0.1,0v0l0.1,0v0l0.1,0v0l0.1,0v0l0.1,0v0l0.1,0v0l0.1,0v0l0.1,0v0l0.1,0v0l0.1,0v0l0.1,0v0l0.1,0v0l0.1,0v0
		l0.1,0v0l0.1,0v0l0.1,0v0l0.1,0v0l0.1,0v0l0.1,0v0l0.1,0v0l0.1,0v0l0.1,0v0l0.1,0v0l0.1,0v0l0.1,0v0l0.1,0v0l0.1,0v0l0.1,0v0l0.1,0
		v0l0.1,0v0l11.6,6.7L89.4,59.1L89.4,59.1z"/>
	<polygon class="st2" points="62.4,32 50.8,38.7 50.8,47.4 62.4,54.1 	"/>
	<g style="clip-path:url(#SVGID_2_);">
		<circle class="st7" cx="21.2" cy="24.5" r="6.1"/>
		<circle class="st7" cx="41.3" cy="22.5" r="8.5"/>
		<path class="st8" d="M21.2,19.4c-2.8,0-5.1,2.3-5.1,5.1s2.3,5.1,5.1,5.1c2.8,0,5.1-2.3,5.1-5.1S24,19.4,21.2,19.4z"/>
		<path class="st8" d="M21.2,16.9c-4.2,0-7.6,3.4-7.6,7.6s3.4,7.6,7.6,7.6c4.2,0,7.6-3.4,7.6-7.6S25.4,16.9,21.2,16.9z M21.2,30.3
			c-3.2,0-5.8-2.6-5.8-5.8c0-3.2,2.6-5.8,5.8-5.8c3.2,0,5.8,2.6,5.8,5.8C27,27.7,24.4,30.3,21.2,30.3z"/>
		<path class="st8" d="M41.3,15.5c-3.9,0-7,3.1-7,7s3.1,7,7,7s7-3.1,7-7S45.1,15.5,41.3,15.5z"/>
		<path class="st8" d="M41.3,13c-5.3,0-9.5,4.3-9.5,9.5s4.3,9.5,9.5,9.5s9.5-4.3,9.5-9.5S46.5,13,41.3,13z M41.3,30.3
			c-4.3,0-7.7-3.5-7.7-7.7c0-4.3,3.5-7.7,7.7-7.7c4.3,0,7.7,3.5,7.7,7.7C49,26.8,45.5,30.3,41.3,30.3z"/>
	</g>
	<path class="st2" d="M14.7,34v18.1h34.1v-4.7v-8.7V34H14.7z M17.6,50.7c-0.5,0-0.9-0.4-0.9-0.9s0.4-0.9,0.9-0.9
		c0.5,0,0.9,0.4,0.9,0.9S18.2,50.7,17.6,50.7z"/>
</g>
</svg>
