<?xml version="1.0" encoding="utf-8"?>
<!-- Generator: Adobe Illustrator 19.1.0, SVG Export Plug-In . SVG Version: 6.00 Build 0)  -->
<svg version="1.1" id="Layer_1" xmlns="http://www.w3.org/2000/svg" xmlns:xlink="http://www.w3.org/1999/xlink" x="0px" y="0px"
	 width="72px" height="72px" viewBox="0 0 72 72" style="enable-background:new 0 0 72 72;" xml:space="preserve">
<style type="text/css">
	.st0{clip-path:url(#SVGID_2_);fill:#F58B69;}
	.st1{opacity:0.3;clip-path:url(#SVGID_2_);fill:url(#SVGID_3_);}
	.st2{clip-path:url(#SVGID_2_);fill:#3B3336;}
	.st3{clip-path:url(#SVGID_5_);fill:#F58B69;}
	.st4{opacity:0.3;clip-path:url(#SVGID_5_);fill:url(#SVGID_6_);}
	.st5{clip-path:url(#SVGID_5_);fill:#3B3336;}
	.st6{clip-path:url(#SVGID_5_);}
	.st7{fill:#F47D55;}
	.st8{fill:#3B3336;}
	.st9{clip-path:url(#SVGID_8_);fill:#F58B69;}
	.st10{opacity:0.3;clip-path:url(#SVGID_8_);fill:url(#SVGID_9_);}
	.st11{clip-path:url(#SVGID_8_);fill:#3B3336;}
	.st12{clip-path:url(#SVGID_8_);}
	.st13{clip-path:url(#SVGID_8_);fill:#F47D55;stroke:#F47D55;stroke-width:1.128;stroke-linecap:round;stroke-miterlimit:10;}
	.st14{clip-path:url(#SVGID_11_);fill:#F58B69;}
	.st15{opacity:0.3;clip-path:url(#SVGID_11_);fill:url(#SVGID_12_);}
	.st16{clip-path:url(#SVGID_11_);}
	.st17{clip-path:url(#SVGID_14_);fill:#F58B69;}
	.st18{opacity:0.3;clip-path:url(#SVGID_14_);fill:url(#SVGID_15_);}
	.st19{clip-path:url(#SVGID_14_);fill:#3B3336;}
	.st20{clip-path:url(#SVGID_14_);fill:none;stroke:#F47D55;stroke-width:1.2829;stroke-linecap:round;stroke-miterlimit:10;}
	.st21{clip-path:url(#SVGID_14_);fill:none;stroke:#F47D55;stroke-width:0.4943;stroke-linecap:round;stroke-miterlimit:10;}
	.st22{clip-path:url(#SVGID_14_);fill:#F47D55;}
	.st23{clip-path:url(#SVGID_14_);}
	.st24{clip-path:url(#SVGID_17_);fill:#F58B69;}
	.st25{opacity:0.3;clip-path:url(#SVGID_17_);fill:url(#SVGID_18_);}
	.st26{clip-path:url(#SVGID_17_);}
</style>
<g>
	<defs>
		<circle id="SVGID_1_" cx="36" cy="36" r="35.7"/>
	</defs>
	<clipPath id="SVGID_2_">
		<use xlink:href="#SVGID_1_"  style="overflow:visible;"/>
	</clipPath>
	<circle class="st0" cx="36" cy="36.3" r="35.7"/>
	<linearGradient id="SVGID_3_" gradientUnits="userSpaceOnUse" x1="78.0513" y1="73.2989" x2="17.959" y2="22.8754">
		<stop  offset="0" style="stop-color:#FFFFFF;stop-opacity:0"/>
		<stop  offset="9.962707e-02" style="stop-color:#DBDBDB;stop-opacity:0.1064"/>
		<stop  offset="0.2379" style="stop-color:#AFAFB0;stop-opacity:0.2541"/>
		<stop  offset="0.3781" style="stop-color:#8A8B8C;stop-opacity:0.4038"/>
		<stop  offset="0.518" style="stop-color:#6E6F71;stop-opacity:0.5533"/>
		<stop  offset="0.6577" style="stop-color:#5A5B5D;stop-opacity:0.7025"/>
		<stop  offset="0.7971" style="stop-color:#4E4F51;stop-opacity:0.8514"/>
		<stop  offset="0.9362" style="stop-color:#4A4B4D"/>
	</linearGradient>
	<polygon class="st1" points="71.9,39.3 71.9,39.3 71.8,39.3 71.8,39.2 71.8,39.2 71.8,39.2 71.7,39.2 71.7,39.1 71.7,39.1 71.7,39 
		71.6,39 71.6,39 71.5,39 71.5,38.9 71.5,38.9 71.5,38.9 71.4,38.9 71.4,38.8 71.4,38.8 71.4,38.7 71.3,38.7 71.3,38.7 71.2,38.7 
		71.2,38.6 71.2,38.6 71.2,38.6 71.1,38.6 71.1,38.5 71.1,38.5 71.1,38.4 71,38.4 71,38.4 70.9,38.4 70.9,38.3 70.9,38.3 70.9,38.3 
		70.8,38.3 70.8,38.2 70.8,38.2 70.8,38.1 70.7,38.1 70.7,38.1 70.6,38.1 70.6,38 70.6,38 70.6,38 70.5,38 70.5,37.9 70.5,37.9 
		70.5,37.9 70.4,37.9 70.4,37.8 70.4,37.8 70.4,37.7 70.3,37.7 70.3,37.7 70.2,37.7 70.2,37.6 70.2,37.6 70.2,37.6 70.1,37.6 
		70.1,37.5 70.1,37.5 70.1,37.4 70,37.4 70,37.4 69.9,37.4 69.9,37.3 69.9,37.3 69.9,37.3 69.8,37.3 69.8,37.2 69.8,37.2 69.8,37.1 
		69.7,37.1 69.7,37.1 69.6,37.1 69.6,37 69.6,37 69.6,37 69.5,37 69.5,36.9 69.5,36.9 69.5,36.8 69.4,36.8 69.4,36.8 69.3,36.8 
		69.3,36.7 69.3,36.7 69.3,36.7 69.2,36.7 69.2,36.6 69.2,36.6 69.2,36.5 69.1,36.5 69.1,36.5 69.1,36.5 69.1,36.4 69,36.4 69,36.4 
		68.9,36.4 68.9,36.3 68.9,36.3 68.9,36.3 68.8,36.3 68.8,36.2 68.8,36.2 68.8,36.1 68.7,36.1 68.7,36.1 68.6,36.1 68.6,36 68.6,36 
		68.6,36 68.5,36 68.5,35.9 68.5,35.9 68.5,35.8 68.4,35.8 68.4,35.8 68.3,35.8 68.3,35.7 68.3,35.7 68.3,35.7 68.2,35.7 68.2,35.6 
		68.2,35.6 68.2,35.5 68.1,35.5 68.1,35.5 68,35.5 68,35.4 68,35.4 68,35.4 67.9,35.4 67.9,35.3 67.9,35.3 67.9,35.2 67.8,35.2 
		67.8,35.2 67.7,35.2 67.7,35.1 67.7,35.1 67.7,35.1 67.6,35.1 67.6,35 67.6,35 67.6,35 67.5,35 67.5,34.9 67.5,34.9 67.5,34.8 
		67.4,34.8 67.4,34.8 67.3,34.8 67.3,34.7 67.3,34.7 67.3,34.7 67.2,34.7 67.2,34.6 67.2,34.6 67.2,34.5 67.1,34.5 67.1,34.5 
		67,34.5 67,34.4 67,34.4 67,34.4 66.9,34.4 66.9,34.3 66.9,34.3 66.9,34.2 66.8,34.2 66.8,34.2 66.7,34.2 66.7,34.1 66.7,34.1 
		66.7,34.1 66.6,34.1 66.6,34 66.6,34 66.6,33.9 66.5,33.9 66.5,33.9 66.4,33.9 66.4,33.8 66.4,33.8 66.4,33.8 66.3,33.8 66.3,33.7 
		66.3,33.7 66.3,33.6 66.2,33.6 66.2,33.6 66.2,33.6 66.2,33.5 66.1,33.5 66.1,33.5 66,33.5 66,33.4 66,33.4 66,33.4 65.9,33.4 
		65.9,33.3 65.9,33.3 65.9,33.2 65.8,33.2 65.8,33.2 65.7,33.2 65.7,33.1 65.7,33.1 65.7,33.1 65.6,33.1 65.6,33 65.6,33 65.6,32.9 
		65.5,32.9 65.5,32.9 65.4,32.9 65.4,32.8 65.4,32.8 65.4,32.8 65.3,32.8 65.3,32.7 65.3,32.7 65.3,32.6 65.2,32.6 65.2,32.6 
		65.1,32.6 65.1,32.5 65.1,32.5 65.1,32.5 65,32.5 65,32.4 65,32.4 65,32.3 64.9,32.3 64.9,32.3 64.8,32.3 64.8,32.2 64.8,32.2 
		64.8,32.2 64.7,32.2 64.7,32.1 64.7,32.1 64.7,32.1 64.6,32.1 64.6,32 64.6,32 64.6,31.9 64.5,31.9 64.5,31.9 64.4,31.9 64.4,31.8 
		64.4,31.8 64.4,31.8 64.3,31.8 64.3,31.7 64.3,31.7 64.3,31.6 64.2,31.6 64.2,31.6 64.1,31.6 64.1,31.5 64.1,31.5 64.1,31.5 
		64,31.5 64,31.4 64,31.4 64,31.3 63.9,31.3 63.9,31.3 63.8,31.3 63.8,31.2 63.8,31.2 63.8,31.2 63.7,31.2 63.7,31.1 63.7,31.1 
		63.7,31 63.6,31 63.6,31 63.5,31 63.5,30.9 63.5,30.9 63.5,30.9 63.4,30.9 63.4,30.8 63.4,30.8 63.4,30.8 63.3,30.8 63.3,30.7 
		63.3,30.7 63.3,30.6 63.2,30.6 63.2,30.6 63.1,30.6 63.1,30.5 63.1,30.5 63.1,30.5 63,30.5 63,30.4 63,30.4 63,30.3 62.9,30.3 
		62.9,30.3 62.8,30.3 62.8,30.2 62.8,30.2 62.8,30.2 62.7,30.2 62.7,30.1 62.7,30.1 62.7,30 62.6,30 62.6,30 62.5,30 62.5,29.9 
		62.5,29.9 62.5,29.9 62.4,29.9 62.4,29.8 62.4,29.8 62.4,29.7 62.3,29.7 62.3,29.7 62.2,29.7 62.2,29.6 62.2,29.6 62.2,29.6 
		62.1,29.6 62.1,29.5 62.1,29.5 62.1,29.4 62,29.4 62,29.4 61.9,29.4 61.9,29.3 61.9,29.3 61.9,29.3 61.8,29.3 61.8,29.2 61.8,29.2 
		61.8,29.2 61.7,29.2 61.7,29.1 61.7,29.1 61.7,29 61.6,29 61.6,29 61.5,29 61.5,28.9 61.5,28.9 61.5,28.9 61.4,28.9 61.4,28.8 
		61.4,28.8 61.4,28.7 61.3,28.7 61.3,28.7 61.2,28.7 61.2,28.6 61.2,28.6 61.2,28.6 61.1,28.6 61.1,28.5 61.1,28.5 61.1,28.4 
		61,28.4 61,28.4 60.9,28.4 60.9,28.3 60.9,28.3 60.9,28.3 60.8,28.3 60.8,28.2 60.8,28.2 60.8,28.1 60.7,28.1 60.7,28.1 60.6,28.1 
		60.6,28 60.6,28 60.6,28 60.5,28 60.5,27.9 60.5,27.9 60.5,27.9 60.4,27.9 60.4,27.8 60.4,27.8 60.4,27.7 60.3,27.7 60.3,27.7 
		60.2,27.7 60.2,27.6 60.2,27.6 60.2,27.6 60.1,27.6 60.1,27.5 60.1,27.5 60.1,27.4 60,27.4 60,27.4 59.9,27.4 59.9,27.3 59.9,27.3 
		59.9,27.3 59.8,27.3 59.8,27.2 59.8,27.2 59.8,27.1 59.7,27.1 59.7,27.1 59.6,27.1 59.6,27 59.6,27 59.6,27 59.5,27 59.5,26.9 
		59.5,26.9 59.5,26.8 59.4,26.8 59.4,26.8 59.3,26.8 59.3,26.7 59.3,26.7 59.3,26.7 59.2,26.7 59.2,26.6 59.2,26.6 59.2,26.5 
		59.1,26.5 59.1,26.5 59.1,26.5 59.1,26.4 59,26.4 59,26.4 58.9,26.4 58.9,26.3 58.9,26.3 58.9,26.3 58.8,26.3 58.8,26.2 58.8,26.2 
		58.8,26.1 58.7,26.1 58.7,26.1 58.6,26.1 58.6,26 58.6,26 58.6,26 58.5,26 58.5,25.9 58.5,25.9 58.5,25.8 58.4,25.8 58.4,25.8 
		58.3,25.8 58.3,25.7 58.3,25.7 58.3,25.7 58.2,25.7 58.2,25.6 58.2,25.6 58.2,25.5 58.1,25.5 58.1,25.5 58,25.5 58,25.4 58,25.4 
		58,25.4 57.9,25.4 57.9,25.3 57.9,25.3 57.9,25.2 57.8,25.2 57.8,25.2 57.7,25.2 57.7,25.1 57.7,25.1 57.7,25.1 57.6,25.1 57.6,25 
		57.6,25 57.6,25 57.5,25 57.5,24.9 57.5,24.9 57.5,24.8 57.4,24.8 57.4,24.8 57.3,24.8 57.3,24.7 57.3,24.7 57.3,24.7 57.2,24.7 
		57.2,24.6 57.2,24.6 57.2,24.5 57.1,24.5 57.1,24.5 57,24.5 57,24.4 57,24.4 57,24.4 56.9,24.4 56.9,24.3 56.9,24.3 56.9,24.2 
		56.8,24.2 56.8,24.2 56.7,24.2 56.7,24.1 56.7,24.1 56.7,24.1 56.6,24.1 56.6,24 56.6,24 56.6,23.9 56.5,23.9 56.5,23.9 56.4,23.9 
		56.4,23.8 56.4,23.8 56.4,23.8 56.3,23.8 56.3,23.7 56.3,23.7 56.3,23.7 56.2,23.7 56.2,23.6 56.2,23.6 56.2,23.5 56.1,23.5 
		56.1,23.5 56,23.5 56,23.4 56,23.4 56,23.4 55.9,23.4 55.9,23.3 55.9,23.3 55.9,23.2 55.8,23.2 55.8,23.2 55.7,23.2 55.7,23.1 
		55.7,23.1 55.7,23.1 55.6,23.1 55.6,23 55.6,23 55.6,22.9 55.5,22.9 55.5,22.9 55.4,22.9 55.4,22.8 55.4,22.8 55.4,22.8 55.3,22.8 
		55.3,22.7 55.3,22.7 55.3,22.6 55.2,22.6 55.2,22.6 55.1,22.6 55.1,22.5 55.1,22.5 55.1,22.5 55,22.5 55,22.4 55,22.4 55,22.3 
		54.9,22.3 54.9,22.3 54.8,22.3 54.8,22.2 54.8,22.2 54.8,22.2 54.7,22.2 54.7,22.1 54.7,22.1 54.7,22.1 54.6,22.1 54.6,22 54.6,22 
		54.6,21.9 54.5,21.9 54.5,21.9 54.4,21.9 54.4,21.8 54.4,21.8 54.4,21.8 54.3,21.8 54.3,21.7 54.3,21.7 54.3,21.6 54.2,21.6 
		54.2,21.6 54.1,21.6 54.1,21.5 54.1,21.5 54.1,21.5 54,21.5 54,21.4 54,21.4 54,21.3 53.9,21.3 53.9,21.3 53.8,21.3 53.8,21.2 
		53.8,21.2 53.8,21.2 53.7,21.2 53.7,21.1 53.7,21.1 53.7,21 53.6,21 53.6,21 53.5,21 53.5,20.9 53.5,20.9 53.5,20.9 53.4,20.9 
		53.4,20.8 53.4,20.8 53.4,20.8 53.3,20.8 53.3,20.7 53.3,20.7 53.3,20.6 53.2,20.6 53.2,20.6 53.1,20.6 53.1,20.5 53.1,20.5 
		53.1,20.5 53,20.5 53,20.4 53,20.4 53,20.3 52.9,20.3 52.9,20.3 52.8,20.3 52.8,20.2 52.8,20.2 52.8,20.2 52.7,20.2 52.7,20.1 
		52.7,20.1 52.7,20 52.6,20 52.6,20 52.5,20 52.5,19.9 52.5,19.9 52.5,19.9 52.4,19.9 52.4,19.8 52.4,19.8 52.4,19.7 52.3,19.7 
		52.3,19.7 52.2,19.7 52.2,19.6 52.2,19.6 52.2,19.6 52.1,19.6 52.1,19.5 52.1,19.5 52.1,19.4 52,19.4 52,19.4 52,19.4 52,19.3 
		51.9,19.3 51.9,19.3 51.8,19.3 51.8,19.2 51.8,19.2 51.8,19.2 51.7,19.2 51.7,19.1 51.7,19.1 51.7,19 51.6,19 51.6,19 51.5,19 
		51.5,18.9 51.5,18.9 51.5,18.9 51.4,18.9 51.4,18.8 51.4,18.8 51.4,18.7 51.3,18.7 51.3,18.7 51.2,18.7 51.2,18.6 51.2,18.6 
		51.2,18.6 51.1,18.6 51.1,18.5 51.1,18.5 51.1,18.4 51,18.4 51,18.4 50.9,18.4 50.9,18.3 50.9,18.3 50.9,18.3 50.8,18.3 50.8,18.2 
		50.8,18.2 50.8,18.1 50.7,18.1 50.7,18.1 50.6,18.1 50.6,18 50.6,18 50.6,18 50.5,18 50.5,17.9 50.5,17.9 50.5,17.9 50.4,17.9 
		50.4,17.8 50.4,17.8 50.4,17.7 50.3,17.7 50.3,17.7 50.2,17.7 50.2,17.6 50.2,17.6 50.2,17.6 50.1,17.6 50.1,17.5 50.1,17.5 
		50.1,17.4 50,17.4 50,17.4 49.9,17.4 49.9,17.3 49.9,17.3 49.9,17.3 49.8,17.3 49.8,17.2 49.8,17.2 49.8,17.1 49.7,17.1 49.7,17.1 
		49.6,17.1 49.6,17 49.6,17 49.6,17 49.5,17 49.5,16.9 49.5,16.9 49.5,16.8 49.4,16.8 49.4,16.8 49.3,16.8 49.3,16.7 49.3,16.7 
		49.3,16.7 49.2,16.7 49.2,16.6 49.2,16.6 49.2,16.6 49.1,16.6 49.1,16.5 49.1,16.5 49.1,16.4 49,16.4 49,16.4 48.9,16.4 48.9,16.3 
		48.9,16.3 48.9,16.3 48.8,16.3 48.8,16.2 48.8,16.2 48.8,16.1 48.7,16.1 48.7,16.1 48.6,16.1 48.6,16 48.6,16 48.6,16 48.5,16 
		48.5,15.9 48.5,15.9 48.5,15.8 48.4,15.8 48.4,15.8 48.3,15.8 48.3,15.7 48.3,15.7 48.3,15.7 48.2,15.7 48.2,15.6 36.1,15.6 
		24.1,15.6 24.1,56.8 24.1,56.8 24.1,56.9 24.2,56.9 24.2,57 24.2,56.9 24.2,57 24.3,57 24.3,57.1 24.4,57 24.4,57.1 24.4,57.1 
		24.4,57.2 24.5,57.2 24.5,57.3 24.5,57.2 24.5,57.3 24.6,57.3 24.6,57.4 24.7,57.3 24.7,57.4 24.7,57.4 24.7,57.5 24.8,57.4 
		24.8,57.6 24.8,57.5 24.8,57.6 24.9,57.6 24.9,57.7 24.9,57.6 24.9,57.7 25,57.7 25,57.8 25.1,57.7 25.1,57.8 25.1,57.8 25.1,57.9 
		25.2,57.9 25.2,58 25.2,57.9 25.2,58 25.3,58 25.3,58.1 25.4,58 25.4,58.1 25.4,58.1 25.4,58.2 25.5,58.2 25.5,58.3 25.5,58.2 
		25.5,58.3 25.6,58.3 25.6,58.4 25.7,58.3 25.7,58.4 25.7,58.4 25.7,58.5 25.8,58.5 25.8,58.6 25.8,58.5 25.8,58.6 25.9,58.6 
		25.9,58.7 26,58.6 26,58.7 26,58.7 26,58.8 26.1,58.7 26.1,58.9 26.1,58.8 26.1,58.9 26.2,58.9 26.2,59 26.3,58.9 26.3,59 26.3,59 
		26.3,59.1 26.4,59 26.4,59.2 26.4,59.1 26.4,59.2 26.5,59.2 26.5,59.3 26.5,59.2 26.5,59.3 26.6,59.3 26.6,59.4 26.7,59.3 
		26.7,59.4 26.7,59.4 26.7,59.5 26.8,59.5 26.8,59.6 26.8,59.5 26.8,59.6 26.9,59.6 26.9,59.7 27,59.6 27,59.7 27,59.7 27,59.8 
		27.1,59.8 27.1,59.9 27.1,59.8 27.1,59.9 27.2,59.9 27.2,60 27.3,59.9 27.3,60 27.3,60 27.3,60.1 27.4,60.1 27.4,60.2 27.4,60.1 
		27.4,60.2 27.5,60.2 27.5,60.3 27.6,60.2 27.6,60.3 27.6,60.3 27.6,60.4 27.7,60.3 27.7,60.5 27.7,60.4 27.7,60.5 27.8,60.5 
		27.8,60.6 27.8,60.5 27.8,60.6 27.9,60.6 27.9,60.7 28,60.6 28,60.7 28,60.7 28,60.8 28.1,60.8 28.1,60.9 28.1,60.8 28.1,60.9 
		28.2,60.9 28.2,61 28.3,60.9 28.3,61 28.3,61 28.3,61.1 28.4,61.1 28.4,61.2 28.4,61.1 28.4,61.2 28.5,61.2 28.5,61.3 28.6,61.2 
		28.6,61.3 28.6,61.3 28.6,61.4 28.7,61.4 28.7,61.5 28.7,61.4 28.7,61.5 28.8,61.5 28.8,61.6 28.9,61.5 28.9,61.6 28.9,61.6 
		28.9,61.7 29,61.6 29,61.8 29,61.7 29,61.8 29.1,61.8 29.1,61.9 29.1,61.8 29.1,61.9 29.2,61.9 29.2,62 29.3,61.9 29.3,62.1 
		29.3,62 29.3,62.1 29.4,62.1 29.4,62.2 29.4,62.1 29.4,62.2 29.5,62.2 29.5,62.3 29.6,62.2 29.6,62.3 29.6,62.3 29.6,62.4 
		29.7,62.4 29.7,62.5 29.7,62.4 29.7,62.5 29.8,62.5 29.8,62.6 29.9,62.5 29.9,62.6 29.9,62.6 29.9,62.7 30,62.7 30,62.8 30,62.7 
		30,62.8 30.1,62.8 30.1,62.9 30.2,62.8 30.2,62.9 30.2,62.9 30.2,63 30.3,63 30.3,63.1 30.3,63 30.3,63.1 30.4,63.1 30.4,63.2 
		30.5,63.1 30.5,63.2 30.5,63.2 30.5,63.3 30.6,63.2 30.6,63.4 30.6,63.3 30.6,63.4 30.7,63.4 30.7,63.5 30.7,63.4 30.7,63.5 
		30.8,63.5 30.8,63.6 30.9,63.5 30.9,63.6 30.9,63.6 30.9,63.7 31,63.7 31,63.8 31,63.7 31,63.8 31.1,63.8 31.1,63.9 31.2,63.8 
		31.2,63.9 31.2,63.9 31.2,64 31.3,64 31.3,64.1 31.3,64 31.3,64.1 31.4,64.1 31.4,64.2 31.5,64.1 31.5,64.2 31.5,64.2 31.5,64.3 
		31.6,64.3 31.6,64.4 31.6,64.3 31.6,64.4 31.7,64.4 31.7,64.5 31.8,64.4 31.8,64.5 31.8,64.5 31.8,64.6 31.9,64.5 31.9,64.7 
		31.9,64.6 31.9,64.7 32,64.7 32,64.8 32,64.7 32,64.8 32.1,64.8 32.1,64.9 32.2,64.8 32.2,65 32.2,64.9 32.2,65 32.3,65 32.3,65.1 
		32.3,65 32.3,65.1 32.4,65.1 32.4,65.2 32.5,65.1 32.5,65.2 32.5,65.2 32.5,65.3 32.6,65.3 32.6,65.4 32.6,65.3 32.6,65.4 
		32.7,65.4 32.7,65.5 32.8,65.4 32.8,65.5 32.8,65.5 32.8,65.6 32.9,65.6 32.9,65.7 32.9,65.6 32.9,65.7 33,65.7 33,65.8 33.1,65.7 
		33.1,65.8 33.1,65.8 33.1,65.9 33.2,65.8 33.2,66 33.2,65.9 33.2,66 33.3,66 33.3,66.1 33.4,66 33.4,66.1 33.4,66.1 33.4,66.2 
		33.5,66.1 33.5,66.3 33.5,66.2 33.5,66.3 33.6,66.3 33.6,66.4 33.6,66.3 33.6,66.4 33.7,66.4 33.7,66.5 33.8,66.4 33.8,66.5 
		33.8,66.5 33.8,66.6 33.9,66.6 33.9,66.7 33.9,66.6 33.9,66.7 34,66.7 34,66.8 34.1,66.7 34.1,66.8 34.1,66.8 34.1,66.9 34.2,66.9 
		34.2,67 34.2,66.9 34.2,67 34.3,67 34.3,67.1 34.4,67 34.4,67.1 34.4,67.1 34.4,67.2 34.5,67.2 34.5,67.3 34.5,67.2 34.5,67.3 
		34.6,67.3 34.6,67.4 34.7,67.3 34.7,67.4 34.7,67.4 34.7,67.5 34.8,67.4 34.8,67.6 34.8,67.5 34.8,67.6 34.9,67.6 34.9,67.7 
		34.9,67.6 34.9,67.7 35,67.7 35,67.8 35.1,67.7 35.1,67.8 35.1,67.8 35.1,67.9 35.2,67.9 35.2,68 35.2,67.9 35.2,68 35.3,68 
		35.3,68.1 35.4,68 35.4,68.1 35.4,68.1 35.4,68.2 35.5,68.2 35.5,68.3 35.5,68.2 35.5,68.3 35.6,68.3 35.6,68.4 35.7,68.3 
		35.7,68.4 35.7,68.4 35.7,68.5 35.8,68.5 35.8,68.6 35.8,68.5 35.8,68.6 35.9,68.6 35.9,68.7 36,68.6 36,68.7 36,68.7 36,68.8 
		36.1,68.7 36.1,68.9 36.1,68.8 36.1,68.9 36.2,68.9 36.2,69 36.2,68.9 36.2,69 36.3,69 36.3,69.1 36.4,69 36.4,69.2 36.4,69.1 
		36.4,69.2 36.5,69.2 36.5,69.3 36.5,69.2 36.5,69.3 36.6,69.3 36.6,69.4 36.7,69.3 36.7,69.4 36.7,69.4 36.7,69.5 36.8,69.5 
		36.8,69.6 36.8,69.5 36.8,69.6 36.9,69.6 36.9,69.7 37,69.6 37,69.7 37,69.7 37,69.8 37.1,69.8 37.1,69.9 37.1,69.8 37.1,69.9 
		37.2,69.9 37.2,70 37.3,69.9 37.3,70 37.3,70 37.3,70.1 37.4,70.1 37.4,70.2 37.4,70.1 37.4,70.2 37.5,70.2 37.5,70.3 37.6,70.2 
		37.6,70.3 37.6,70.3 37.6,70.4 37.7,70.3 37.7,70.5 37.7,70.4 37.7,70.5 37.8,70.5 37.8,70.6 37.8,70.5 37.8,70.6 37.9,70.6 
		37.9,70.7 38,70.6 38,70.7 38,70.7 38,70.8 38.1,70.8 38.1,70.9 38.1,70.8 38.1,70.9 38.2,70.9 38.2,71 38.3,70.9 38.3,71 38.3,71 
		38.3,71.1 38.4,71.1 38.4,71.2 38.4,71.1 38.4,71.2 38.5,71.2 38.5,71.3 38.6,71.2 38.6,71.3 38.6,71.3 38.6,71.4 38.7,71.4 
		38.7,71.5 38.7,71.4 38.7,71.5 38.8,71.5 38.8,71.6 38.9,71.5 38.9,71.6 38.9,71.6 38.9,71.7 39,71.6 39,71.8 39,71.7 39,71.8 
		39.1,71.8 39.1,71.9 39.1,71.8 39.1,71.9 39.2,71.9 39.2,72 39.3,71.9 39.3,72.1 39.3,72 39.3,72.1 39.4,72.1 39.4,72.2 39.4,72.1 
		39.4,72.2 39.5,72.2 39.5,72.3 39.6,72.2 39.6,72.3 39.6,72.3 39.6,72.4 39.7,72.4 39.7,72.5 39.7,72.4 39.7,72.5 39.8,72.5 
		39.8,72.6 39.9,72.5 39.9,72.6 39.9,72.6 39.9,72.7 40,72.7 40,72.8 40,72.7 40,72.8 40.1,72.8 40.1,72.9 40.2,72.8 40.2,72.9 
		40.2,72.9 40.2,73 40.3,73 40.3,73.1 40.3,73 40.3,73.1 40.4,73.1 40.4,73.2 40.5,73.1 40.5,73.2 40.5,73.2 40.5,73.3 40.6,73.2 
		40.6,73.4 40.6,73.3 40.6,73.4 40.7,73.4 40.7,73.5 40.7,73.4 40.7,73.5 40.8,73.5 40.8,73.6 40.9,73.5 40.9,73.6 40.9,73.6 
		40.9,73.7 41,73.7 41,73.8 41,73.7 41,73.8 41.1,73.8 41.1,73.9 41.2,73.8 41.2,73.9 41.2,73.9 41.2,74 41.3,74 41.3,74.1 41.3,74 
		41.3,74.1 41.4,74.1 41.4,74.2 41.5,74.1 41.5,74.2 41.5,74.2 41.5,74.3 41.6,74.3 41.6,74.4 41.6,74.3 41.6,74.4 41.7,74.4 
		41.7,74.5 41.8,74.4 41.8,74.5 41.8,74.5 41.8,74.6 41.9,74.5 41.9,74.7 41.9,74.6 41.9,74.7 42,74.7 42,74.8 42,74.7 42,74.8 
		42.1,74.8 42.1,74.9 42.2,74.8 42.2,74.9 42.2,74.9 42.2,75 42.3,75 42.3,75.1 42.3,75 42.3,75.1 42.4,75.1 42.4,75.2 42.5,75.1 
		42.5,75.2 42.5,75.2 42.5,75.3 42.6,75.3 42.6,75.4 42.6,75.3 42.6,75.4 42.7,75.4 42.7,75.5 42.8,75.4 42.8,75.5 42.8,75.5 
		42.8,75.6 42.9,75.6 42.9,75.7 42.9,75.6 42.9,75.7 43,75.7 43,75.8 43.1,75.7 43.1,75.8 43.1,75.8 43.1,75.9 43.2,75.8 43.2,76 
		43.2,75.9 43.2,76 43.3,76 43.3,76.1 43.3,76 43.3,76.1 43.4,76.1 43.4,76.2 43.5,76.1 43.5,76.3 43.5,76.2 43.5,76.3 43.6,76.3 
		43.6,76.4 43.6,76.3 43.6,76.4 43.7,76.4 43.7,76.5 43.8,76.4 43.8,76.5 43.8,76.5 43.8,76.6 43.9,76.6 43.9,76.7 43.9,76.6 
		43.9,76.7 44,76.7 44,76.8 44.1,76.7 44.1,76.8 44.1,76.8 44.1,76.9 44.2,76.9 44.2,77 44.2,76.9 44.2,77 44.3,77 44.3,77.1 
		44.4,77 44.4,77.1 44.4,77.1 44.4,77.2 44.5,77.2 44.5,77.3 44.5,77.2 44.5,77.3 44.6,77.3 44.6,77.4 44.7,77.3 44.7,77.4 
		44.7,77.4 44.7,77.5 44.8,77.4 44.8,77.6 44.8,77.5 44.8,77.6 44.9,77.6 44.9,77.7 44.9,77.6 44.9,77.7 45,77.7 45,77.8 45.1,77.7 
		45.1,77.8 45.1,77.8 45.1,77.9 45.2,77.9 45.2,78 45.2,77.9 45.2,78 45.3,78 45.3,78.1 45.4,78 45.4,78.1 45.4,78.1 45.4,78.2 
		45.5,78.2 45.5,78.3 45.5,78.2 45.5,78.3 45.6,78.3 45.6,78.4 45.7,78.3 45.7,78.4 45.7,78.4 45.7,78.5 45.8,78.5 45.8,78.6 
		45.8,78.5 45.8,78.6 45.9,78.6 45.9,78.7 46,78.6 46,78.7 46,78.7 46,78.8 46.1,78.7 46.1,78.9 46.1,78.8 46.1,78.9 46.2,78.9 
		46.2,79 46.2,78.9 46.2,79 46.3,79 46.3,79.1 46.4,79 46.4,79.2 46.4,79.1 46.4,79.2 46.5,79.2 46.5,79.3 46.5,79.2 46.5,79.3 
		46.6,79.3 46.6,79.4 46.7,79.3 46.7,79.4 46.7,79.4 46.7,79.5 46.8,79.5 46.8,79.6 46.8,79.5 46.8,79.6 46.9,79.6 46.9,79.7 
		47,79.6 47,79.7 47,79.7 47,79.8 47.1,79.8 47.1,79.9 47.1,79.8 47.1,79.9 47.2,79.9 47.2,80 47.3,79.9 47.3,80 47.3,80 47.3,80.1 
		47.4,80.1 47.4,80.2 47.4,80.1 47.4,80.2 47.5,80.2 47.5,80.3 47.6,80.2 47.6,80.3 47.6,80.3 47.6,80.4 47.7,80.3 47.7,80.5 
		47.7,80.4 47.7,80.5 47.8,80.5 47.8,80.6 59.9,71 71.9,80.6 71.9,39.3 	"/>
	<polygon class="st2" points="36,15.6 24,15.6 24,56.5 36,47 48,56.5 48,15.6 	"/>
</g>
</svg>
