<?xml version="1.0" encoding="utf-8"?>
<!-- Generator: Adobe Illustrator 19.1.0, SVG Export Plug-In . SVG Version: 6.00 Build 0)  -->
<svg version="1.1" id="Layer_1" xmlns="http://www.w3.org/2000/svg" xmlns:xlink="http://www.w3.org/1999/xlink" x="0px" y="0px"
	 width="72px" height="72px" viewBox="0 0 72 72" style="enable-background:new 0 0 72 72;" xml:space="preserve">
<style type="text/css">
	.st0{clip-path:url(#SVGID_2_);fill:#F58B69;}
	.st1{opacity:0.3;clip-path:url(#SVGID_2_);fill:url(#SVGID_3_);}
	.st2{clip-path:url(#SVGID_2_);fill:#3B3336;}
	.st3{clip-path:url(#SVGID_5_);fill:#F58B69;}
	.st4{opacity:0.3;clip-path:url(#SVGID_5_);fill:url(#SVGID_6_);}
	.st5{clip-path:url(#SVGID_5_);fill:#3B3336;}
	.st6{clip-path:url(#SVGID_5_);}
	.st7{fill:#F47D55;}
	.st8{fill:#3B3336;}
	.st9{clip-path:url(#SVGID_8_);fill:#F58B69;}
	.st10{opacity:0.3;clip-path:url(#SVGID_8_);fill:url(#SVGID_9_);}
	.st11{clip-path:url(#SVGID_8_);fill:#3B3336;}
	.st12{clip-path:url(#SVGID_8_);}
	.st13{clip-path:url(#SVGID_8_);fill:#F47D55;stroke:#F47D55;stroke-width:1.128;stroke-linecap:round;stroke-miterlimit:10;}
	.st14{clip-path:url(#SVGID_11_);fill:#F58B69;}
	.st15{opacity:0.3;clip-path:url(#SVGID_11_);fill:url(#SVGID_12_);}
	.st16{clip-path:url(#SVGID_11_);}
	.st17{clip-path:url(#SVGID_14_);fill:#F58B69;}
	.st18{opacity:0.3;clip-path:url(#SVGID_14_);fill:url(#SVGID_15_);}
	.st19{clip-path:url(#SVGID_14_);fill:#3B3336;}
	.st20{clip-path:url(#SVGID_14_);fill:none;stroke:#F47D55;stroke-width:1.2829;stroke-linecap:round;stroke-miterlimit:10;}
	.st21{clip-path:url(#SVGID_14_);fill:none;stroke:#F47D55;stroke-width:0.4943;stroke-linecap:round;stroke-miterlimit:10;}
	.st22{clip-path:url(#SVGID_14_);fill:#F47D55;}
	.st23{clip-path:url(#SVGID_14_);}
	.st24{clip-path:url(#SVGID_17_);fill:#F58B69;}
	.st25{opacity:0.3;clip-path:url(#SVGID_17_);fill:url(#SVGID_18_);}
	.st26{clip-path:url(#SVGID_17_);}
</style>
<g>
	<defs>
		<circle id="SVGID_13_" cx="36" cy="36" r="36"/>
	</defs>
	<clipPath id="SVGID_2_">
		<use xlink:href="#SVGID_13_"  style="overflow:visible;"/>
	</clipPath>
	<circle class="st0" cx="36" cy="36.6" r="36"/>
	<linearGradient id="SVGID_3_" gradientUnits="userSpaceOnUse" x1="64.0884" y1="89.963" x2="35.0297" y2="10.125">
		<stop  offset="0" style="stop-color:#FFFFFF;stop-opacity:0"/>
		<stop  offset="9.962707e-02" style="stop-color:#DBDBDB;stop-opacity:0.1064"/>
		<stop  offset="0.2379" style="stop-color:#AFAFB0;stop-opacity:0.2541"/>
		<stop  offset="0.3781" style="stop-color:#8A8B8C;stop-opacity:0.4038"/>
		<stop  offset="0.518" style="stop-color:#6E6F71;stop-opacity:0.5533"/>
		<stop  offset="0.6577" style="stop-color:#5A5B5D;stop-opacity:0.7025"/>
		<stop  offset="0.7971" style="stop-color:#4E4F51;stop-opacity:0.8514"/>
		<stop  offset="0.9362" style="stop-color:#4A4B4D"/>
	</linearGradient>
	<polygon class="st1" points="79.3,42.9 79.3,42.8 79.3,42.8 79.3,42.8 79.2,42.8 79.2,42.7 79.1,42.7 79.1,42.6 79.1,42.6 
		79.1,42.6 79,42.6 79,42.5 78.9,42.5 78.9,42.4 78.9,42.4 78.9,42.4 78.8,42.4 78.8,42.3 78.7,42.3 78.7,42.2 78.7,42.2 78.7,42.2 
		78.6,42.2 78.6,42.1 78.5,42.1 78.5,42 78.5,42 78.5,42 78.4,42 78.4,41.9 78.3,41.9 78.3,41.8 78.2,41.8 78.2,41.7 78.2,41.7 
		78.2,41.7 78.1,41.7 78.1,41.6 78,41.6 78,41.5 78,41.5 78,41.5 77.9,41.5 77.9,41.4 77.8,41.4 77.8,41.3 77.8,41.3 77.8,41.3 
		77.7,41.3 77.7,41.2 77.6,41.2 77.6,41.1 77.6,41.1 77.6,41.1 77.5,41.1 77.5,41 77.4,41 77.4,40.9 77.4,40.9 77.4,40.9 77.3,40.9 
		77.3,40.8 77.2,40.8 77.2,40.7 77.2,40.7 77.2,40.7 77.1,40.7 77.1,40.6 77,40.6 77,40.5 77,40.5 77,40.5 76.9,40.5 76.9,40.4 
		76.8,40.4 76.8,40.3 76.8,40.3 76.8,40.3 76.7,40.3 76.7,40.2 76.6,40.2 76.6,40.1 76.6,40.1 76.6,40.1 76.5,40.1 76.5,40 76.4,40 
		76.4,39.9 76.3,39.9 76.3,39.8 76.3,39.8 76.3,39.8 76.2,39.8 76.2,39.7 76.1,39.7 76.1,39.6 76.1,39.6 76.1,39.6 76,39.6 76,39.5 
		75.9,39.5 75.9,39.4 75.9,39.4 75.9,39.4 75.8,39.4 75.8,39.3 75.7,39.3 75.7,39.2 75.7,39.2 75.7,39.2 75.6,39.2 75.6,39.1 
		75.5,39.1 75.5,39 75.5,39 75.5,39 75.4,39 75.4,38.9 75.3,38.9 75.3,38.8 75.3,38.8 75.3,38.8 75.2,38.8 75.2,38.7 75.1,38.7 
		75.1,38.6 75.1,38.6 75.1,38.6 75,38.6 75,38.5 74.9,38.5 74.9,38.4 74.9,38.4 74.9,38.4 74.8,38.4 74.8,38.3 74.7,38.3 74.7,38.2 
		74.7,38.2 74.7,38.2 74.6,38.2 74.6,38.1 74.5,38.1 74.5,38 74.5,38 74.5,37.9 74.4,37.9 74.4,37.9 74.3,37.9 74.3,37.8 74.2,37.8 
		74.2,37.7 74.2,37.7 74.2,37.7 74.1,37.7 74.1,37.6 74,37.6 74,37.5 74,37.5 74,37.5 73.9,37.5 73.9,37.4 73.8,37.4 73.8,37.3 
		73.8,37.3 73.8,37.3 73.7,37.3 73.7,37.2 73.6,37.2 73.6,37.1 73.6,37.1 73.6,37.1 73.5,37.1 73.5,37 73.4,37 73.4,36.9 73.4,36.9 
		73.4,36.9 73.3,36.9 73.3,36.8 73.2,36.8 73.2,36.7 73.2,36.7 73.2,36.7 73.1,36.7 73.1,36.6 73,36.6 73,36.5 73,36.5 73,36.5 
		72.9,36.5 72.9,36.4 72.8,36.4 72.8,36.3 72.8,36.3 72.8,36.3 72.7,36.3 72.7,36.2 72.6,36.2 72.6,36.1 72.6,36.1 72.6,36 72.5,36 
		72.5,36 72.4,36 72.4,35.9 72.3,35.9 72.3,35.8 72.3,35.8 72.3,35.8 72.2,35.8 72.2,35.7 72.1,35.7 72.1,35.6 72.1,35.6 72.1,35.6 
		72,35.6 72,35.5 71.9,35.5 71.9,35.4 71.9,35.4 71.9,35.4 71.8,35.4 71.8,35.3 71.7,35.3 71.7,35.2 71.7,35.2 71.7,35.2 71.6,35.2 
		71.6,35.1 71.5,35.1 71.5,35 71.5,35 71.5,35 71.4,35 71.4,34.9 71.3,34.9 71.3,34.8 71.3,34.8 71.3,34.8 71.2,34.8 71.2,34.7 
		71.1,34.7 71.1,34.6 71.1,34.6 71.1,34.6 71,34.6 71,34.5 70.9,34.5 70.9,34.4 70.9,34.4 70.9,34.4 70.8,34.4 70.8,34.3 70.7,34.3 
		70.7,34.2 70.7,34.2 70.7,34.1 70.6,34.1 70.6,34.1 70.5,34.1 70.5,34 70.4,34 70.4,33.9 70.4,33.9 70.4,33.9 70.3,33.9 70.3,33.8 
		70.2,33.8 70.2,33.7 70.2,33.7 70.2,33.7 70.1,33.7 70.1,33.6 70,33.6 70,33.5 70,33.5 70,33.5 69.9,33.5 69.9,33.4 69.8,33.4 
		69.8,33.3 69.8,33.3 69.8,33.3 69.7,33.3 69.7,33.2 69.6,33.2 69.6,33.1 69.6,33.1 69.6,33.1 69.5,33.1 69.5,33 69.4,33 69.4,32.9 
		69.4,32.9 69.4,32.9 69.3,32.9 69.3,32.8 69.2,32.8 69.2,32.7 69.2,32.7 69.2,32.7 69.1,32.7 69.1,32.6 69,32.6 69,32.5 69,32.5 
		69,32.5 68.9,32.5 68.9,32.4 68.8,32.4 68.8,32.3 68.8,32.3 68.8,32.3 68.7,32.3 68.7,32.2 68.6,32.2 68.6,32.1 68.5,32.1 68.5,32 
		68.5,32 68.5,32 68.4,32 68.4,31.9 68.3,31.9 68.3,31.8 68.3,31.8 68.3,31.8 68.2,31.8 68.2,31.7 68.1,31.7 68.1,31.6 68.1,31.6 
		68.1,31.6 68,31.6 68,31.5 67.9,31.5 67.9,31.4 67.9,31.4 67.9,31.4 67.8,31.4 67.8,31.3 67.7,31.3 67.7,31.2 67.7,31.2 67.7,31.2 
		67.6,31.2 67.6,31.1 67.5,31.1 67.5,31 67.5,31 67.5,31 67.4,31 67.4,30.9 67.3,30.9 67.3,30.8 67.3,30.8 67.3,30.8 67.2,30.8 
		67.2,30.7 67.1,30.7 67.1,30.6 67.1,30.6 67.1,30.6 67,30.6 67,30.5 66.9,30.5 66.9,30.4 66.9,30.4 66.9,30.4 66.8,30.4 66.8,30.3 
		66.7,30.3 66.7,30.2 66.6,30.2 66.6,30.1 66.6,30.1 66.6,30.1 66.5,30.1 66.5,30 66.4,30 66.4,29.9 66.4,29.9 66.4,29.9 66.3,29.9 
		66.3,29.8 66.2,29.8 66.2,29.7 66.2,29.7 66.2,29.7 66.1,29.7 66.1,29.6 66,29.6 66,29.5 66,29.5 66,29.5 65.9,29.5 65.9,29.4 
		65.8,29.4 65.8,29.3 65.8,29.3 65.8,29.3 65.7,29.3 65.7,29.2 65.6,29.2 65.6,29.1 65.6,29.1 65.6,29.1 65.5,29.1 65.5,29 65.4,29 
		65.4,28.9 65.4,28.9 65.4,28.9 65.3,28.9 65.3,28.8 65.2,28.8 65.2,28.7 65.2,28.7 65.2,28.7 65.1,28.7 65.1,28.6 65,28.6 65,28.5 
		65,28.5 65,28.5 64.9,28.5 64.9,28.4 64.8,28.4 64.8,28.3 64.8,28.3 64.8,28.2 64.7,28.2 64.7,28.2 64.6,28.2 64.6,28.1 64.5,28.1 
		64.5,28 64.5,28 64.5,28 64.4,28 64.4,27.9 64.3,27.9 64.3,27.8 64.3,27.8 64.3,27.8 64.2,27.8 64.2,27.7 64.1,27.7 64.1,27.6 
		64.1,27.6 64.1,27.6 64,27.6 64,27.5 63.9,27.5 63.9,27.4 63.9,27.4 63.9,27.4 63.8,27.4 63.8,27.3 63.7,27.3 63.7,27.2 63.7,27.2 
		63.7,27.2 63.6,27.2 63.6,27.1 63.5,27.1 63.5,27 63.5,27 63.5,27 63.4,27 63.4,26.9 63.3,26.9 63.3,26.8 63.3,26.8 63.3,26.8 
		63.2,26.8 63.2,26.7 63.1,26.7 63.1,26.6 63.1,26.6 63.1,26.6 63,26.6 63,26.5 62.9,26.5 62.9,26.4 62.9,26.4 62.9,26.3 62.8,26.3 
		62.8,26.3 62.7,26.3 62.7,26.2 62.6,26.2 62.6,26.1 62.6,26.1 62.6,26.1 62.5,26.1 62.5,26 62.4,26 62.4,25.9 62.4,25.9 62.4,25.9 
		62.3,25.9 62.3,25.8 62.2,25.8 62.2,25.7 62.2,25.7 62.2,25.7 62.1,25.7 62.1,25.6 62,25.6 62,25.5 62,25.5 62,25.5 61.9,25.5 
		61.9,25.4 61.8,25.4 61.8,25.3 61.8,25.3 61.8,25.3 61.7,25.3 61.7,25.2 61.6,25.2 61.6,25.1 61.6,25.1 61.6,25.1 61.5,25.1 
		61.5,25 61.4,25 61.4,24.9 61.4,24.9 61.4,24.9 61.3,24.9 61.3,24.8 61.2,24.8 61.2,24.7 61.2,24.7 61.2,24.7 61.1,24.7 61.1,24.6 
		61,24.6 61,24.5 61,24.5 61,24.4 60.9,24.4 60.9,24.4 60.8,24.4 60.8,24.3 60.7,24.3 60.7,24.2 60.7,24.2 60.7,24.2 60.6,24.2 
		60.6,24.1 60.5,24.1 60.5,24 60.5,24 60.5,24 60.4,24 60.4,23.9 60.3,23.9 60.3,23.8 60.3,23.8 60.3,23.8 60.2,23.8 60.2,23.7 
		60.1,23.7 60.1,23.6 60.1,23.6 60.1,23.6 60,23.6 60,23.5 59.9,23.5 59.9,23.4 59.9,23.4 59.9,23.4 59.8,23.4 59.8,23.3 59.7,23.3 
		59.7,23.2 59.7,23.2 59.7,23.2 59.6,23.2 59.6,23.1 59.5,23.1 59.5,23 59.5,23 59.5,23 59.4,23 59.4,22.9 59.3,22.9 59.3,22.8 
		59.3,22.8 59.3,22.8 59.2,22.8 59.2,22.7 59.1,22.7 59.1,22.6 59.1,22.6 59.1,22.6 59,22.6 59,22.5 58.9,22.5 58.9,22.4 58.8,22.4 
		58.8,22.3 58.8,22.3 58.8,22.3 58.7,22.3 58.7,22.2 58.6,22.2 58.6,22.1 58.6,22.1 58.6,22.1 58.5,22.1 58.5,22 58.4,22 58.4,21.9 
		58.4,21.9 58.4,21.9 58.3,21.9 58.3,21.8 58.2,21.8 58.2,21.7 58.2,21.7 58.2,21.7 58.1,21.7 58.1,21.6 58,21.6 58,21.5 58,21.5 
		58,21.5 57.9,21.5 57.9,21.4 57.8,21.4 57.8,21.3 57.8,21.3 57.8,21.3 57.7,21.3 57.7,21.2 57.6,21.2 57.6,21.1 57.6,21.1 
		57.6,21.1 57.5,21.1 57.5,21 57.4,21 57.4,20.9 57.4,20.9 57.4,20.9 57.3,20.9 57.3,20.8 57.2,20.8 57.2,20.7 57.2,20.7 57.2,20.7 
		57.1,20.7 57.1,20.6 57,20.6 57,20.5 56.9,20.5 56.9,20.4 56.9,20.4 56.9,20.4 56.8,20.4 56.8,20.3 56.7,20.3 56.7,20.2 56.7,20.2 
		56.7,20.2 56.6,20.2 56.6,20.1 56.5,20.1 56.5,20 56.5,20 56.5,20 56.4,20 56.4,19.9 56.3,19.9 56.3,19.8 56.3,19.8 56.3,19.8 
		56.2,19.8 56.2,19.7 56.1,19.7 56.1,19.6 56.1,19.6 56.1,19.6 56,19.6 56,19.5 55.9,19.5 55.9,19.4 55.9,19.4 55.9,19.4 55.8,19.4 
		55.8,19.3 55.7,19.3 55.7,19.2 55.7,19.2 55.7,19.2 55.6,19.2 55.6,19.1 55.5,19.1 55.5,19 55.5,19 55.5,19 55.4,19 55.4,18.9 
		55.3,18.9 55.3,18.8 55.3,18.8 55.3,18.8 55.2,18.8 55.2,18.7 55.1,18.7 55.1,18.6 55,18.6 55,18.5 55,18.5 55,18.5 54.9,18.5 
		54.9,18.4 54.8,18.4 54.8,18.3 54.8,18.3 54.8,18.3 54.7,18.3 54.7,18.2 54.6,18.2 54.6,18.1 54.6,18.1 54.6,18.1 54.5,18.1 
		54.5,18 54.4,18 54.4,17.9 54.4,17.9 54.4,17.9 54.3,17.9 54.3,17.8 54.2,17.8 54.2,17.7 54.2,17.7 54.2,17.7 54.1,17.7 54.1,17.6 
		54,17.6 54,17.5 54,17.5 54,17.5 53.9,17.5 53.9,17.4 53.8,17.4 53.8,17.3 53.8,17.3 53.8,17.3 53.7,17.3 53.7,17.2 53.6,17.2 
		53.6,17.1 53.6,17.1 53.6,17.1 53.5,17.1 53.5,17 53.4,17 53.4,16.9 53.4,16.9 53.4,16.9 53.3,16.9 53.3,16.8 53.2,16.8 53.2,16.7 
		53.2,16.7 53.2,16.6 53.1,16.6 53.1,16.6 53,16.6 53,16.5 52.9,16.5 52.9,16.4 52.9,16.4 52.9,16.4 52.8,16.4 52.8,16.3 52.7,16.3 
		52.7,16.2 52.7,16.2 52.7,16.2 52.6,16.2 52.6,16.1 52.5,16.1 52.5,16 52.5,16 52.5,16 52.4,16 52.4,15.9 52.3,15.9 52.3,15.8 
		52.3,15.8 52.3,15.8 52.2,15.8 52.2,15.7 19.7,15.7 19.7,57.2 19.8,57.2 19.8,57.3 19.9,57.3 19.9,57.3 19.9,57.3 19.9,57.4 
		20,57.4 20,57.5 20.1,57.5 20.1,57.5 20.1,57.5 20.1,57.6 20.2,57.6 20.2,57.7 20.3,57.7 20.3,57.7 20.3,57.7 20.3,57.8 20.4,57.8 
		20.4,57.9 20.5,57.9 20.5,57.9 20.5,57.9 20.5,58 20.6,58 20.6,58.1 20.7,58.1 20.7,58.1 20.7,58.1 20.7,58.2 20.8,58.2 20.8,58.3 
		20.9,58.3 20.9,58.3 20.9,58.3 20.9,58.4 21,58.4 21,58.5 21.1,58.5 21.1,58.5 21.1,58.5 21.1,58.6 21.2,58.6 21.2,58.7 21.3,58.7 
		21.3,58.7 21.3,58.7 21.3,58.8 21.4,58.8 21.4,58.9 21.5,58.9 21.5,59 21.5,59 21.5,59 21.6,59 21.6,59.1 21.7,59.1 21.7,59.2 
		21.8,59.2 21.8,59.2 21.8,59.2 21.8,59.3 21.9,59.3 21.9,59.4 22,59.4 22,59.4 22,59.4 22,59.5 22.1,59.5 22.1,59.6 22.2,59.6 
		22.2,59.6 22.2,59.6 22.2,59.7 22.3,59.7 22.3,59.8 22.4,59.8 22.4,59.8 22.4,59.8 22.4,59.9 22.5,59.9 22.5,60 22.6,60 22.6,60 
		22.6,60 22.6,60.1 22.7,60.1 22.7,60.2 22.8,60.2 22.8,60.2 22.8,60.2 22.8,60.3 22.9,60.3 22.9,60.4 23,60.4 23,60.4 23,60.4 
		23,60.5 23.1,60.5 23.1,60.6 23.2,60.6 23.2,60.6 23.2,60.6 23.2,60.7 23.3,60.7 23.3,60.8 23.4,60.8 23.4,60.9 23.4,60.9 
		23.4,60.9 23.5,60.9 23.5,61 23.6,61 23.6,61.1 23.7,61.1 23.7,61.1 23.7,61.1 23.7,61.2 23.8,61.2 23.8,61.3 23.9,61.3 23.9,61.3 
		23.9,61.3 23.9,61.4 24,61.4 24,61.5 24.1,61.5 24.1,61.5 24.1,61.5 24.1,61.6 24.2,61.6 24.2,61.7 24.3,61.7 24.3,61.7 24.3,61.7 
		24.3,61.8 24.4,61.8 24.4,61.9 24.5,61.9 24.5,61.9 24.5,61.9 24.5,62 24.6,62 24.6,62.1 24.7,62.1 24.7,62.1 24.7,62.1 24.7,62.2 
		24.8,62.2 24.8,62.3 24.9,62.3 24.9,62.3 24.9,62.3 24.9,62.4 25,62.4 25,62.5 25.1,62.5 25.1,62.5 25.1,62.5 25.1,62.6 25.2,62.6 
		25.2,62.7 25.3,62.7 25.3,62.8 25.3,62.8 25.3,62.8 25.4,62.8 25.4,62.9 25.5,62.9 25.5,63 25.5,63 25.5,63 25.6,63 25.6,63.1 
		25.7,63.1 25.7,63.2 25.8,63.2 25.8,63.2 25.8,63.2 25.8,63.3 25.9,63.3 25.9,63.4 26,63.4 26,63.4 26,63.4 26,63.5 26.1,63.5 
		26.1,63.6 26.2,63.6 26.2,63.6 26.2,63.6 26.2,63.7 26.3,63.7 26.3,63.8 26.4,63.8 26.4,63.8 26.4,63.8 26.4,63.9 26.5,63.9 
		26.5,64 26.6,64 26.6,64 26.6,64 26.6,64.1 26.7,64.1 26.7,64.2 26.8,64.2 26.8,64.2 26.8,64.2 26.8,64.3 26.9,64.3 26.9,64.4 
		27,64.4 27,64.4 27,64.4 27,64.5 27.1,64.5 27.1,64.6 27.2,64.6 27.2,64.6 27.2,64.6 27.2,64.7 27.3,64.7 27.3,64.8 27.4,64.8 
		27.4,64.9 27.4,64.9 27.4,64.9 27.5,64.9 27.5,65 27.6,65 27.6,65.1 27.7,65.1 27.7,65.1 27.7,65.1 27.7,65.2 27.8,65.2 27.8,65.3 
		27.9,65.3 27.9,65.3 27.9,65.3 27.9,65.4 28,65.4 28,65.5 28.1,65.5 28.1,65.5 28.1,65.5 28.1,65.6 28.2,65.6 28.2,65.7 28.3,65.7 
		28.3,65.7 28.3,65.7 28.3,65.8 28.4,65.8 28.4,65.9 28.5,65.9 28.5,65.9 28.5,65.9 28.5,66 28.6,66 28.6,66.1 28.7,66.1 28.7,66.1 
		28.7,66.1 28.7,66.2 28.8,66.2 28.8,66.3 28.9,66.3 28.9,66.3 28.9,66.3 28.9,66.4 29,66.4 29,66.5 29.1,66.5 29.1,66.5 29.1,66.5 
		29.1,66.6 29.2,66.6 29.2,66.7 29.3,66.7 29.3,66.8 29.3,66.8 29.3,66.8 29.4,66.8 29.4,66.9 29.5,66.9 29.5,67 29.6,67 29.6,67 
		29.6,67 29.6,67.1 29.7,67.1 29.7,67.2 29.8,67.2 29.8,67.2 29.8,67.2 29.8,67.3 29.9,67.3 29.9,67.4 30,67.4 30,67.4 30,67.4 
		30,67.5 30.1,67.5 30.1,67.6 30.2,67.6 30.2,67.6 30.2,67.6 30.2,67.7 30.3,67.7 30.3,67.8 30.4,67.8 30.4,67.8 30.4,67.8 
		30.4,67.9 30.5,67.9 30.5,68 30.6,68 30.6,68 30.6,68 30.6,68.1 30.7,68.1 30.7,68.2 30.8,68.2 30.8,68.2 30.8,68.2 30.8,68.3 
		30.9,68.3 30.9,68.4 31,68.4 31,68.4 31,68.4 31,68.5 31.1,68.5 31.1,68.6 31.2,68.6 31.2,68.7 31.2,68.7 31.2,68.7 31.3,68.7 
		31.3,68.8 31.4,68.8 31.4,68.9 31.5,68.9 31.5,68.9 31.5,68.9 31.5,69 31.6,69 31.6,69.1 31.7,69.1 31.7,69.1 31.7,69.1 31.7,69.2 
		31.8,69.2 31.8,69.3 31.9,69.3 31.9,69.3 31.9,69.3 31.9,69.4 32,69.4 32,69.5 32.1,69.5 32.1,69.5 32.1,69.5 32.1,69.6 32.2,69.6 
		32.2,69.7 32.3,69.7 32.3,69.7 32.3,69.7 32.3,69.8 32.4,69.8 32.4,69.9 32.5,69.9 32.5,69.9 32.5,69.9 32.5,70 32.6,70 32.6,70.1 
		32.7,70.1 32.7,70.1 32.7,70.1 32.7,70.2 32.8,70.2 32.8,70.3 32.9,70.3 32.9,70.3 32.9,70.3 32.9,70.4 33,70.4 33,70.5 33.1,70.5 
		33.1,70.6 33.1,70.6 33.1,70.6 33.2,70.6 33.2,70.7 33.3,70.7 33.3,70.8 33.4,70.8 33.4,70.8 33.4,70.8 33.4,70.9 33.5,70.9 
		33.5,71 33.6,71 33.6,71 33.6,71 33.6,71.1 33.7,71.1 33.7,71.2 33.8,71.2 33.8,71.2 33.8,71.2 33.8,71.3 33.9,71.3 33.9,71.4 
		34,71.4 34,71.4 34,71.4 34,71.5 34.1,71.5 34.1,71.6 34.2,71.6 34.2,71.6 34.2,71.6 34.2,71.7 34.3,71.7 34.3,71.8 34.4,71.8 
		34.4,71.8 34.4,71.8 34.4,71.9 34.5,71.9 34.5,72 34.6,72 34.6,72 34.6,72 34.6,72.1 34.7,72.1 34.7,72.2 34.8,72.2 34.8,72.2 
		34.8,72.2 34.8,72.3 34.9,72.3 34.9,72.4 35,72.4 35,72.5 35,72.5 35,72.5 35.1,72.5 35.1,72.6 35.2,72.6 35.2,72.7 35.2,72.7 
		35.2,72.7 35.3,72.7 35.3,72.8 35.4,72.8 35.4,72.9 35.5,72.9 35.5,72.9 35.5,72.9 35.5,73 35.6,73 35.6,73.1 35.7,73.1 35.7,73.1 
		35.7,73.1 35.7,73.2 35.8,73.2 35.8,73.3 35.9,73.3 35.9,73.3 35.9,73.3 35.9,73.4 36,73.4 36,73.5 36.1,73.5 36.1,73.5 36.1,73.5 
		36.1,73.6 36.2,73.6 36.2,73.7 36.3,73.7 36.3,73.7 36.3,73.7 36.3,73.8 36.4,73.8 36.4,73.9 36.5,73.9 36.5,73.9 36.5,73.9 
		36.5,74 36.6,74 36.6,74.1 36.7,74.1 36.7,74.1 36.7,74.1 36.7,74.2 36.8,74.2 36.8,74.3 36.9,74.3 36.9,74.3 36.9,74.3 36.9,74.4 
		37,74.4 37,74.5 37.1,74.5 37.1,74.6 37.1,74.6 37.1,74.6 37.2,74.6 37.2,74.7 37.3,74.7 37.3,74.8 37.4,74.8 37.4,74.8 37.4,74.8 
		37.4,74.9 37.5,74.9 37.5,75 37.6,75 37.6,75 37.6,75 37.6,75.1 37.7,75.1 37.7,75.2 37.8,75.2 37.8,75.2 37.8,75.2 37.8,75.3 
		37.9,75.3 37.9,75.4 38,75.4 38,75.4 38,75.4 38,75.5 38.1,75.5 38.1,75.6 38.2,75.6 38.2,75.6 38.2,75.6 38.2,75.7 38.3,75.7 
		38.3,75.8 38.4,75.8 38.4,75.8 38.4,75.8 38.4,75.9 38.5,75.9 38.5,76 38.6,76 38.6,76 38.6,76 38.6,76.1 38.7,76.1 38.7,76.2 
		38.8,76.2 38.8,76.2 38.8,76.2 38.8,76.3 38.9,76.3 38.9,76.4 39,76.4 39,76.5 39,76.5 39,76.5 39.1,76.5 39.1,76.6 39.2,76.6 
		39.2,76.7 39.3,76.7 39.3,76.7 39.3,76.7 39.3,76.8 39.4,76.8 39.4,76.9 39.5,76.9 39.5,76.9 39.5,76.9 39.5,77 39.6,77 39.6,77.1 
		39.7,77.1 39.7,77.1 39.7,77.1 39.7,77.2 39.8,77.2 39.8,77.3 39.9,77.3 39.9,77.3 39.9,77.3 39.9,77.4 40,77.4 40,77.5 40.1,77.5 
		40.1,77.5 40.1,77.5 40.1,77.6 40.2,77.6 40.2,77.7 40.3,77.7 40.3,77.7 40.3,77.7 40.3,77.8 40.4,77.8 40.4,77.9 40.5,77.9 
		40.5,77.9 40.5,77.9 40.5,78 40.6,78 40.6,78.1 40.7,78.1 40.7,78.1 40.7,78.1 40.7,78.2 40.8,78.2 40.8,78.3 40.9,78.3 40.9,78.4 
		40.9,78.4 40.9,78.4 41,78.4 41,78.5 41.1,78.5 41.1,78.6 41.2,78.6 41.2,78.6 41.2,78.6 41.2,78.7 41.3,78.7 41.3,78.8 41.4,78.8 
		41.4,78.8 41.4,78.8 41.4,78.9 41.5,78.9 41.5,79 41.6,79 41.6,79 41.6,79 41.6,79.1 41.7,79.1 41.7,79.2 41.8,79.2 41.8,79.2 
		41.8,79.2 41.8,79.3 41.9,79.3 41.9,79.4 42,79.4 42,79.4 42,79.4 42,79.5 42.1,79.5 42.1,79.6 42.2,79.6 42.2,79.6 42.2,79.6 
		42.2,79.7 42.3,79.7 42.3,79.8 42.4,79.8 42.4,79.8 42.4,79.8 42.4,79.9 42.5,79.9 42.5,80 42.6,80 42.6,80 42.6,80 42.6,80.1 
		42.7,80.1 42.7,80.2 42.8,80.2 42.8,80.3 42.8,80.3 42.8,80.3 42.9,80.3 42.9,80.4 43,80.4 43,80.5 43.1,80.5 43.1,80.5 43.1,80.5 
		43.1,80.6 43.2,80.6 43.2,80.7 43.3,80.7 43.3,80.7 43.3,80.7 43.3,80.8 43.4,80.8 43.4,80.9 43.5,80.9 43.5,80.9 43.5,80.9 
		43.5,81 43.6,81 43.6,81.1 43.7,81.1 43.7,81.1 43.7,81.1 43.7,81.2 43.8,81.2 43.8,81.3 43.9,81.3 43.9,81.3 43.9,81.3 43.9,81.4 
		44,81.4 44,81.5 44.1,81.5 44.1,81.5 44.1,81.5 44.1,81.6 44.2,81.6 44.2,81.7 44.3,81.7 44.3,81.7 44.3,81.7 44.3,81.8 44.4,81.8 
		44.4,81.9 44.5,81.9 44.5,81.9 44.5,81.9 44.5,82 44.6,82 44.6,82.1 44.7,82.1 44.7,82.2 44.7,82.2 44.7,82.2 44.8,82.2 44.8,82.3 
		44.9,82.3 44.9,82.4 45,82.4 45,82.4 45,82.4 45,82.5 45.1,82.5 45.1,82.6 45.2,82.6 45.2,82.6 45.2,82.6 45.2,82.7 45.3,82.7 
		45.3,82.8 45.4,82.8 45.4,82.8 45.4,82.8 45.4,82.9 45.5,82.9 45.5,83 45.6,83 45.6,83 45.6,83 45.6,83.1 45.7,83.1 45.7,83.2 
		45.8,83.2 45.8,83.2 45.8,83.2 45.8,83.3 45.9,83.3 45.9,83.4 46,83.4 46,83.4 46,83.4 46,83.5 46.1,83.5 46.1,83.6 46.2,83.6 
		46.2,83.6 46.2,83.6 46.2,83.7 46.3,83.7 46.3,83.8 46.4,83.8 46.4,83.8 46.4,83.8 46.4,83.9 46.5,83.9 46.5,84 46.6,84 46.6,84.1 
		46.6,84.1 46.6,84.1 46.7,84.1 46.7,84.2 46.8,84.2 46.8,84.3 46.8,84.3 46.8,84.3 46.9,84.3 46.9,84.4 79.4,84.4 79.4,42.9 	"/>
	<rect x="19.7" y="15.7" class="st0" width="32.5" height="41.5"/>
	<rect x="19.7" y="15.7" class="st2" width="32.5" height="41.5"/>
	
		<line style="clip-path:url(#SVGID_2_);fill:none;stroke:#F47D55;stroke-width:1.2829;stroke-linecap:round;stroke-miterlimit:10;" x1="32.8" y1="24.3" x2="47.7" y2="24.3"/>
	
		<line style="clip-path:url(#SVGID_2_);fill:none;stroke:#F47D55;stroke-width:1.2829;stroke-linecap:round;stroke-miterlimit:10;" x1="32.8" y1="29.2" x2="47.7" y2="29.2"/>
	
		<line style="clip-path:url(#SVGID_2_);fill:none;stroke:#F47D55;stroke-width:1.2829;stroke-linecap:round;stroke-miterlimit:10;" x1="32.8" y1="34" x2="47.7" y2="34"/>
	
		<line style="clip-path:url(#SVGID_2_);fill:none;stroke:#F47D55;stroke-width:1.2829;stroke-linecap:round;stroke-miterlimit:10;" x1="32.8" y1="38.9" x2="47.7" y2="38.9"/>
	
		<line style="clip-path:url(#SVGID_2_);fill:none;stroke:#F47D55;stroke-width:1.2829;stroke-linecap:round;stroke-miterlimit:10;" x1="32.8" y1="43.7" x2="47.7" y2="43.7"/>
	
		<line style="clip-path:url(#SVGID_2_);fill:none;stroke:#F47D55;stroke-width:1.2829;stroke-linecap:round;stroke-miterlimit:10;" x1="32.8" y1="48.6" x2="47.7" y2="48.6"/>
	
		<line style="clip-path:url(#SVGID_2_);fill:none;stroke:#F47D55;stroke-width:0.4943;stroke-linecap:round;stroke-miterlimit:10;" x1="23.7" y1="28.1" x2="27.6" y2="28"/>
	
		<line style="clip-path:url(#SVGID_2_);fill:none;stroke:#F47D55;stroke-width:0.4943;stroke-linecap:round;stroke-miterlimit:10;" x1="23.7" y1="27.2" x2="27.6" y2="27.2"/>
	
		<line style="clip-path:url(#SVGID_2_);fill:none;stroke:#F47D55;stroke-width:0.4943;stroke-linecap:round;stroke-miterlimit:10;" x1="23.7" y1="26.3" x2="27.6" y2="26.3"/>
	<path style="clip-path:url(#SVGID_2_);fill:#F47D55;" d="M23.7,25.7l3.9,0l0-1.7c0-0.4-0.3-0.8-0.8-0.7l-2.4,0
		c-0.4,0-0.8,0.3-0.7,0.8L23.7,25.7z"/>
	
		<rect x="23.8" y="28.8" transform="matrix(1 -3.093809e-03 3.093809e-03 1 -0.1184 7.792336e-02)" style="clip-path:url(#SVGID_2_);fill:#F47D55;" width="2.7" height="19.1"/>
	<rect x="27" y="28.7" style="clip-path:url(#SVGID_2_);fill:#F47D55;" width="0.7" height="19.1"/>
	<g style="clip-path:url(#SVGID_2_);">
		<path class="st7" d="M26.8,48.6l-1.1,1.9l-1.1-1.9L26.8,48.6 M27.7,48.1l-3.9,0l2,3.4L27.7,48.1L27.7,48.1z"/>
	</g>
	<polygon style="clip-path:url(#SVGID_2_);fill:#F47D55;" points="26.5,49.9 25.7,51.2 25,49.9 	"/>
</g>
</svg>
