<svg xmlns="http://www.w3.org/2000/svg" xmlns:xlink="http://www.w3.org/1999/xlink" width="72" height="72" viewBox="0 0 72 72"><style type="text/css">.st0{clip-path:url(#SVGID_2_);fill:#F58B69;} .st1{opacity:0.3;clip-path:url(#SVGID_2_);fill:url(#SVGID_3_);} .st2{clip-path:url(#SVGID_2_);fill:#3B3336;} .st3{clip-path:url(#SVGID_5_);fill:#F58B69;} .st4{opacity:0.3;clip-path:url(#SVGID_5_);fill:url(#SVGID_6_);} .st5{clip-path:url(#SVGID_5_);fill:#3B3336;} .st6{clip-path:url(#SVGID_5_);} .st7{fill:#F47D55;} .st8{fill:#3B3336;} .st9{clip-path:url(#SVGID_8_);fill:#F58B69;} .st10{opacity:0.3;clip-path:url(#SVGID_8_);fill:url(#SVGID_9_);} .st11{clip-path:url(#SVGID_8_);fill:#3B3336;} .st12{clip-path:url(#SVGID_8_);} .st13{clip-path:url(#SVGID_8_);fill:#F47D55;stroke:#F47D55;stroke-width:1.128;stroke-linecap:round;stroke-miterlimit:10;} .st14{clip-path:url(#SVGID_11_);fill:#F58B69;} .st15{opacity:0.3;clip-path:url(#SVGID_11_);fill:url(#SVGID_12_);} .st16{clip-path:url(#SVGID_11_);} .st17{clip-path:url(#SVGID_14_);fill:#F58B69;} .st18{opacity:0.3;clip-path:url(#SVGID_14_);fill:url(#SVGID_15_);} .st19{clip-path:url(#SVGID_14_);fill:#3B3336;} .st20{clip-path:url(#SVGID_14_);fill:none;stroke:#F47D55;stroke-width:1.2829;stroke-linecap:round;stroke-miterlimit:10;} .st21{clip-path:url(#SVGID_14_);fill:none;stroke:#F47D55;stroke-width:0.4943;stroke-linecap:round;stroke-miterlimit:10;} .st22{clip-path:url(#SVGID_14_);fill:#F47D55;} .st23{clip-path:url(#SVGID_14_);} .st24{clip-path:url(#SVGID_17_);fill:#F58B69;} .st25{opacity:0.3;clip-path:url(#SVGID_17_);fill:url(#SVGID_18_);} .st26{clip-path:url(#SVGID_17_);}</style><defs><circle id="SVGID_1_" cx="36" cy="36" r="35.7"/></defs><clipPath id="SVGID_2_"><use xlink:href="#SVGID_1_" overflow="visible"/></clipPath><circle class="st0" cx="36" cy="36.3" r="35.7"/><linearGradient id="SVGID_3_" gradientUnits="userSpaceOnUse" x1="78.051" y1="73.299" x2="17.959" y2="22.875"><stop offset="0" stop-color="#fff" stop-opacity="0"/><stop offset=".1" stop-color="#DBDBDB" stop-opacity=".106"/><stop offset=".238" stop-color="#AFAFB0" stop-opacity=".254"/><stop offset=".378" stop-color="#8A8B8C" stop-opacity=".404"/><stop offset=".518" stop-color="#6E6F71" stop-opacity=".553"/><stop offset=".658" stop-color="#5A5B5D" stop-opacity=".703"/><stop offset=".797" stop-color="#4E4F51" stop-opacity=".851"/><stop offset=".936" stop-color="#4A4B4D"/></linearGradient><path class="st1" d="M71.9 39.3h-.1v-.1h-.1v-.2h-.2v-.1h-.1v-.2h-.2v-.1h-.1v-.2h-.2v-.1h-.1v-.2h-.2v-.1h-.1v-.1h-.1v-.2h-.2v-.1h-.1v-.2h-.2v-.1h-.1v-.2h-.2v-.1h-.1v-.2h-.2v-.1h-.1v-.2h-.1v-.1h-.2v-.1h-.1v-.2h-.2v-.1h-.1v-.2h-.2v-.1h-.1v-.2h-.2v-.1h-.1v-.2h-.2v-.1h-.1v-.1h-.1v-.2h-.2v-.1h-.1v-.2h-.2v-.1h-.1v-.2h-.2v-.1h-.1v-.2h-.2v-.1h-.1v-.2h-.1v-.1h-.2v-.1h-.1v-.2h-.2v-.1h-.1v-.2h-.2v-.1h-.1v-.2h-.2v-.1h-.1v-.2h-.2v-.1h-.1v-.1h-.1v-.2h-.2v-.1h-.1v-.2h-.2v-.1h-.1v-.2h-.2v-.1h-.1v-.2h-.2v-.1h-.1v-.1h-.1v-.2h-.2v-.1h-.1v-.2h-.2v-.1h-.1v-.2h-.2v-.1h-.1v-.2h-.2v-.1h-.1v-.2h-.2v-.1h-.1v-.1h-.1v-.2h-.2v-.1h-.1v-.2h-.2v-.1h-.1v-.2h-.2v-.1h-.1v-.2h-.2v-.1h-.1v-.1h-.1v-.2h-.2v-.1h-.1v-.2h-.2v-.1h-.1v-.2h-.2v-.1h-.1v-.2h-.2v-.1h-.1v-.2h-.1v-.1h-.2v-.1h-.1v-.2h-.2v-.1h-.1v-.2h-.2v-.1h-.1v-.2h-.2v-.1h-.1v-.2h-.2v-.1h-.1v-.1h-.1v-.2h-.2v-.1h-.1v-.2h-.2v-.1h-.1v-.2h-.2v-.1h-.1v-.2h-.2v-.1h-.1v-.1h-.1v-.2h-.2v-.1h-.1v-.2h-.2v-.1h-.1v-.2h-.2v-.1h-.1v-.2h-.2v-.1h-.1v-.2h-.2v-.1h-.1v-.1h-.1v-.2h-.2v-.1h-.1v-.2h-.2v-.1h-.1v-.2h-.2v-.1h-.1v-.2h-.2v-.1h-.1v-.1h-.1v-.2h-.2v-.1h-.1v-.2h-.2v-.1h-.1v-.2h-.2v-.1h-.1v-.2h-.2v-.1h-.1v-.2h-.1v-.1h-.2v-.1h-.1v-.2h-.2v-.1h-.1v-.2h-.2v-.1h-.1v-.2h-.2v-.1h-.1v-.2h-.2v-.1h-.1v-.1h-.1v-.2h-.2v-.1h-.1v-.2h-.2v-.1h-.1v-.2h-.2v-.1h-.1v-.2h-.2v-.1h-.1v-.1h-.1v-.2h-.2v-.1h-.1v-.2h-.2v-.1h-.1v-.2h-.2v-.1h-.1v-.1h-24.1v41.300000000000004h.1v.2-.1h.1v.1l.1-.1v.2h.1v.2-.1h.1v.1l.1-.1v.2l.1-.1v.30000000000000004-.1h.1v.2-.1h.1v.1l.1-.1v.2h.1v.2-.1h.1v.1l.1-.1v.2h.1v.2-.1h.1v.1l.1-.1v.2h.1v.2-.1h.1v.1l.1-.1v.2l.1-.1v.30000000000000004-.1h.1v.1l.1-.1v.2l.1-.1v.30000000000000004-.1h.1v.2-.1h.1v.1l.1-.1v.2h.1v.2-.1h.1v.1l.1-.1v.2h.1v.2-.1h.1v.1l.1-.1v.2h.1v.2-.1h.1v.1l.1-.1v.2l.1-.1v.30000000000000004-.1h.1v.2-.1h.1v.1l.1-.1v.2h.1v.2-.1h.1v.1l.1-.1v.2h.1v.2-.1h.1v.1l.1-.1v.2h.1v.2-.1h.1v.1l.1-.1v.2l.1-.1v.30000000000000004-.1h.1v.2-.1h.1v.1l.1-.1v.30000000000000004-.1h.1v.2-.1h.1v.1l.1-.1v.2h.1v.2-.1h.1v.1l.1-.1v.2h.1v.2-.1h.1v.1l.1-.1v.2h.1v.2-.1h.1v.1l.1-.1v.2l.1-.1v.30000000000000004-.1h.1v.2-.1h.1v.1l.1-.1v.2h.1v.2-.1h.1v.1l.1-.1v.2h.1v.2-.1h.1v.1l.1-.1v.2h.1v.2-.1h.1v.1l.1-.1v.2l.1-.1v.30000000000000004-.1h.1v.2-.1h.1v.1l.1-.1v.30000000000000004-.1h.1v.2-.1h.1v.1l.1-.1v.2h.1v.2-.1h.1v.1l.1-.1v.2h.1v.2-.1h.1v.1l.1-.1v.2l.1-.1v.30000000000000004-.1h.1v.1l.1-.1v.2l.1-.1v.30000000000000004-.1h.1v.2-.1h.1v.1l.1-.1v.2h.1v.2-.1h.1v.1l.1-.1v.2h.1v.2-.1h.1v.1l.1-.1v.2h.1v.2-.1h.1v.1l.1-.1v.2l.1-.1v.30000000000000004-.1h.1v.2-.1h.1v.1l.1-.1v.2h.1v.2-.1h.1v.1l.1-.1v.2h.1v.2-.1h.1v.1l.1-.1v.2h.1v.2-.1h.1v.1l.1-.1v.2l.1-.1v.30000000000000004-.1h.1v.2-.1h.1v.1l.1-.1v.30000000000000004-.1h.1v.2-.1h.1v.1l.1-.1v.2h.1v.2-.1h.1v.1l.1-.1v.2h.1v.2-.1h.1v.1l.1-.1v.2h.1v.2-.1h.1v.1l.1-.1v.2l.1-.1v.30000000000000004-.1h.1v.2-.1h.1v.1l.1-.1v.2h.1v.2-.1h.1v.1l.1-.1v.2h.1v.2-.1h.1v.1l.1-.1v.2h.1v.2-.1h.1v.1l.1-.1v.2l.1-.1v.30000000000000004-.1h.1v.2-.1h.1v.1l.1-.1v.30000000000000004-.1h.1v.2-.1h.1v.1l.1-.1v.2h.1v.2-.1h.1v.1l.1-.1v.2h.1v.2-.1h.1v.1l.1-.1v.2h.1v.2-.1h.1v.1l.1-.1v.2l.1-.1v.30000000000000004-.1h.1v.2-.1h.1v.1l.1-.1v.2h.1v.2-.1h.1v.1l.1-.1v.2h.1v.2-.1h.1v.1l.1-.1v.2h.1v.2-.1h.1v.1l.1-.1v.2l.1-.1v.30000000000000004-.1h.1v.2-.1h.1v.1l.1-.1v.2h.1v.2-.1h.1v.1l.1-.1v.2h.1v.2-.1h.1v.1l.1-.1v.2h.1v.2-.1h.1v.1l.1-.1v.2l.1-.1v.30000000000000004-.1h.1v.2-.1h.1v.1l.1-.1v.30000000000000004-.1h.1v.2-.1h.1v.1l.1-.1v.2h.1v.2-.1h.1v.1l.1-.1v.2h.1v.2-.1h.1v.1l.1-.1v.2h.1v.2-.1h.1v.1l.1-.1v.2l.1-.1v.30000000000000004-.1h.1v.2-.1h.1v.1l.1-.1v.2h.1v.2-.1h.1v.1l.1-.1v.2h.1v.2-.1h.1v.1l.1-.1v.2h.1v.2-.1h.1v.1l.1-.1v.2l.1-.1v.30000000000000004-.1h.1v.2-.1h.1v.1l.1-.1v.30000000000000004-.1h.1v.2-.1h.1v.1l.1-.1v.2h.1v.2-.1h.1v.1l.1-.1v.2h.1v.2-.1h.1v.1l.1-.1v.2h.1v.2-.1h.1v.1l.1-.1v.2l.1-.1v.30000000000000004-.1h.1v.1l12.1-9.6 12 9.6v-41.3z"/><path class="st2" d="M36 15.6h-12v40.9l12-9.5 12 9.5v-40.9z"/></svg>