<?xml version="1.0" encoding="utf-8"?>
<!-- Generator: Adobe Illustrator 19.1.0, SVG Export Plug-In . SVG Version: 6.00 Build 0)  -->
<svg version="1.1" id="Layer_1" xmlns="http://www.w3.org/2000/svg" xmlns:xlink="http://www.w3.org/1999/xlink" x="0px" y="0px"
	 width="72px" height="72px" viewBox="0 0 72 72" style="enable-background:new 0 0 72 72;" xml:space="preserve">
<style type="text/css">
	.st0{fill-rule:evenodd;clip-rule:evenodd;}
</style>
<g>
	<path d="M14.6,0c0.3,0,0.6,0,0.8,0c0.4,0.1,0.5,0.4,0.5,0.8c0,0.1,0,0.2,0,0.3c0,2.2,0,4.5,0,6.7c0,2.5,0,4.9,0,7.4
		c0,0.7,0,1.4,0,2c0,0.4,0.2,0.6,0.6,0.6c0.6,0,1.1,0,1.7-0.1c0.3,0,0.5-0.2,0.6-0.6c0-0.2,0.1-0.4,0.1-0.6c0-0.8,0-1.6,0-2.3
		c0-4.5,0-8.9,0-13.4c0-0.5,0-0.7,0.5-0.8C30.2,0,41,0,51.9,0c0.1,0,0.2,0,0.2,0C54,0,56,0,57.9,0c1,0,2,0.1,2.9,0.3
		c3,0.7,5.5,2.3,7.5,4.6c1.6,1.9,2.7,4,3.1,6.4c0.2,1.3,0.3,2.6,0.3,3.9c0,2.6,0,5.1,0,7.7c0,0.4-0.1,0.5-0.5,0.5
		c-0.1,0-0.2,0-0.3,0c-7.1,0-14.2,0-21.4,0c-0.5,0-0.8-0.1-1.2-0.5c-0.9-0.9-2-1.7-3.1-2.3c-4-2.4-8.2-3.2-12.8-2.4
		c-3.5,0.6-6.6,2.3-9.3,4.7c-0.4,0.3-0.7,0.5-1.2,0.5c-7.2,0-14.3,0-21.5,0C0.1,23.5,0,23.4,0,23c0-0.6,0-1.3,0-1.9
		c0-2.7-0.1-5.4,0.1-8.1c0.1-1.6,0.5-3.2,1.2-4.7C2.4,5.9,4,4.1,6,2.6c0,0,0.1,0,0.1,0c0,0,0,0.1,0,0.1c0,4.3,0,8.6,0,12.8
		c0,0.6,0,1.2,0,1.8c0,0.4,0.2,0.6,0.6,0.6c0.5,0,1.1,0,1.6-0.1c0.4,0,0.5-0.2,0.6-0.6c0-0.2,0-0.5,0-0.7c0-4.8,0-9.7,0-14.5
		c0-0.1,0-0.2,0-0.3c-0.1-0.5,0-0.5,0.4-0.7c0.4-0.2,0.9-0.4,1.4-0.4c0.3,0,0.4,0.1,0.4,0.4c0,0.1,0,0.2,0,0.4c0,4.4,0,8.7,0,13.1
		c0,1,0,1.9,0,2.9c0,0.4,0.2,0.6,0.6,0.6c0.5,0,1,0,1.5,0c0.5,0,0.7-0.2,0.7-0.7c0-0.3,0-0.5,0.1-0.8c0-2.6,0-5.1,0-7.7
		c0-2.5,0-5.1,0-7.6C13.9,0.3,13.9,0.2,14.6,0z M53,12.1C53,12.1,53,12.1,53,12.1c0,1.3,0,2.7,0,4c0,1.3,0.9,2.2,2.3,2.2
		c2.5,0,5,0,7.6,0c1.3,0,2.3-0.9,2.3-2.3c0-2.6,0-5.2,0-7.8c0-1.4-0.9-2.3-2.3-2.3c-2.5,0-5.1,0-7.6,0c-1.3,0-2.2,0.9-2.2,2.2
		C53,9.5,53,10.8,53,12.1z"/>
	<path class="st0" d="M20.9,25.7c-2.8,4.1-4,8.6-3.1,13.5c0.7,4.3,2.7,7.9,6,10.8c6.6,5.8,16.1,6.1,23.1,0.9c3.9-3,6.3-6.9,7.1-11.8
		c0.8-4.9-0.4-9.3-3.2-13.4c0.1,0,0.2,0,0.3,0c5.9,0,11.9,0,17.8,0c0.7,0,1.3,0,2,0c0.1,0,0.3,0,0.4,0c0.3,0,0.5,0.2,0.5,0.5
		c0,0.4,0,0.8,0,1.2c0,3,0,6,0,8.9c0,7.3,0,14.5,0,21.8c0,3.6-1.3,6.7-3.7,9.3c-2.1,2.3-4.7,3.8-7.8,4.3c-0.8,0.1-1.6,0.2-2.4,0.2
		c-14.6,0-29.1,0-43.7,0c-6.6,0-12-4.4-13.6-10.7C0.2,60.1,0,58.8,0,57.5C0,50.8,0,44,0,37.2c0-3.5,0-6.9,0-10.4c0-0.2,0-0.3,0-0.5
		c0-0.4,0.2-0.6,0.7-0.6c0.5,0,0.9,0,1.4,0c6.2,0,12.3,0,18.5,0C20.7,25.7,20.8,25.7,20.9,25.7z"/>
	<path class="st0" d="M35.9,22.2c7.8,0,14.1,6.3,14.1,14.1c0,7.8-6.3,14.1-14.2,14.1c-7.8,0-14.1-6.3-14.1-14.1
		C21.7,28.5,28.1,22.2,35.9,22.2z M46.3,36.5c0-5.8-4.5-10.7-10.5-10.6C30,26,25.3,30.8,25.5,36.5c0.2,5.8,4.8,10.4,10.7,10.2
		C41.7,46.6,46.4,41.9,46.3,36.5z"/>
</g>
</svg>
