<svg xmlns="http://www.w3.org/2000/svg" width="72" height="72" viewBox="0 0 72 72"><style type="text/css">.st0{fill:#F48A69;}</style><path class="st0" d="M14.6 0h.8c.4.1.5.4.5.8v16.4c0 .4.2.6.6.6.6 0 1.1 0 1.7-.1.3 0 .5-.2.6-.6l.1-.6v-15.7c0-.5 0-.7.5-.8h38.5c1 0 2 .1 2.9.3 3 .7 5.5 2.3 7.5 4.6 1.6 1.9 2.7 4 3.1 6.4.2 1.3.3 2.6.3 3.9v7.7c0 .4-.1.5-.5.5h-21.7c-.5 0-.8-.1-1.2-.5-.9-.9-2-1.7-3.1-2.3-4-2.4-8.2-3.2-12.8-2.4-3.5.6-6.6 2.3-9.3 4.7-.4.3-.7.5-1.2.5h-21.5c-.3.1-.4 0-.4-.4v-1.9c0-2.7-.1-5.4.1-8.1.1-1.6.5-3.2 1.2-4.7 1.1-2.4 2.7-4.2 4.7-5.7h.1v14.700000000000001c0 .4.2.6.6.6.5 0 1.1 0 1.6-.1.4 0 .5-.2.6-.6v-15.5c-.1-.5 0-.5.4-.7s.9-.4 1.4-.4c.3 0 .4.1.4.4v16.4c0 .4.2.6.6.6h1.5s.7-.2.7-.7c0-.3 0-.5.1-.8v-15.3c-.1-.9-.1-1 .6-1.2zm38.4 12.1v4s.9 2.2 2.3 2.2h7.6c1.3 0 2.3-.9 2.3-2.3v-7.8c0-1.4-.9-2.3-2.3-2.3h-7.6c-1.3 0-2.2.9-2.2 2.2-.1 1.4-.1 2.7-.1 4zM20.9 25.7c-2.8 4.1-4 8.6-3.1 13.5.7 4.3 2.7 7.9 6 10.8 6.6 5.8 16.1 6.1 23.1.9 3.9-3 6.3-6.9 7.1-11.8s-.4-9.3-3.2-13.4h20.5c.3 0 .5.2.5.5v31.9c0 3.6-1.3 6.7-3.7 9.3-2.1 2.3-4.7 3.8-7.8 4.3-.8.1-1.6.2-2.4.2h-43.7c-6.6 0-12-4.4-13.6-10.7-.4-1.1-.6-2.4-.6-3.7v-31.200000000000003c0-.4.2-.6.7-.6h20.2zM35.9 22.2c7.8 0 14.1 6.3 14.1 14.1s-6.3 14.1-14.2 14.1c-7.8 0-14.1-6.3-14.1-14.1s6.4-14.1 14.2-14.1zm10.4 14.3c0-5.8-4.5-10.7-10.5-10.6-5.8.1-10.5 4.9-10.3 10.6.2 5.8 4.8 10.4 10.7 10.2 5.5-.1 10.2-4.8 10.1-10.2z"/></svg>