<?xml version="1.0" encoding="utf-8"?>
<!-- Generator: Adobe Illustrator 19.1.0, SVG Export Plug-In . SVG Version: 6.00 Build 0)  -->
<svg version="1.1" id="Layer_1" xmlns="http://www.w3.org/2000/svg" xmlns:xlink="http://www.w3.org/1999/xlink" x="0px" y="0px"
	 width="72px" height="72px" viewBox="0 0 72 72" style="enable-background:new 0 0 72 72;" xml:space="preserve">
<style type="text/css">
	.st0{fill:#F47D55;}
</style>
<path class="st0" d="M53.2,24.7c0,0,2.6,11.8-7,14.9c0,0,12.7-19.4-16-39.5c0,0,4.3,10.6-1.9,19.2c-0.6,0.8-1.3,1.5-1.9,2.3
	c-0.7,0.7-1.5,1.6-2,1.8c-1-1.8-2.9-3.8-6-4.8c0,0,1.2,3.6-0.8,9.9c-1.2,4-4.5,6.8-6,10.6c-1.7,3.7-2.6,7.9-2.2,13.2
	c1,11.6,10.4,16.5,16,18.4h0c0,0,0.1,0,0.1,0c0.4,0.1,0.8,0.3,1.2,0.4c0.2,0.1,0.4,0.1,0.7,0.2c1.3,0.4,2.2,0.5,2.2,0.5s0,0,0,0
	c2.5,0.4,5.5,0.5,9.1,0c0.4,0,2.7-0.3,5.6-1.2c0,0,0,0,0,0h0C53.8,67.6,70.5,57.7,53.2,24.7z"/>
</svg>
